VotoSerifGX-CondensedLightDisplay.ufo
<glyph name="percent" format="2">
  <advance width="531"/>
  <unicode hex="0025"/>
  <outline>
    <contour>
      <point x="148" y="0" type="line"/>
      <point x="157" y="0" type="line"/>
      <point x="380" y="714" type="line"/>
      <point x="371" y="714" type="line"/>
    </contour>
    <contour>
      <point x="123" y="280" type="curve" smooth="yes"/>
      <point x="183" y="280"/>
      <point x="217" y="351"/>
      <point x="217" y="503" type="curve" smooth="yes"/>
      <point x="217" y="656"/>
      <point x="189" y="724"/>
      <point x="124" y="724" type="curve" smooth="yes"/>
      <point x="62" y="724"/>
      <point x="32" y="654"/>
      <point x="32" y="503" type="curve" smooth="yes"/>
      <point x="32" y="347"/>
      <point x="64" y="280"/>
    </contour>
    <contour>
      <point x="124" y="290" type="curve" smooth="yes"/>
      <point x="70" y="290"/>
      <point x="60" y="361"/>
      <point x="60" y="503" type="curve" smooth="yes"/>
      <point x="60" y="655"/>
      <point x="74" y="714"/>
      <point x="124" y="714" type="curve" smooth="yes"/>
      <point x="182" y="714"/>
      <point x="189" y="642"/>
      <point x="189" y="503" type="curve" smooth="yes"/>
      <point x="189" y="352"/>
      <point x="177" y="290"/>
    </contour>
    <contour>
      <point x="406" y="-10" type="curve" smooth="yes"/>
      <point x="466" y="-10"/>
      <point x="500" y="61"/>
      <point x="500" y="213" type="curve" smooth="yes"/>
      <point x="500" y="366"/>
      <point x="472" y="434"/>
      <point x="407" y="434" type="curve" smooth="yes"/>
      <point x="345" y="434"/>
      <point x="315" y="364"/>
      <point x="315" y="213" type="curve" smooth="yes"/>
      <point x="315" y="57"/>
      <point x="347" y="-10"/>
    </contour>
    <contour>
      <point x="407" y="0" type="curve" smooth="yes"/>
      <point x="353" y="0"/>
      <point x="343" y="71"/>
      <point x="343" y="213" type="curve" smooth="yes"/>
      <point x="343" y="365"/>
      <point x="357" y="424"/>
      <point x="407" y="424" type="curve" smooth="yes"/>
      <point x="465" y="424"/>
      <point x="472" y="352"/>
      <point x="472" y="213" type="curve" smooth="yes"/>
      <point x="472" y="62"/>
      <point x="460" y="0"/>
    </contour>
  </outline>
</glyph>
<glyph name="asterisk" format="2">
  <advance width="292"/>
  <unicode hex="002A"/>
  <outline>
    <contour>
      <point x="130" y="385" type="line"/>
      <point x="162" y="385" type="line"/>
      <point x="153" y="562" type="line"/>
      <point x="244" y="490" type="line"/>
      <point x="262" y="516" type="line"/>
      <point x="157" y="572" type="line"/>
      <point x="263" y="629" type="line"/>
      <point x="244" y="657" type="line"/>
      <point x="153" y="582" type="line"/>
      <point x="162" y="760" type="line"/>
      <point x="131" y="760" type="line"/>
      <point x="138" y="583" type="line"/>
      <point x="47" y="659" type="line"/>
      <point x="27" y="629" type="line"/>
      <point x="132" y="572" type="line"/>
      <point x="27" y="516" type="line"/>
      <point x="47" y="488" type="line"/>
      <point x="138" y="561" type="line"/>
    </contour>
  </outline>
</glyph>
<glyph name="two" format="2">
  <advance width="336"/>
  <unicode hex="0032"/>
  <outline>
    <contour>
      <point x="34" y="0" type="line"/>
      <point x="278" y="0" type="line"/>
      <point x="278" y="134" type="line"/>
      <point x="268" y="134" type="line"/>
      <point x="268" y="97" type="line" smooth="yes"/>
      <point x="268" y="49"/>
      <point x="262" y="30"/>
      <point x="208" y="30" type="curve" smooth="yes"/>
      <point x="50" y="30" type="line"/>
      <point x="116" y="173" type="line" smooth="yes"/>
      <point x="224" y="399"/>
      <point x="265" y="476"/>
      <point x="265" y="569" type="curve" smooth="yes"/>
      <point x="265" y="669"/>
      <point x="229" y="724"/>
      <point x="164" y="724" type="curve" smooth="yes"/>
      <point x="89" y="724"/>
      <point x="61" y="647"/>
      <point x="61" y="599" type="curve" smooth="yes"/>
      <point x="61" y="568"/>
      <point x="78" y="559"/>
      <point x="87" y="559" type="curve"/>
      <point x="91" y="644"/>
      <point x="96" y="714"/>
      <point x="164" y="714" type="curve" smooth="yes"/>
      <point x="225" y="714"/>
      <point x="237" y="659"/>
      <point x="237" y="562" type="curve" smooth="yes"/>
      <point x="237" y="492"/>
      <point x="207" y="410"/>
      <point x="124" y="226" type="curve" smooth="yes"/>
      <point x="34" y="22" type="line"/>
    </contour>
  </outline>
</glyph>
<glyph name="five" format="2">
  <advance width="336"/>
  <unicode hex="0035"/>
  <outline>
    <contour>
      <point x="144" y="-10" type="curve" smooth="yes"/>
      <point x="222" y="-10"/>
      <point x="280" y="44"/>
      <point x="280" y="204" type="curve" smooth="yes"/>
      <point x="280" y="360"/>
      <point x="233" y="423"/>
      <point x="156" y="423" type="curve" smooth="yes"/>
      <point x="114" y="423"/>
      <point x="83" y="404"/>
      <point x="70" y="381" type="curve"/>
      <point x="86" y="684" type="line"/>
      <point x="204" y="684" type="line" smooth="yes"/>
      <point x="241" y="684"/>
      <point x="247" y="675"/>
      <point x="249" y="624" type="curve" smooth="yes"/>
      <point x="250" y="601" type="line"/>
      <point x="260" y="601" type="line"/>
      <point x="257" y="712" type="line"/>
      <point x="73" y="712" type="line"/>
      <point x="53" y="358" type="line"/>
      <point x="64" y="354" type="line"/>
      <point x="68" y="373"/>
      <point x="93" y="408"/>
      <point x="148" y="408" type="curve" smooth="yes"/>
      <point x="219" y="408"/>
      <point x="252" y="354"/>
      <point x="252" y="204" type="curve" smooth="yes"/>
      <point x="252" y="51"/>
      <point x="206" y="0"/>
      <point x="138" y="0" type="curve" smooth="yes"/>
      <point x="67" y="0"/>
      <point x="59" y="67"/>
      <point x="59" y="126" type="curve"/>
      <point x="42" y="127"/>
      <point x="33" y="104"/>
      <point x="33" y="90" type="curve" smooth="yes"/>
      <point x="33" y="67"/>
      <point x="51" y="-10"/>
    </contour>
  </outline>
</glyph>
<glyph name="eight" format="2">
  <advance width="336"/>
  <unicode hex="0038"/>
  <outline>
    <contour>
      <point x="165" y="-10" type="curve" smooth="yes"/>
      <point x="245" y="-10"/>
      <point x="300" y="55"/>
      <point x="300" y="175" type="curve" smooth="yes"/>
      <point x="300" y="289"/>
      <point x="248" y="342"/>
      <point x="191" y="385" type="curve"/>
      <point x="260" y="425"/>
      <point x="287" y="473"/>
      <point x="287" y="552" type="curve" smooth="yes"/>
      <point x="287" y="655"/>
      <point x="249" y="724"/>
      <point x="173" y="724" type="curve" smooth="yes"/>
      <point x="87" y="724"/>
      <point x="52" y="644"/>
      <point x="52" y="550" type="curve" smooth="yes"/>
      <point x="52" y="473"/>
      <point x="92" y="407"/>
      <point x="154" y="376" type="curve"/>
      <point x="80" y="335"/>
      <point x="36" y="276"/>
      <point x="36" y="172" type="curve" smooth="yes"/>
      <point x="36" y="59"/>
      <point x="83" y="-10"/>
    </contour>
    <contour>
      <point x="165" y="0" type="curve" smooth="yes"/>
      <point x="97" y="0"/>
      <point x="64" y="66"/>
      <point x="64" y="169" type="curve" smooth="yes"/>
      <point x="64" y="253"/>
      <point x="83" y="326"/>
      <point x="166" y="368" type="curve"/>
      <point x="249" y="322"/>
      <point x="272" y="260"/>
      <point x="272" y="171" type="curve" smooth="yes"/>
      <point x="272" y="59"/>
      <point x="229" y="0"/>
    </contour>
    <contour>
      <point x="182" y="391" type="curve"/>
      <point x="107" y="435"/>
      <point x="80" y="473"/>
      <point x="80" y="556" type="curve" smooth="yes"/>
      <point x="80" y="653"/>
      <point x="117" y="714"/>
      <point x="173" y="714" type="curve" smooth="yes"/>
      <point x="233" y="714"/>
      <point x="259" y="639"/>
      <point x="259" y="555" type="curve" smooth="yes"/>
      <point x="259" y="466"/>
      <point x="258" y="438"/>
    </contour>
  </outline>
</glyph>
<glyph name="colon" format="2">
  <advance width="161"/>
  <unicode hex="003A"/>
  <outline>
    <contour>
      <point x="73" y="433" type="curve" smooth="yes"/>
      <point x="89" y="433"/>
      <point x="93" y="447"/>
      <point x="93" y="473" type="curve" smooth="yes"/>
      <point x="93" y="498"/>
      <point x="89" y="511"/>
      <point x="73" y="511" type="curve" smooth="yes"/>
      <point x="56" y="511"/>
      <point x="53" y="498"/>
      <point x="53" y="473" type="curve" smooth="yes"/>
      <point x="53" y="447"/>
      <point x="56" y="433"/>
    </contour>
    <contour>
      <point x="73" y="-5" type="curve" smooth="yes"/>
      <point x="89" y="-5"/>
      <point x="93" y="9"/>
      <point x="93" y="35" type="curve" smooth="yes"/>
      <point x="93" y="60"/>
      <point x="89" y="73"/>
      <point x="73" y="73" type="curve" smooth="yes"/>
      <point x="56" y="73"/>
      <point x="53" y="60"/>
      <point x="53" y="35" type="curve" smooth="yes"/>
      <point x="53" y="9"/>
      <point x="56" y="-5"/>
    </contour>
  </outline>
</glyph>
<glyph name="at" format="2">
  <advance width="548"/>
  <unicode hex="0040"/>
  <outline>
    <contour>
      <point x="252" y="-142" type="curve" smooth="yes"/>
      <point x="317" y="-142"/>
      <point x="373" y="-89"/>
      <point x="413" y="-42" type="curve"/>
      <point x="408" y="-34" type="line"/>
      <point x="368" y="-83"/>
      <point x="319" y="-132"/>
      <point x="252" y="-132" type="curve" smooth="yes"/>
      <point x="148" y="-132"/>
      <point x="71" y="-41"/>
      <point x="71" y="200" type="curve" smooth="yes"/>
      <point x="71" y="503"/>
      <point x="184" y="704"/>
      <point x="311" y="704" type="curve" smooth="yes"/>
      <point x="458" y="704"/>
      <point x="487" y="567"/>
      <point x="487" y="391" type="curve" smooth="yes"/>
      <point x="487" y="192"/>
      <point x="442" y="87"/>
      <point x="398" y="87" type="curve" smooth="yes"/>
      <point x="363" y="87"/>
      <point x="360" y="123"/>
      <point x="360" y="201" type="curve" smooth="yes"/>
      <point x="360" y="224"/>
      <point x="363" y="251"/>
      <point x="363" y="271" type="curve" smooth="yes"/>
      <point x="395" y="520" type="line"/>
      <point x="385" y="520" type="line"/>
      <point x="367" y="494" type="line"/>
      <point x="361" y="504"/>
      <point x="349" y="529"/>
      <point x="310" y="529" type="curve" smooth="yes"/>
      <point x="189" y="529"/>
      <point x="162" y="353"/>
      <point x="162" y="255" type="curve" smooth="yes"/>
      <point x="162" y="132"/>
      <point x="194" y="77"/>
      <point x="249" y="77" type="curve" smooth="yes"/>
      <point x="296" y="77"/>
      <point x="312" y="104"/>
      <point x="333" y="153" type="curve"/>
      <point x="337" y="153" type="line"/>
      <point x="348" y="110"/>
      <point x="357" y="77"/>
      <point x="398" y="77" type="curve" smooth="yes"/>
      <point x="459" y="77"/>
      <point x="515" y="207"/>
      <point x="515" y="395" type="curve" smooth="yes"/>
      <point x="515" y="584"/>
      <point x="459" y="714"/>
      <point x="313" y="714" type="curve" smooth="yes"/>
      <point x="150" y="714"/>
      <point x="43" y="484"/>
      <point x="43" y="194" type="curve" smooth="yes"/>
      <point x="43" y="-29"/>
      <point x="122" y="-142"/>
    </contour>
    <contour>
      <point x="257" y="89" type="curve" smooth="yes"/>
      <point x="212" y="89"/>
      <point x="190" y="124"/>
      <point x="190" y="253" type="curve" smooth="yes"/>
      <point x="190" y="337"/>
      <point x="211" y="519"/>
      <point x="303" y="519" type="curve" smooth="yes"/>
      <point x="337" y="519"/>
      <point x="352" y="501"/>
      <point x="359" y="463" type="curve"/>
      <point x="336" y="259" type="line" smooth="yes"/>
      <point x="326" y="184"/>
      <point x="304" y="89"/>
    </contour>
  </outline>
</glyph>
<glyph name="T" format="2">
  <advance width="351"/>
  <unicode hex="0054"/>
  <anchor x="175" y="0" name="bottom"/>
  <anchor x="175" y="357" name="center"/>
  <anchor x="175" y="714" name="top"/>
  <anchor x="358" y="714" name="topright"/>
  <outline>
    <contour>
      <point x="91" y="0" type="line"/>
      <point x="256" y="0" type="line"/>
      <point x="256" y="10" type="line"/>
      <point x="244" y="10" type="line" smooth="yes"/>
      <point x="194" y="10"/>
      <point x="188" y="21"/>
      <point x="188" y="98" type="curve" smooth="yes"/>
      <point x="188" y="707" type="line"/>
      <point x="262" y="707" type="line" smooth="yes"/>
      <point x="314" y="707"/>
      <point x="319" y="693"/>
      <point x="321" y="638" type="curve" smooth="yes"/>
      <point x="324" y="563" type="line"/>
      <point x="334" y="563" type="line"/>
      <point x="330" y="714" type="line"/>
      <point x="21" y="714" type="line"/>
      <point x="17" y="563" type="line"/>
      <point x="27" y="563" type="line"/>
      <point x="30" y="638" type="line" smooth="yes"/>
      <point x="32" y="693"/>
      <point x="37" y="707"/>
      <point x="89" y="707" type="curve" smooth="yes"/>
      <point x="160" y="707" type="line"/>
      <point x="160" y="98" type="line" smooth="yes"/>
      <point x="160" y="21"/>
      <point x="154" y="10"/>
      <point x="104" y="10" type="curve" smooth="yes"/>
      <point x="91" y="10" type="line"/>
    </contour>
  </outline>
</glyph>
<glyph name="W" format="2">
  <advance width="616"/>
  <unicode hex="0057"/>
  <anchor x="314" y="0" name="bottom"/>
  <anchor x="314" y="714" name="top"/>
  <anchor x="656" y="714" name="topright"/>
  <outline>
    <contour>
      <point x="148" y="0" type="line"/>
      <point x="169" y="0" type="line"/>
      <point x="305" y="667" type="line"/>
      <point x="445" y="0" type="line"/>
      <point x="469" y="0" type="line"/>
      <point x="578" y="655" type="line" smooth="yes"/>
      <point x="585" y="702"/>
      <point x="598" y="704"/>
      <point x="641" y="704" type="curve" smooth="yes"/>
      <point x="630" y="704" type="line"/>
      <point x="630" y="714" type="line"/>
      <point x="495" y="714" type="line"/>
      <point x="495" y="704" type="line"/>
      <point x="515" y="704" type="line" smooth="yes"/>
      <point x="561" y="704"/>
      <point x="566" y="695"/>
      <point x="566" y="676" type="curve" smooth="yes"/>
      <point x="566" y="662"/>
      <point x="566" y="645"/>
      <point x="559" y="602" type="curve" smooth="yes"/>
      <point x="499" y="237" type="line" smooth="yes"/>
      <point x="481" y="144"/>
      <point x="482" y="134"/>
      <point x="461" y="31" type="curve"/>
      <point x="450" y="102"/>
      <point x="441" y="150"/>
      <point x="424" y="230" type="curve" smooth="yes"/>
      <point x="324" y="714" type="line"/>
      <point x="303" y="714" type="line"/>
      <point x="197" y="191" type="line" smooth="yes"/>
      <point x="188" y="143"/>
      <point x="178" y="99"/>
      <point x="163" y="37" type="curve"/>
      <point x="158" y="95"/>
      <point x="156" y="114"/>
      <point x="146" y="196" type="curve" smooth="yes"/>
      <point x="98" y="598" type="line" smooth="yes"/>
      <point x="94" y="636"/>
      <point x="91" y="663"/>
      <point x="91" y="676" type="curve" smooth="yes"/>
      <point x="91" y="695"/>
      <point x="96" y="704"/>
      <point x="143" y="704" type="curve" smooth="yes"/>
      <point x="142" y="704" type="line"/>
      <point x="142" y="714" type="line"/>
      <point x="9" y="714" type="line"/>
      <point x="9" y="704" type="line"/>
      <point x="2" y="704" type="line" smooth="yes"/>
      <point x="43" y="704"/>
      <point x="57" y="700"/>
      <point x="63" y="656" type="curve" smooth="yes"/>
    </contour>
  </outline>
</glyph>
<glyph name="v" format="2">
  <advance width="333"/>
  <unicode hex="0076"/>
  <anchor x="166" y="0" name="bottom"/>
  <anchor x="166" y="536" name="top"/>
  <anchor x="307" y="536" name="topright"/>
  <outline>
    <contour>
      <point x="152" y="0" type="line"/>
      <point x="167" y="0" type="line"/>
      <point x="274" y="478" type="line" smooth="yes"/>
      <point x="284" y="526"/>
      <point x="294" y="526"/>
      <point x="311" y="526" type="curve" smooth="yes"/>
      <point x="331" y="526" type="line"/>
      <point x="331" y="536" type="line"/>
      <point x="206" y="536" type="line"/>
      <point x="206" y="526" type="line"/>
      <point x="220" y="526" type="line" smooth="yes"/>
      <point x="259" y="526"/>
      <point x="266" y="522"/>
      <point x="266" y="503" type="curve" smooth="yes"/>
      <point x="266" y="495"/>
      <point x="260" y="454"/>
      <point x="241" y="373" type="curve" smooth="yes"/>
      <point x="207" y="219" type="line" smooth="yes"/>
      <point x="184" y="120"/>
      <point x="175" y="72"/>
      <point x="169" y="44" type="curve"/>
      <point x="161" y="88"/>
      <point x="147" y="163"/>
      <point x="132" y="219" type="curve" smooth="yes"/>
      <point x="80" y="417" type="line" smooth="yes"/>
      <point x="71" y="450"/>
      <point x="64" y="498"/>
      <point x="64" y="510" type="curve" smooth="yes"/>
      <point x="64" y="526"/>
      <point x="77" y="526"/>
      <point x="110" y="526" type="curve" smooth="yes"/>
      <point x="120" y="526" type="line"/>
      <point x="120" y="536" type="line"/>
      <point x="0" y="536" type="line"/>
      <point x="0" y="526" type="line"/>
      <point x="26" y="526"/>
      <point x="31" y="518"/>
      <point x="40" y="478" type="curve" smooth="yes"/>
    </contour>
  </outline>
</glyph>
<glyph name="x" format="2">
  <advance width="315"/>
  <unicode hex="0078"/>
  <anchor x="158" y="0" name="bottom"/>
  <anchor x="158" y="536" name="top"/>
  <anchor x="295" y="536" name="topright"/>
  <outline>
    <contour>
      <point x="0" y="0" type="line"/>
      <point x="149" y="0" type="line"/>
      <point x="149" y="10" type="line"/>
      <point x="102" y="10" type="line" smooth="yes"/>
      <point x="77" y="10"/>
      <point x="72" y="12"/>
      <point x="72" y="24" type="curve" smooth="yes"/>
      <point x="72" y="34"/>
      <point x="78" y="46"/>
      <point x="89" y="79" type="curve" smooth="yes"/>
      <point x="151" y="255" type="line"/>
      <point x="223" y="87" type="line" smooth="yes"/>
      <point x="239" y="52"/>
      <point x="247" y="34"/>
      <point x="247" y="24" type="curve" smooth="yes"/>
      <point x="247" y="15"/>
      <point x="245" y="10"/>
      <point x="207" y="10" type="curve" smooth="yes"/>
      <point x="185" y="10" type="line"/>
      <point x="185" y="0" type="line"/>
      <point x="309" y="0" type="line"/>
      <point x="309" y="10" type="line"/>
      <point x="312" y="10" type="line" smooth="yes"/>
      <point x="298" y="10"/>
      <point x="287" y="12"/>
      <point x="266" y="58" type="curve" smooth="yes"/>
      <point x="164" y="291" type="line"/>
      <point x="234" y="478" type="line" smooth="yes"/>
      <point x="251" y="525"/>
      <point x="266" y="526"/>
      <point x="294" y="526" type="curve" smooth="yes"/>
      <point x="306" y="526" type="line"/>
      <point x="306" y="536" type="line"/>
      <point x="162" y="536" type="line"/>
      <point x="162" y="526" type="line"/>
      <point x="191" y="526" type="line" smooth="yes"/>
      <point x="229" y="526"/>
      <point x="232" y="521"/>
      <point x="232" y="510" type="curve" smooth="yes"/>
      <point x="232" y="500"/>
      <point x="223" y="479"/>
      <point x="212" y="447" type="curve" smooth="yes"/>
      <point x="159" y="305" type="line"/>
      <point x="92" y="451" type="line" smooth="yes"/>
      <point x="78" y="482"/>
      <point x="71" y="502"/>
      <point x="71" y="512" type="curve" smooth="yes"/>
      <point x="71" y="521"/>
      <point x="73" y="526"/>
      <point x="110" y="526" type="curve" smooth="yes"/>
      <point x="135" y="526" type="line"/>
      <point x="135" y="536" type="line"/>
      <point x="7" y="536" type="line"/>
      <point x="7" y="526" type="line"/>
      <point x="-2" y="526" type="line" smooth="yes"/>
      <point x="19" y="526"/>
      <point x="31" y="522"/>
      <point x="51" y="478" type="curve" smooth="yes"/>
      <point x="146" y="266" type="line"/>
      <point x="75" y="63" type="line" smooth="yes"/>
      <point x="56" y="13"/>
      <point x="41" y="10"/>
      <point x="7" y="10" type="curve" smooth="yes"/>
      <point x="0" y="10" type="line"/>
    </contour>
  </outline>
</glyph>
<glyph name="threesuperior" format="2">
  <advance width="238"/>
  <unicode hex="00B3"/>
  <outline>
    <contour>
      <point x="115" y="377" type="curve" smooth="yes"/>
      <point x="159" y="377"/>
      <point x="208" y="402"/>
      <point x="208" y="496" type="curve" smooth="yes"/>
      <point x="208" y="582"/>
      <point x="154" y="599"/>
      <point x="115" y="606" type="curve"/>
      <point x="115" y="605" type="line"/>
      <point x="162" y="613"/>
      <point x="197" y="663"/>
      <point x="197" y="726" type="curve" smooth="yes"/>
      <point x="197" y="797"/>
      <point x="157" y="819"/>
      <point x="121" y="819" type="curve" smooth="yes"/>
      <point x="66" y="819"/>
      <point x="37" y="789"/>
      <point x="37" y="744" type="curve" smooth="yes"/>
      <point x="37" y="716"/>
      <point x="53" y="701"/>
      <point x="65" y="700" type="curve"/>
      <point x="65" y="766"/>
      <point x="56" y="809"/>
      <point x="117" y="809" type="curve" smooth="yes"/>
      <point x="145" y="809"/>
      <point x="169" y="790"/>
      <point x="169" y="732" type="curve" smooth="yes"/>
      <point x="169" y="642"/>
      <point x="121" y="611"/>
      <point x="101" y="611" type="curve" smooth="yes"/>
      <point x="82" y="611" type="line"/>
      <point x="82" y="601" type="line"/>
      <point x="99" y="601" type="line" smooth="yes"/>
      <point x="148" y="601"/>
      <point x="180" y="565"/>
      <point x="180" y="486" type="curve" smooth="yes"/>
      <point x="180" y="417"/>
      <point x="150" y="387"/>
      <point x="112" y="387" type="curve" smooth="yes"/>
      <point x="63" y="387"/>
      <point x="56" y="424"/>
      <point x="56" y="488" type="curve"/>
      <point x="49" y="488"/>
      <point x="31" y="477"/>
      <point x="31" y="451" type="curve" smooth="yes"/>
      <point x="31" y="422"/>
      <point x="55" y="377"/>
    </contour>
  </outline>
</glyph>
<glyph name="onesuperior" format="2">
  <advance width="238"/>
  <unicode hex="00B9"/>
  <outline>
    <contour>
      <point x="47" y="385" type="line"/>
      <point x="192" y="385" type="line"/>
      <point x="192" y="395" type="line"/>
      <point x="173" y="395" type="line" smooth="yes"/>
      <point x="141" y="395"/>
      <point x="142" y="403"/>
      <point x="142" y="460" type="curve" smooth="yes"/>
      <point x="142" y="817" type="line"/>
      <point x="116" y="817" type="line"/>
      <point x="123" y="824" type="line" smooth="yes"/>
      <point x="64" y="747"/>
      <point x="52" y="748"/>
      <point x="36" y="743" type="curve"/>
      <point x="36" y="729"/>
      <point x="48" y="724"/>
      <point x="62" y="724" type="curve" smooth="yes"/>
      <point x="73" y="724"/>
      <point x="68" y="718"/>
      <point x="113" y="795" type="curve"/>
      <point x="113" y="460" type="line" smooth="yes"/>
      <point x="113" y="403"/>
      <point x="114" y="395"/>
      <point x="81" y="395" type="curve" smooth="yes"/>
      <point x="47" y="395" type="line"/>
    </contour>
  </outline>
</glyph>
<glyph name="thorn" format="2">
  <advance width="354"/>
  <unicode hex="00FE"/>
  <anchor x="177" y="-240" name="bottom"/>
  <anchor x="177" y="760" name="top"/>
  <outline>
    <contour>
      <point x="14" y="-240" type="line"/>
      <point x="152" y="-240" type="line"/>
      <point x="152" y="-230" type="line"/>
      <point x="160" y="-230" type="line" smooth="yes"/>
      <point x="103" y="-230"/>
      <point x="97" y="-223"/>
      <point x="97" y="-155" type="curve" smooth="yes"/>
      <point x="97" y="-15" type="line" smooth="yes"/>
      <point x="97" y="17"/>
      <point x="97" y="114"/>
      <point x="96" y="125" type="curve"/>
      <point x="96" y="125" type="line"/>
      <point x="111" y="28"/>
      <point x="144" y="-10"/>
      <point x="205" y="-10" type="curve" smooth="yes"/>
      <point x="273" y="-10"/>
      <point x="319" y="80"/>
      <point x="319" y="281" type="curve" smooth="yes"/>
      <point x="319" y="475"/>
      <point x="274" y="546"/>
      <point x="199" y="546" type="curve" smooth="yes"/>
      <point x="145" y="546"/>
      <point x="115" y="502"/>
      <point x="97" y="409" type="curve"/>
      <point x="95" y="409" type="line"/>
      <point x="97" y="520"/>
      <point x="97" y="529"/>
      <point x="97" y="574" type="curve" smooth="yes"/>
      <point x="97" y="760" type="line"/>
      <point x="17" y="760" type="line"/>
      <point x="17" y="750" type="line"/>
      <point x="-8" y="750" type="line" smooth="yes"/>
      <point x="69" y="750"/>
      <point x="69" y="743"/>
      <point x="69" y="676" type="curve" smooth="yes"/>
      <point x="69" y="-155" type="line" smooth="yes"/>
      <point x="69" y="-223"/>
      <point x="64" y="-230"/>
      <point x="1" y="-230" type="curve" smooth="yes"/>
      <point x="14" y="-230" type="line"/>
    </contour>
    <contour>
      <point x="202" y="-3" type="curve" smooth="yes"/>
      <point x="118" y="-3"/>
      <point x="97" y="103"/>
      <point x="97" y="274" type="curve" smooth="yes"/>
      <point x="97" y="459"/>
      <point x="143" y="539"/>
      <point x="199" y="539" type="curve" smooth="yes"/>
      <point x="255" y="539"/>
      <point x="291" y="468"/>
      <point x="291" y="285" type="curve" smooth="yes"/>
      <point x="291" y="109"/>
      <point x="275" y="-3"/>
    </contour>
  </outline>
</glyph>
<glyph name="uni0199" format="2">
  <advance width="328"/>
  <unicode hex="0199"/>
  <anchor x="164" y="0" name="bottom"/>
  <anchor x="164" y="763" name="top"/>
  <outline>
    <contour>
      <point x="10" y="0" type="line"/>
      <point x="146" y="0" type="line"/>
      <point x="146" y="10" type="line"/>
      <point x="148" y="10" type="line" smooth="yes"/>
      <point x="103" y="10"/>
      <point x="96" y="17"/>
      <point x="96" y="87" type="curve" smooth="yes"/>
      <point x="96" y="205" type="line"/>
      <point x="153" y="308" type="line"/>
      <point x="242" y="95" type="line" smooth="yes"/>
      <point x="275" y="11"/>
      <point x="294" y="0"/>
      <point x="341" y="0" type="curve" smooth="yes"/>
      <point x="341" y="0" type="line"/>
      <point x="341" y="10" type="line"/>
      <point x="332" y="10" type="line" smooth="yes"/>
      <point x="291" y="10"/>
      <point x="291" y="38"/>
      <point x="262" y="113" type="curve" smooth="yes"/>
      <point x="171" y="338" type="line"/>
      <point x="266" y="499" type="line" smooth="yes"/>
      <point x="271" y="521"/>
      <point x="282" y="526"/>
      <point x="296" y="526" type="curve"/>
      <point x="296" y="536" type="line"/>
      <point x="171" y="536" type="line"/>
      <point x="171" y="526" type="line"/>
      <point x="228" y="526"/>
      <point x="235" y="521"/>
      <point x="235" y="505" type="curve" smooth="yes"/>
      <point x="235" y="490"/>
      <point x="218" y="449"/>
      <point x="161" y="350" type="curve" smooth="yes"/>
      <point x="95" y="220" type="line"/>
      <point x="96" y="255"/>
      <point x="96" y="344"/>
      <point x="96" y="372" type="curve" smooth="yes"/>
      <point x="96" y="618" type="line" smooth="yes"/>
      <point x="96" y="704"/>
      <point x="98" y="753"/>
      <point x="151" y="753" type="curve" smooth="yes"/>
      <point x="195" y="753"/>
      <point x="191" y="704"/>
      <point x="184" y="664" type="curve"/>
      <point x="198" y="662"/>
      <point x="208" y="684"/>
      <point x="208" y="704" type="curve" smooth="yes"/>
      <point x="208" y="734"/>
      <point x="191" y="763"/>
      <point x="151" y="763" type="curve" smooth="yes"/>
      <point x="92" y="763"/>
      <point x="68" y="715"/>
      <point x="68" y="614" type="curve" smooth="yes"/>
      <point x="68" y="87" type="line" smooth="yes"/>
      <point x="68" y="17"/>
      <point x="61" y="10"/>
      <point x="8" y="10" type="curve" smooth="yes"/>
      <point x="10" y="10" type="line"/>
    </contour>
  </outline>
</glyph>
<glyph name="uni019B" format="2">
  <advance width="304"/>
  <unicode hex="019B"/>
  <anchor x="153" y="0" name="bottom"/>
  <anchor x="153" y="770" name="top"/>
  <outline>
    <contour>
      <point x="9" y="0" type="line"/>
      <point x="37" y="0" type="line"/>
      <point x="138" y="297" type="line" smooth="yes"/>
      <point x="150" y="336"/>
      <point x="161" y="380"/>
      <point x="172" y="429" type="curve"/>
      <point x="174" y="429" type="line"/>
      <point x="178" y="376"/>
      <point x="217" y="108"/>
      <point x="218" y="105" type="curve" smooth="yes"/>
      <point x="235" y="33"/>
      <point x="255" y="0"/>
      <point x="310" y="0" type="curve" smooth="yes"/>
      <point x="305" y="0" type="line"/>
      <point x="305" y="10" type="line"/>
      <point x="301" y="10" type="line" smooth="yes"/>
      <point x="272" y="10"/>
      <point x="246" y="43"/>
      <point x="231" y="145" type="curve" smooth="yes"/>
      <point x="175" y="566" type="line" smooth="yes"/>
      <point x="172" y="593"/>
      <point x="167" y="617"/>
      <point x="162" y="638" type="curve"/>
      <point x="225" y="695" type="line"/>
      <point x="225" y="709" type="line"/>
      <point x="160" y="650" type="line"/>
      <point x="144" y="733"/>
      <point x="123" y="770"/>
      <point x="74" y="770" type="curve" smooth="yes"/>
      <point x="30" y="770"/>
      <point x="22" y="734"/>
      <point x="22" y="703" type="curve" smooth="yes"/>
      <point x="22" y="693"/>
      <point x="22" y="678"/>
      <point x="33" y="674" type="curve"/>
      <point x="29" y="723"/>
      <point x="31" y="759"/>
      <point x="72" y="760" type="curve" smooth="yes"/>
      <point x="94" y="761"/>
      <point x="122" y="751"/>
      <point x="143" y="638" type="curve"/>
      <point x="75" y="577" type="line"/>
      <point x="75" y="564" type="line"/>
      <point x="146" y="626" type="line"/>
      <point x="153" y="586"/>
      <point x="161" y="539"/>
      <point x="165" y="478" type="curve"/>
    </contour>
  </outline>
</glyph>
<glyph name="uni019E" format="2">
  <advance width="375"/>
  <unicode hex="019E"/>
  <anchor x="204" y="-240" name="bottom"/>
  <anchor x="204" y="536" name="top"/>
  <outline>
    <contour>
      <point x="216" y="-240" type="line"/>
      <point x="360" y="-240" type="line"/>
      <point x="360" y="-230" type="line"/>
      <point x="371" y="-230" type="line" smooth="yes"/>
      <point x="310" y="-230"/>
      <point x="303" y="-223"/>
      <point x="303" y="-155" type="curve" smooth="yes"/>
      <point x="303" y="367" type="line" smooth="yes"/>
      <point x="303" y="489"/>
      <point x="274" y="542"/>
      <point x="200" y="542" type="curve" smooth="yes"/>
      <point x="146" y="542"/>
      <point x="123" y="495"/>
      <point x="109" y="436" type="curve"/>
      <point x="107" y="436" type="line"/>
      <point x="107" y="536" type="line"/>
      <point x="23" y="536" type="line"/>
      <point x="23" y="526" type="line"/>
      <point x="13" y="526" type="line" smooth="yes"/>
      <point x="78" y="526"/>
      <point x="80" y="520"/>
      <point x="80" y="445" type="curve" smooth="yes"/>
      <point x="80" y="87" type="line" smooth="yes"/>
      <point x="80" y="17"/>
      <point x="74" y="10"/>
      <point x="16" y="10" type="curve" smooth="yes"/>
      <point x="21" y="10" type="line"/>
      <point x="21" y="0" type="line"/>
      <point x="166" y="0" type="line"/>
      <point x="166" y="10" type="line"/>
      <point x="169" y="10" type="line" smooth="yes"/>
      <point x="114" y="10"/>
      <point x="108" y="17"/>
      <point x="108" y="87" type="curve" smooth="yes"/>
      <point x="108" y="326" type="line" smooth="yes"/>
      <point x="108" y="506"/>
      <point x="175" y="527"/>
      <point x="200" y="527" type="curve" smooth="yes"/>
      <point x="254" y="527"/>
      <point x="275" y="469"/>
      <point x="275" y="363" type="curve" smooth="yes"/>
      <point x="275" y="-155" type="line" smooth="yes"/>
      <point x="275" y="-223"/>
      <point x="268" y="-230"/>
      <point x="206" y="-230" type="curve" smooth="yes"/>
      <point x="216" y="-230" type="line"/>
    </contour>
  </outline>
</glyph>
<glyph name="ohorn" format="2">
  <advance width="318"/>
  <unicode hex="01A1"/>
  <anchor x="159" y="0" name="bottom"/>
  <anchor x="159" y="536" name="top"/>
  <outline>
    <contour>
      <point x="165" y="-10" type="curve" smooth="yes"/>
      <point x="249" y="-10"/>
      <point x="293" y="69"/>
      <point x="293" y="267" type="curve" smooth="yes"/>
      <point x="293" y="339"/>
      <point x="286" y="400"/>
      <point x="273" y="444" type="curve"/>
      <point x="318" y="475"/>
      <point x="340" y="520"/>
      <point x="340" y="573" type="curve" smooth="yes"/>
      <point x="340" y="617"/>
      <point x="327" y="629"/>
      <point x="308" y="629" type="curve" smooth="yes"/>
      <point x="290" y="629"/>
      <point x="280" y="614"/>
      <point x="280" y="588" type="curve" smooth="yes"/>
      <point x="280" y="553"/>
      <point x="299" y="572"/>
      <point x="299" y="521" type="curve" smooth="yes"/>
      <point x="299" y="498"/>
      <point x="298" y="478"/>
      <point x="269" y="452" type="curve"/>
      <point x="250" y="511"/>
      <point x="217" y="542"/>
      <point x="165" y="542" type="curve" smooth="yes"/>
      <point x="72" y="542"/>
      <point x="37" y="449"/>
      <point x="37" y="267" type="curve" smooth="yes"/>
      <point x="37" y="74"/>
      <point x="81" y="-10"/>
    </contour>
    <contour>
      <point x="167" y="0" type="curve" smooth="yes"/>
      <point x="98" y="0"/>
      <point x="65" y="83"/>
      <point x="65" y="267" type="curve" smooth="yes"/>
      <point x="65" y="450"/>
      <point x="87" y="532"/>
      <point x="162" y="532" type="curve" smooth="yes"/>
      <point x="244" y="532"/>
      <point x="265" y="446"/>
      <point x="265" y="267" type="curve" smooth="yes"/>
      <point x="265" y="80"/>
      <point x="240" y="0"/>
    </contour>
  </outline>
</glyph>
<glyph name="uni01AA" format="2">
  <advance width="163"/>
  <unicode hex="01AA"/>
  <anchor x="81" y="-240" name="bottom"/>
  <anchor x="81" y="762" name="top"/>
  <outline>
    <contour>
      <point x="145" y="-240" type="curve" smooth="yes"/>
      <point x="157" y="-240"/>
      <point x="171" y="-236"/>
      <point x="184" y="-229" type="curve"/>
      <point x="184" y="-219" type="line"/>
      <point x="170" y="-226"/>
      <point x="160" y="-230"/>
      <point x="149" y="-230" type="curve" smooth="yes"/>
      <point x="111" y="-230"/>
      <point x="95" y="-206"/>
      <point x="95" y="-112" type="curve" smooth="yes"/>
      <point x="95" y="659" type="line" smooth="yes"/>
      <point x="95" y="725"/>
      <point x="68" y="762"/>
      <point x="35" y="762" type="curve" smooth="yes"/>
      <point x="-9" y="762"/>
      <point x="-34" y="719"/>
      <point x="-34" y="650" type="curve" smooth="yes"/>
      <point x="-34" y="582"/>
      <point x="-15" y="540"/>
      <point x="26" y="540" type="curve" smooth="yes"/>
      <point x="49" y="540"/>
      <point x="65" y="564"/>
      <point x="67" y="588" type="curve"/>
      <point x="67" y="-110" type="line" smooth="yes"/>
      <point x="67" y="-201"/>
      <point x="86" y="-240"/>
    </contour>
    <contour>
      <point x="25" y="550" type="curve" smooth="yes"/>
      <point x="-8" y="550"/>
      <point x="-24" y="588"/>
      <point x="-24" y="650" type="curve" smooth="yes"/>
      <point x="-24" y="713"/>
      <point x="-8" y="752"/>
      <point x="21" y="752" type="curve" smooth="yes"/>
      <point x="45" y="752"/>
      <point x="67" y="714"/>
      <point x="67" y="656" type="curve" smooth="yes"/>
      <point x="67" y="590"/>
      <point x="47" y="550"/>
    </contour>
  </outline>
</glyph>
<glyph name="uni01AC" format="2">
  <advance width="363"/>
  <unicode hex="01AC"/>
  <anchor x="181" y="0" name="bottom"/>
  <anchor x="181" y="714" name="top"/>
  <outline>
    <contour>
      <point x="100" y="0" type="line"/>
      <point x="266" y="0" type="line"/>
      <point x="266" y="10" type="line"/>
      <point x="254" y="10" type="line" smooth="yes"/>
      <point x="204" y="10"/>
      <point x="198" y="21"/>
      <point x="198" y="98" type="curve" smooth="yes"/>
      <point x="198" y="707" type="line"/>
      <point x="274" y="707" type="line" smooth="yes"/>
      <point x="330" y="707"/>
      <point x="332" y="689"/>
      <point x="332" y="644" type="curve" smooth="yes"/>
      <point x="334" y="563" type="line"/>
      <point x="344" y="563" type="line"/>
      <point x="341" y="714" type="line"/>
      <point x="95" y="714" type="line" smooth="yes"/>
      <point x="33" y="714"/>
      <point x="3" y="667"/>
      <point x="3" y="621" type="curve" smooth="yes"/>
      <point x="3" y="592"/>
      <point x="21" y="570"/>
      <point x="41" y="570" type="curve" smooth="yes"/>
      <point x="45" y="570"/>
      <point x="48" y="570"/>
      <point x="52" y="574" type="curve"/>
      <point x="40" y="583"/>
      <point x="31" y="595"/>
      <point x="31" y="628" type="curve" smooth="yes"/>
      <point x="31" y="675"/>
      <point x="49" y="707"/>
      <point x="98" y="707" type="curve" smooth="yes"/>
      <point x="170" y="707" type="line"/>
      <point x="170" y="98" type="line" smooth="yes"/>
      <point x="170" y="21"/>
      <point x="164" y="10"/>
      <point x="116" y="10" type="curve" smooth="yes"/>
      <point x="100" y="10" type="line"/>
    </contour>
  </outline>
</glyph>
<glyph name="uni023A" format="2">
  <advance width="402"/>
  <unicode hex="023A"/>
  <anchor x="205" y="-73" name="bottom"/>
  <anchor x="205" y="714" name="top"/>
  <anchor x="327" y="714" name="topright"/>
  <outline>
    <contour>
      <point x="139" y="-73" type="line"/>
      <point x="149" y="-73" type="line"/>
      <point x="290" y="760" type="line"/>
      <point x="280" y="760" type="line"/>
    </contour>
    <component base="A"/>
  </outline>
</glyph>
<glyph name="uni0246" format="2">
  <advance width="358"/>
  <unicode hex="0246"/>
  <anchor x="180" y="0" name="bottom"/>
  <anchor x="180" y="714" name="top"/>
  <anchor x="338" y="714" name="topright"/>
  <outline>
    <contour>
      <point x="127" y="-43" type="line"/>
      <point x="136" y="-43" type="line"/>
      <point x="291" y="760" type="line"/>
      <point x="282" y="760" type="line"/>
    </contour>
    <component base="E"/>
  </outline>
</glyph>
<glyph name="uni0247" format="2">
  <advance width="306"/>
  <unicode hex="0247"/>
  <anchor x="153" y="-249" name="bottom"/>
  <anchor x="153" y="714" name="top"/>
  <anchor x="286" y="536" name="topright"/>
  <outline>
    <contour>
      <point x="85" y="-249" type="line"/>
      <point x="95" y="-249" type="line"/>
      <point x="221" y="714" type="line"/>
      <point x="211" y="714" type="line"/>
    </contour>
    <component base="e"/>
  </outline>
</glyph>
<glyph name="uni0265" format="2">
  <advance width="365"/>
  <unicode hex="0265"/>
  <anchor x="170" y="-240" name="bottom"/>
  <anchor x="170" y="536" name="top"/>
  <outline>
    <contour>
      <point x="252" y="-224" type="line"/>
      <point x="341" y="-224" type="line"/>
      <point x="341" y="-214" type="line"/>
      <point x="331" y="-214" type="line" smooth="yes"/>
      <point x="287" y="-214"/>
      <point x="280" y="-202"/>
      <point x="280" y="-139" type="curve" smooth="yes"/>
      <point x="280" y="449" type="line" smooth="yes"/>
      <point x="280" y="519"/>
      <point x="288" y="526"/>
      <point x="341" y="526" type="curve" smooth="yes"/>
      <point x="339" y="526" type="line"/>
      <point x="339" y="536" type="line"/>
      <point x="198" y="536" type="line"/>
      <point x="198" y="526" type="line"/>
      <point x="194" y="526" type="line" smooth="yes"/>
      <point x="245" y="526"/>
      <point x="252" y="519"/>
      <point x="252" y="449" type="curve" smooth="yes"/>
      <point x="252" y="204" type="line" smooth="yes"/>
      <point x="252" y="62"/>
      <point x="229" y="9"/>
      <point x="169" y="9" type="curve" smooth="yes"/>
      <point x="101" y="9"/>
      <point x="83" y="68"/>
      <point x="83" y="169" type="curve" smooth="yes"/>
      <point x="83" y="536" type="line"/>
      <point x="3" y="536" type="line"/>
      <point x="3" y="526" type="line"/>
      <point x="5" y="526" type="line" smooth="yes"/>
      <point x="49" y="526"/>
      <point x="55" y="514"/>
      <point x="55" y="452" type="curve" smooth="yes"/>
      <point x="55" y="171" type="line" smooth="yes"/>
      <point x="55" y="59"/>
      <point x="97" y="-6"/>
      <point x="159" y="-6" type="curve" smooth="yes"/>
      <point x="209" y="-6"/>
      <point x="244" y="32"/>
      <point x="251" y="87" type="curve"/>
      <point x="253" y="87" type="line"/>
      <point x="252" y="30"/>
      <point x="252" y="41"/>
      <point x="252" y="32" type="curve" smooth="yes"/>
    </contour>
  </outline>
</glyph>
<glyph name="uni0267" format="2">
  <advance width="363"/>
  <unicode hex="0267"/>
  <anchor x="182" y="-243" name="bottom"/>
  <anchor x="182" y="763" name="top"/>
  <outline>
    <contour>
      <point x="223" y="-243" type="curve" smooth="yes"/>
      <point x="275" y="-243"/>
      <point x="293" y="-215"/>
      <point x="293" y="-90" type="curve" smooth="yes"/>
      <point x="293" y="365" type="line" smooth="yes"/>
      <point x="293" y="477"/>
      <point x="251" y="542"/>
      <point x="189" y="542" type="curve" smooth="yes"/>
      <point x="139" y="542"/>
      <point x="104" y="504"/>
      <point x="97" y="449" type="curve"/>
      <point x="95" y="449" type="line"/>
      <point x="96" y="506"/>
      <point x="96" y="495"/>
      <point x="96" y="504" type="curve" smooth="yes"/>
      <point x="96" y="598" type="line" smooth="yes"/>
      <point x="96" y="699"/>
      <point x="106" y="753"/>
      <point x="148" y="753" type="curve" smooth="yes"/>
      <point x="193" y="753"/>
      <point x="191" y="703"/>
      <point x="183" y="668" type="curve"/>
      <point x="199" y="667"/>
      <point x="208" y="684"/>
      <point x="208" y="703" type="curve" smooth="yes"/>
      <point x="208" y="744"/>
      <point x="181" y="763"/>
      <point x="146" y="763" type="curve" smooth="yes"/>
      <point x="101" y="763"/>
      <point x="68" y="718"/>
      <point x="68" y="586" type="curve" smooth="yes"/>
      <point x="68" y="87" type="line" smooth="yes"/>
      <point x="68" y="17"/>
      <point x="61" y="10"/>
      <point x="8" y="10" type="curve" smooth="yes"/>
      <point x="9" y="10" type="line"/>
      <point x="9" y="0" type="line"/>
      <point x="150" y="0" type="line"/>
      <point x="150" y="10" type="line"/>
      <point x="155" y="10" type="line" smooth="yes"/>
      <point x="103" y="10"/>
      <point x="96" y="17"/>
      <point x="96" y="87" type="curve" smooth="yes"/>
      <point x="96" y="332" type="line" smooth="yes"/>
      <point x="96" y="474"/>
      <point x="120" y="527"/>
      <point x="179" y="527" type="curve" smooth="yes"/>
      <point x="247" y="527"/>
      <point x="265" y="468"/>
      <point x="265" y="367" type="curve" smooth="yes"/>
      <point x="265" y="-101" type="line" smooth="yes"/>
      <point x="265" y="-199"/>
      <point x="266" y="-233"/>
      <point x="221" y="-233" type="curve" smooth="yes"/>
      <point x="180" y="-233"/>
      <point x="176" y="-198"/>
      <point x="185" y="-143" type="curve"/>
      <point x="166" y="-147"/>
      <point x="156" y="-158"/>
      <point x="156" y="-179" type="curve" smooth="yes"/>
      <point x="156" y="-221"/>
      <point x="182" y="-243"/>
    </contour>
  </outline>
</glyph>
<glyph name="uni026B" format="2">
  <advance width="194"/>
  <unicode hex="026B"/>
  <anchor x="98" y="0" name="bottom"/>
  <anchor x="98" y="760" name="top"/>
  <anchor x="193" y="760" name="topright"/>
  <anchor x="114" y="268" name="center"/>
  <outline>
    <contour>
      <point x="9" y="362" type="curve"/>
      <point x="19" y="362" type="line"/>
      <point x="22" y="369"/>
      <point x="18" y="417"/>
      <point x="66" y="417" type="curve" smooth="yes"/>
      <point x="114" y="417"/>
      <point x="100" y="355"/>
      <point x="153" y="355" type="curve" smooth="yes"/>
      <point x="208" y="355"/>
      <point x="208" y="405"/>
      <point x="213" y="425" type="curve"/>
      <point x="203" y="425" type="line"/>
      <point x="198" y="423"/>
      <point x="199" y="375"/>
      <point x="153" y="375" type="curve" smooth="yes"/>
      <point x="109" y="375"/>
      <point x="124" y="437"/>
      <point x="65" y="437" type="curve" smooth="yes"/>
      <point x="13" y="437"/>
      <point x="16" y="385"/>
    </contour>
    <component base="l" xOffset="29"/>
  </outline>
</glyph>
<glyph name="uni0273" format="2">
  <advance width="377"/>
  <unicode hex="0273"/>
  <anchor x="189" y="-240" name="bottom"/>
  <anchor x="189" y="536" name="top"/>
  <outline>
    <contour>
      <point x="360" y="-240" type="curve" smooth="yes"/>
      <point x="369" y="-240"/>
      <point x="385" y="-234"/>
      <point x="392" y="-226" type="curve"/>
      <point x="392" y="-214" type="line"/>
      <point x="380" y="-224"/>
      <point x="368" y="-230"/>
      <point x="360" y="-230" type="curve" smooth="yes"/>
      <point x="314" y="-230"/>
      <point x="303" y="-179"/>
      <point x="303" y="-59" type="curve" smooth="yes"/>
      <point x="303" y="367" type="line" smooth="yes"/>
      <point x="303" y="489"/>
      <point x="273" y="542"/>
      <point x="200" y="542" type="curve" smooth="yes"/>
      <point x="144" y="542"/>
      <point x="122" y="495"/>
      <point x="108" y="434" type="curve"/>
      <point x="106" y="434" type="line"/>
      <point x="106" y="536" type="line"/>
      <point x="23" y="536" type="line"/>
      <point x="23" y="526" type="line"/>
      <point x="13" y="526" type="line" smooth="yes"/>
      <point x="74" y="526"/>
      <point x="80" y="521"/>
      <point x="80" y="450" type="curve" smooth="yes"/>
      <point x="80" y="87" type="line" smooth="yes"/>
      <point x="80" y="17"/>
      <point x="72" y="10"/>
      <point x="19" y="10" type="curve" smooth="yes"/>
      <point x="21" y="10" type="line"/>
      <point x="21" y="0" type="line"/>
      <point x="166" y="0" type="line"/>
      <point x="166" y="10" type="line"/>
      <point x="166" y="10" type="line" smooth="yes"/>
      <point x="115" y="10"/>
      <point x="108" y="17"/>
      <point x="108" y="87" type="curve" smooth="yes"/>
      <point x="108" y="326" type="line" smooth="yes"/>
      <point x="108" y="506"/>
      <point x="175" y="527"/>
      <point x="200" y="527" type="curve" smooth="yes"/>
      <point x="254" y="527"/>
      <point x="275" y="469"/>
      <point x="275" y="357" type="curve" smooth="yes"/>
      <point x="275" y="-84" type="line" smooth="yes"/>
      <point x="275" y="-201"/>
      <point x="308" y="-240"/>
    </contour>
  </outline>
</glyph>
<glyph name="uni0282" format="2">
  <advance width="253"/>
  <unicode hex="0282"/>
  <anchor x="129" y="-197" name="bottom"/>
  <anchor x="129" y="536" name="top"/>
  <outline>
    <contour>
      <point x="72" y="-194" type="curve" smooth="yes"/>
      <point x="105" y="-194"/>
      <point x="124" y="-173"/>
      <point x="124" y="-139" type="curve" smooth="yes"/>
      <point x="124" y="-121"/>
      <point x="117" y="-109"/>
      <point x="108" y="-108" type="curve"/>
      <point x="111" y="-145"/>
      <point x="95" y="-165"/>
      <point x="70" y="-165" type="curve" smooth="yes"/>
      <point x="40" y="-165"/>
      <point x="33" y="-145"/>
      <point x="33" y="-108" type="curve" smooth="yes"/>
      <point x="33" y="49" type="line"/>
      <point x="47" y="17"/>
      <point x="77" y="-10"/>
      <point x="119" y="-10" type="curve" smooth="yes"/>
      <point x="190" y="-10"/>
      <point x="227" y="37"/>
      <point x="227" y="124" type="curve" smooth="yes"/>
      <point x="227" y="231"/>
      <point x="157" y="263"/>
      <point x="145" y="283" type="curve" smooth="yes"/>
      <point x="88" y="332"/>
      <point x="73" y="363"/>
      <point x="73" y="429" type="curve" smooth="yes"/>
      <point x="73" y="483"/>
      <point x="89" y="530"/>
      <point x="139" y="530" type="curve" smooth="yes"/>
      <point x="186" y="530"/>
      <point x="198" y="483"/>
      <point x="198" y="405" type="curve"/>
      <point x="210" y="405"/>
      <point x="224" y="422"/>
      <point x="224" y="452" type="curve" smooth="yes"/>
      <point x="224" y="514"/>
      <point x="177" y="540"/>
      <point x="135" y="540" type="curve" smooth="yes"/>
      <point x="77" y="540"/>
      <point x="45" y="493"/>
      <point x="45" y="415" type="curve" smooth="yes"/>
      <point x="45" y="332"/>
      <point x="96" y="300"/>
      <point x="123" y="265" type="curve" smooth="yes"/>
      <point x="184" y="210"/>
      <point x="199" y="183"/>
      <point x="199" y="120" type="curve" smooth="yes"/>
      <point x="199" y="29"/>
      <point x="168" y="0"/>
      <point x="119" y="0" type="curve" smooth="yes"/>
      <point x="75" y="0"/>
      <point x="49" y="44"/>
      <point x="49" y="140" type="curve"/>
      <point x="40" y="140"/>
      <point x="23" y="125"/>
      <point x="23" y="95" type="curve" smooth="yes"/>
      <point x="23" y="-109" type="line" smooth="yes"/>
      <point x="23" y="-174"/>
      <point x="41" y="-194"/>
    </contour>
  </outline>
</glyph>
<glyph name="uni0284" format="2">
  <advance width="149"/>
  <unicode hex="0284"/>
  <anchor x="74" y="-240" name="bottom"/>
  <anchor x="74" y="763" name="top"/>
  <outline>
    <contour>
      <point x="-11" y="-240" type="line"/>
      <point x="-4" y="-240" type="line" smooth="yes"/>
      <point x="54" y="-240"/>
      <point x="87" y="-163"/>
      <point x="87" y="16" type="curve" smooth="yes"/>
      <point x="87" y="250" type="line"/>
      <point x="144" y="250" type="line"/>
      <point x="144" y="260" type="line"/>
      <point x="87" y="260" type="line"/>
      <point x="87" y="591" type="line" smooth="yes"/>
      <point x="87" y="715"/>
      <point x="104" y="753"/>
      <point x="135" y="753" type="curve" smooth="yes"/>
      <point x="163" y="753"/>
      <point x="168" y="714"/>
      <point x="168" y="687" type="curve"/>
      <point x="180" y="687"/>
      <point x="185" y="701"/>
      <point x="185" y="712" type="curve" smooth="yes"/>
      <point x="185" y="742"/>
      <point x="159" y="763"/>
      <point x="131" y="763" type="curve" smooth="yes"/>
      <point x="66" y="763"/>
      <point x="59" y="690"/>
      <point x="59" y="580" type="curve" smooth="yes"/>
      <point x="59" y="260" type="line"/>
      <point x="1" y="260" type="line"/>
      <point x="1" y="250" type="line"/>
      <point x="59" y="250" type="line"/>
      <point x="59" y="11" type="line" smooth="yes"/>
      <point x="59" y="-167"/>
      <point x="31" y="-230"/>
      <point x="-11" y="-230" type="curve" smooth="yes"/>
      <point x="-11" y="-230" type="line"/>
    </contour>
  </outline>
</glyph>
<glyph name="qhook" format="2">
  <advance width="350"/>
  <unicode hex="02A0"/>
  <anchor x="176" y="-240" name="bottom"/>
  <anchor x="176" y="763" name="top"/>
  <outline>
    <contour>
      <point x="184" y="-240" type="line"/>
      <point x="336" y="-240" type="line"/>
      <point x="336" y="-230" type="line"/>
      <point x="342" y="-230" type="line" smooth="yes"/>
      <point x="287" y="-230"/>
      <point x="282" y="-223"/>
      <point x="282" y="-155" type="curve"/>
      <point x="282" y="610" type="line" smooth="yes"/>
      <point x="282" y="713"/>
      <point x="298" y="753"/>
      <point x="344" y="753" type="curve" smooth="yes"/>
      <point x="393" y="753"/>
      <point x="393" y="701"/>
      <point x="387" y="653" type="curve"/>
      <point x="405" y="653"/>
      <point x="413" y="673"/>
      <point x="413" y="694" type="curve" smooth="yes"/>
      <point x="413" y="720"/>
      <point x="402" y="763"/>
      <point x="348" y="763" type="curve" smooth="yes"/>
      <point x="279" y="763"/>
      <point x="252" y="712"/>
      <point x="252" y="594" type="curve" smooth="yes"/>
      <point x="252" y="549" type="line" smooth="yes"/>
      <point x="252" y="521"/>
      <point x="251" y="495"/>
      <point x="255" y="424" type="curve"/>
      <point x="253" y="424" type="line"/>
      <point x="237" y="513"/>
      <point x="209" y="543"/>
      <point x="156" y="543" type="curve" smooth="yes"/>
      <point x="97" y="543"/>
      <point x="38" y="488"/>
      <point x="38" y="268" type="curve" smooth="yes"/>
      <point x="38" y="51"/>
      <point x="86" y="-10"/>
      <point x="157" y="-10" type="curve" smooth="yes"/>
      <point x="198" y="-10"/>
      <point x="226" y="8"/>
      <point x="249" y="101" type="curve"/>
      <point x="251" y="101" type="line"/>
      <point x="254" y="36"/>
      <point x="254" y="32"/>
      <point x="254" y="-24" type="curve" smooth="yes"/>
      <point x="254" y="-155" type="line" smooth="yes"/>
      <point x="254" y="-223"/>
      <point x="248" y="-230"/>
      <point x="187" y="-230" type="curve" smooth="yes"/>
      <point x="184" y="-230" type="line"/>
    </contour>
    <contour>
      <point x="158" y="-3" type="curve" smooth="yes"/>
      <point x="104" y="-3"/>
      <point x="66" y="65"/>
      <point x="66" y="266" type="curve" smooth="yes"/>
      <point x="66" y="480"/>
      <point x="111" y="536"/>
      <point x="158" y="536" type="curve" smooth="yes"/>
      <point x="228" y="536"/>
      <point x="254" y="451"/>
      <point x="254" y="264" type="curve" smooth="yes"/>
      <point x="254" y="103"/>
      <point x="238" y="-3"/>
    </contour>
  </outline>
</glyph>
<glyph name="dzlig" format="2">
  <advance width="555"/>
  <unicode hex="02A3"/>
  <anchor x="278" y="0" name="bottom"/>
  <anchor x="278" y="760" name="top"/>
  <outline>
    <contour>
      <point x="156" y="-10" type="curve" smooth="yes"/>
      <point x="206" y="-10"/>
      <point x="231" y="22"/>
      <point x="250" y="107" type="curve"/>
      <point x="252" y="107" type="line"/>
      <point x="252" y="0" type="line"/>
      <point x="494" y="0" type="line"/>
      <point x="499" y="138" type="line"/>
      <point x="489" y="138" type="line"/>
      <point x="487" y="85" type="line" smooth="yes"/>
      <point x="485" y="29"/>
      <point x="478" y="15"/>
      <point x="426" y="15" type="curve" smooth="yes"/>
      <point x="311" y="15" type="line"/>
      <point x="495" y="507" type="line"/>
      <point x="495" y="536" type="line"/>
      <point x="280" y="536" type="line"/>
      <point x="280" y="760" type="line"/>
      <point x="202" y="760" type="line"/>
      <point x="202" y="750" type="line"/>
      <point x="193" y="750" type="line" smooth="yes"/>
      <point x="247" y="750"/>
      <point x="252" y="744"/>
      <point x="252" y="662" type="curve" smooth="yes"/>
      <point x="252" y="545" type="line" smooth="yes"/>
      <point x="252" y="505"/>
      <point x="252" y="505"/>
      <point x="254" y="429" type="curve"/>
      <point x="252" y="429" type="line"/>
      <point x="237" y="510"/>
      <point x="213" y="545"/>
      <point x="166" y="545" type="curve" smooth="yes"/>
      <point x="103" y="545"/>
      <point x="38" y="498"/>
      <point x="38" y="267" type="curve" smooth="yes"/>
      <point x="38" y="41"/>
      <point x="83" y="-10"/>
    </contour>
    <contour>
      <point x="158" y="-3" type="curve" smooth="yes"/>
      <point x="93" y="-2"/>
      <point x="66" y="58"/>
      <point x="66" y="266" type="curve" smooth="yes"/>
      <point x="66" y="488"/>
      <point x="116" y="538"/>
      <point x="169" y="538" type="curve" smooth="yes"/>
      <point x="229" y="538"/>
      <point x="253" y="445"/>
      <point x="253" y="265" type="curve" smooth="yes"/>
      <point x="253" y="79"/>
      <point x="218" y="-5"/>
    </contour>
    <contour>
      <point x="280" y="17" type="line"/>
      <point x="280" y="521" type="line"/>
      <point x="473" y="521" type="line"/>
    </contour>
  </outline>
</glyph>
<glyph name="dzligcurl" format="2">
  <advance width="554"/>
  <unicode hex="02A5"/>
  <anchor x="279" y="0" name="bottom"/>
  <anchor x="279" y="760" name="top"/>
  <outline>
    <contour>
      <point x="375" y="-55" type="line"/>
      <point x="378" y="-37"/>
      <point x="379" y="-15"/>
      <point x="381" y="0" type="curve"/>
      <point x="432" y="0" type="line" smooth="yes"/>
      <point x="489" y="0"/>
      <point x="532" y="50"/>
      <point x="532" y="119" type="curve" smooth="yes"/>
      <point x="532" y="173"/>
      <point x="511" y="205"/>
      <point x="477" y="205" type="curve" smooth="yes"/>
      <point x="426" y="205"/>
      <point x="399" y="157"/>
      <point x="373" y="15" type="curve"/>
      <point x="312" y="15" type="line"/>
      <point x="486" y="507" type="line"/>
      <point x="486" y="536" type="line"/>
      <point x="280" y="536" type="line"/>
      <point x="280" y="760" type="line"/>
      <point x="202" y="760" type="line"/>
      <point x="202" y="750" type="line"/>
      <point x="193" y="750" type="line" smooth="yes"/>
      <point x="247" y="750"/>
      <point x="252" y="744"/>
      <point x="252" y="662" type="curve" smooth="yes"/>
      <point x="252" y="545" type="line" smooth="yes"/>
      <point x="252" y="505"/>
      <point x="252" y="505"/>
      <point x="254" y="429" type="curve"/>
      <point x="252" y="429" type="line"/>
      <point x="237" y="510"/>
      <point x="213" y="545"/>
      <point x="166" y="545" type="curve" smooth="yes"/>
      <point x="103" y="545"/>
      <point x="38" y="498"/>
      <point x="38" y="267" type="curve" smooth="yes"/>
      <point x="38" y="41"/>
      <point x="83" y="-10"/>
      <point x="156" y="-10" type="curve" smooth="yes"/>
      <point x="206" y="-10"/>
      <point x="231" y="22"/>
      <point x="250" y="107" type="curve"/>
      <point x="252" y="107" type="line"/>
      <point x="252" y="0" type="line"/>
      <point x="370" y="0" type="line"/>
      <point x="368" y="-14"/>
      <point x="367" y="-35"/>
      <point x="364" y="-53" type="curve"/>
    </contour>
    <contour>
      <point x="158" y="-3" type="curve" smooth="yes"/>
      <point x="93" y="-2"/>
      <point x="66" y="58"/>
      <point x="66" y="266" type="curve" smooth="yes"/>
      <point x="66" y="488"/>
      <point x="116" y="538"/>
      <point x="169" y="538" type="curve" smooth="yes"/>
      <point x="229" y="538"/>
      <point x="253" y="445"/>
      <point x="253" y="265" type="curve" smooth="yes"/>
      <point x="253" y="79"/>
      <point x="218" y="-5"/>
    </contour>
    <contour>
      <point x="384" y="15" type="line"/>
      <point x="400" y="129"/>
      <point x="429" y="195"/>
      <point x="477" y="195" type="curve" smooth="yes"/>
      <point x="505" y="195"/>
      <point x="522" y="167"/>
      <point x="522" y="119" type="curve" smooth="yes"/>
      <point x="522" y="58"/>
      <point x="483" y="15"/>
      <point x="436" y="15" type="curve" smooth="yes"/>
    </contour>
    <contour>
      <point x="280" y="15" type="line"/>
      <point x="280" y="521" type="line"/>
      <point x="464" y="521" type="line"/>
    </contour>
  </outline>
</glyph>
<glyph name="tcligcurl" format="2">
  <advance width="409"/>
  <unicode hex="02A8"/>
  <anchor x="205" y="0" name="bottom"/>
  <anchor x="205" y="657" name="top"/>
  <outline>
    <contour>
      <point x="138" y="-10" type="curve" smooth="yes"/>
      <point x="160" y="-10"/>
      <point x="165" y="-6"/>
      <point x="203" y="54" type="curve"/>
      <point x="219" y="15"/>
      <point x="248" y="-10"/>
      <point x="289" y="-10" type="curve" smooth="yes"/>
      <point x="366" y="-10"/>
      <point x="402" y="42"/>
      <point x="402" y="124" type="curve" smooth="yes"/>
      <point x="402" y="192"/>
      <point x="375" y="232"/>
      <point x="334" y="232" type="curve" smooth="yes"/>
      <point x="280" y="232"/>
      <point x="249" y="176"/>
      <point x="211" y="91" type="curve"/>
      <point x="202" y="137"/>
      <point x="200" y="196"/>
      <point x="200" y="264" type="curve" smooth="yes"/>
      <point x="200" y="485"/>
      <point x="237" y="532"/>
      <point x="300" y="532" type="curve" smooth="yes"/>
      <point x="350" y="532"/>
      <point x="362" y="505"/>
      <point x="362" y="406" type="curve"/>
      <point x="372" y="405"/>
      <point x="387" y="407"/>
      <point x="387" y="446" type="curve" smooth="yes"/>
      <point x="387" y="497"/>
      <point x="359" y="542"/>
      <point x="290" y="542" type="curve" smooth="yes"/>
      <point x="218" y="542"/>
      <point x="172" y="480"/>
      <point x="172" y="268" type="curve" smooth="yes"/>
      <point x="172" y="184"/>
      <point x="178" y="116"/>
      <point x="198" y="66" type="curve"/>
      <point x="180" y="35"/>
      <point x="173" y="0"/>
      <point x="139" y="0" type="curve" smooth="yes"/>
      <point x="108" y="0"/>
      <point x="86" y="23"/>
      <point x="86" y="120" type="curve" smooth="yes"/>
      <point x="86" y="526" type="line"/>
      <point x="168" y="526" type="line"/>
      <point x="168" y="536" type="line"/>
      <point x="86" y="536" type="line"/>
      <point x="86" y="657" type="line"/>
      <point x="76" y="657" type="line"/>
      <point x="75" y="625"/>
      <point x="77" y="588"/>
      <point x="61" y="563" type="curve"/>
      <point x="55" y="550"/>
      <point x="44" y="539"/>
      <point x="10" y="536" type="curve"/>
      <point x="10" y="526" type="line"/>
      <point x="58" y="526" type="line"/>
      <point x="58" y="141" type="line" smooth="yes"/>
      <point x="58" y="28"/>
      <point x="82" y="-10"/>
    </contour>
    <contour>
      <point x="296" y="0" type="curve" smooth="yes"/>
      <point x="252" y="1"/>
      <point x="228" y="29"/>
      <point x="215" y="76" type="curve"/>
      <point x="268" y="195"/>
      <point x="298" y="222"/>
      <point x="334" y="222" type="curve" smooth="yes"/>
      <point x="369" y="222"/>
      <point x="392" y="186"/>
      <point x="392" y="122" type="curve" smooth="yes"/>
      <point x="392" y="47"/>
      <point x="361" y="-1"/>
    </contour>
  </outline>
</glyph>
<glyph name="uni02BF" format="2">
  <advance width="137"/>
  <unicode hex="02BF"/>
  <outline>
    <contour>
      <point x="107" y="554" type="curve"/>
      <point x="107" y="564" type="line"/>
      <point x="86" y="564"/>
      <point x="42" y="585"/>
      <point x="42" y="663" type="curve" smooth="yes"/>
      <point x="42" y="742"/>
      <point x="86" y="766"/>
      <point x="107" y="766" type="curve"/>
      <point x="107" y="776" type="line"/>
      <point x="75" y="776"/>
      <point x="30" y="738"/>
      <point x="30" y="663" type="curve" smooth="yes"/>
      <point x="30" y="590"/>
      <point x="75" y="554"/>
    </contour>
  </outline>
</glyph>
<glyph name="rhotichookmod" format="2">
  <advance width="135"/>
  <unicode hex="02DE"/>
  <outline>
    <contour>
      <point x="94" y="206" type="curve" smooth="yes"/>
      <point x="130" y="206"/>
      <point x="135" y="229"/>
      <point x="135" y="251" type="curve" smooth="yes"/>
      <point x="135" y="257"/>
      <point x="132" y="274"/>
      <point x="122" y="275" type="curve"/>
      <point x="126" y="252"/>
      <point x="117" y="235"/>
      <point x="93" y="235" type="curve" smooth="yes"/>
      <point x="85" y="235"/>
      <point x="55" y="240"/>
      <point x="36" y="322" type="curve" smooth="yes"/>
      <point x="26" y="366" type="line"/>
      <point x="-92" y="325" type="line"/>
      <point x="-91" y="313" type="line"/>
      <point x="19" y="353" type="line"/>
      <point x="24" y="332" type="line" smooth="yes"/>
      <point x="49" y="234"/>
      <point x="62" y="206"/>
    </contour>
  </outline>
</glyph>
<glyph name="uni02EF" format="2">
  <advance width="246"/>
  <unicode hex="02EF"/>
  <outline>
    <contour>
      <point x="105" y="-240" type="curve"/>
      <point x="139" y="-240" type="line"/>
      <point x="164" y="-144"/>
      <point x="186" y="-76"/>
      <point x="206" y="-31" type="curve"/>
      <point x="206" y="-28" type="line"/>
      <point x="192" y="-28" type="line"/>
      <point x="155" y="-103"/>
      <point x="146" y="-130"/>
      <point x="122" y="-197" type="curve"/>
      <point x="98" y="-130"/>
      <point x="91" y="-103"/>
      <point x="54" y="-28" type="curve"/>
      <point x="40" y="-28" type="line"/>
      <point x="40" y="-31" type="line"/>
      <point x="74" y="-112"/>
      <point x="93" y="-179"/>
    </contour>
  </outline>
</glyph>
<glyph name="uni02F0" format="2">
  <advance width="246"/>
  <unicode hex="02F0"/>
  <outline>
    <contour>
      <point x="40" y="-240" type="line"/>
      <point x="54" y="-240" type="line"/>
      <point x="91" y="-165"/>
      <point x="99" y="-138"/>
      <point x="123" y="-71" type="curve"/>
      <point x="147" y="-138"/>
      <point x="155" y="-165"/>
      <point x="192" y="-240" type="curve"/>
      <point x="206" y="-240" type="line"/>
      <point x="206" y="-237" type="line"/>
      <point x="186" y="-190"/>
      <point x="165" y="-124"/>
      <point x="139" y="-28" type="curve"/>
      <point x="106" y="-28" type="line"/>
      <point x="94" y="-89"/>
      <point x="74" y="-158"/>
      <point x="40" y="-237" type="curve"/>
    </contour>
  </outline>
</glyph>
<glyph name="dblarchinvertedbelowcomb" format="2">
  <unicode hex="032B"/>
  <anchor x="-2" y="0" name="_bottom"/>
  <anchor x="-2" y="-183" name="bottom"/>
  <outline>
    <contour>
      <point x="-49" y="-183" type="curve" smooth="yes"/>
      <point x="-20" y="-183"/>
      <point x="-5" y="-159"/>
      <point x="0" y="-112" type="curve"/>
      <point x="5" y="-159"/>
      <point x="20" y="-183"/>
      <point x="51" y="-183" type="curve" smooth="yes"/>
      <point x="81" y="-183"/>
      <point x="96" y="-146"/>
      <point x="95" y="-65" type="curve"/>
      <point x="85" y="-65" type="line"/>
      <point x="86" y="-134"/>
      <point x="76" y="-168"/>
      <point x="51" y="-168" type="curve" smooth="yes"/>
      <point x="20" y="-168"/>
      <point x="5" y="-131"/>
      <point x="3" y="-65" type="curve"/>
      <point x="-5" y="-65" type="line"/>
      <point x="-5" y="-131"/>
      <point x="-21" y="-168"/>
      <point x="-49" y="-168" type="curve" smooth="yes"/>
      <point x="-75" y="-168"/>
      <point x="-88" y="-134"/>
      <point x="-87" y="-65" type="curve"/>
      <point x="-97" y="-65" type="line"/>
      <point x="-99" y="-146"/>
      <point x="-83" y="-183"/>
    </contour>
  </outline>
</glyph>
<glyph name="strokeshortoverlaycomb" format="2">
  <unicode hex="0335"/>
  <anchor x="-3" y="264" name="_center"/>
  <outline>
    <contour>
      <point x="-98" y="254" type="line"/>
      <point x="93" y="254" type="line"/>
      <point x="93" y="274" type="line"/>
      <point x="-98" y="274" type="line"/>
    </contour>
  </outline>
</glyph>
<glyph name="slashshortoverlaycomb" format="2">
  <unicode hex="0337"/>
  <anchor x="9" y="272" name="_center"/>
  <outline>
    <contour>
      <point x="-72" y="180" type="line"/>
      <point x="92" y="339" type="line"/>
      <point x="80" y="354" type="line"/>
      <point x="-84" y="195" type="line"/>
    </contour>
  </outline>
</glyph>
<glyph name="squarebelowcomb" format="2">
  <unicode hex="033B"/>
  <anchor x="2" y="0" name="_bottom"/>
  <anchor x="2" y="-230" name="bottom"/>
  <outline>
    <contour>
      <point x="-110" y="-230" type="line"/>
      <point x="114" y="-230" type="line"/>
      <point x="114" y="-46" type="line"/>
      <point x="-110" y="-46" type="line"/>
    </contour>
    <contour>
      <point x="-90" y="-210" type="line"/>
      <point x="-90" y="-66" type="line"/>
      <point x="94" y="-66" type="line"/>
      <point x="94" y="-210" type="line"/>
    </contour>
  </outline>
</glyph>
<glyph name="doublemacroncomb" format="2">
  <unicode hex="035E"/>
  <anchor x="-2" y="536" name="_top"/>
  <anchor x="-2" y="610" name="top"/>
  <outline>
    <contour>
      <point x="-177" y="584" type="line"/>
      <point x="175" y="584" type="line"/>
      <point x="175" y="604" type="line"/>
      <point x="-177" y="604" type="line"/>
    </contour>
  </outline>
</glyph>
<glyph name="Pamphyliandigamma" format="2">
  <advance width="451"/>
  <unicode hex="0376"/>
  <anchor x="223" y="0" name="bottom"/>
  <anchor x="223" y="714" name="top"/>
  <outline>
    <contour>
      <point x="76" y="0" type="line"/>
      <point x="116" y="0" type="line"/>
      <point x="324" y="696" type="line"/>
      <point x="324" y="98" type="line" smooth="yes"/>
      <point x="324" y="21"/>
      <point x="318" y="10"/>
      <point x="268" y="10" type="curve" smooth="yes"/>
      <point x="250" y="10" type="line"/>
      <point x="250" y="0" type="line"/>
      <point x="418" y="0" type="line"/>
      <point x="418" y="10" type="line"/>
      <point x="420" y="10" type="line" smooth="yes"/>
      <point x="370" y="10"/>
      <point x="364" y="21"/>
      <point x="364" y="98" type="curve" smooth="yes"/>
      <point x="364" y="616" type="line" smooth="yes"/>
      <point x="364" y="693"/>
      <point x="370" y="704"/>
      <point x="420" y="704" type="curve" smooth="yes"/>
      <point x="416" y="704" type="line"/>
      <point x="416" y="714" type="line"/>
      <point x="328" y="714" type="line"/>
      <point x="116" y="7" type="line"/>
      <point x="116" y="616" type="line" smooth="yes"/>
      <point x="116" y="693"/>
      <point x="122" y="704"/>
      <point x="172" y="704" type="curve" smooth="yes"/>
      <point x="186" y="704" type="line"/>
      <point x="186" y="714" type="line"/>
      <point x="20" y="714" type="line"/>
      <point x="20" y="704" type="line"/>
      <point x="20" y="704" type="line" smooth="yes"/>
      <point x="70" y="704"/>
      <point x="76" y="693"/>
      <point x="76" y="616" type="curve" smooth="yes"/>
    </contour>
  </outline>
</glyph>
<glyph name="dieresistonos" format="2">
  <advance width="344"/>
  <unicode hex="0385"/>
  <anchor x="178" y="536" name="_top"/>
  <outline>
    <contour>
      <point x="173" y="668" type="line"/>
      <point x="177" y="668" type="line"/>
      <point x="189" y="712"/>
      <point x="204" y="764"/>
      <point x="218" y="819" type="curve"/>
      <point x="218" y="828" type="line"/>
      <point x="188" y="828" type="line"/>
      <point x="189" y="787"/>
      <point x="178" y="719"/>
      <point x="173" y="680" type="curve"/>
    </contour>
    <contour>
      <point x="118" y="637" type="curve" smooth="yes"/>
      <point x="133" y="637"/>
      <point x="145" y="657"/>
      <point x="145" y="670" type="curve" smooth="yes"/>
      <point x="145" y="686"/>
      <point x="133" y="702"/>
      <point x="118" y="702" type="curve" smooth="yes"/>
      <point x="103" y="702"/>
      <point x="92" y="686"/>
      <point x="92" y="670" type="curve" smooth="yes"/>
      <point x="92" y="657"/>
      <point x="103" y="637"/>
    </contour>
    <contour>
      <point x="233" y="637" type="curve" smooth="yes"/>
      <point x="251" y="637"/>
      <point x="263" y="657"/>
      <point x="263" y="670" type="curve" smooth="yes"/>
      <point x="263" y="686"/>
      <point x="251" y="702"/>
      <point x="233" y="702" type="curve" smooth="yes"/>
      <point x="219" y="702"/>
      <point x="208" y="686"/>
      <point x="208" y="670" type="curve" smooth="yes"/>
      <point x="208" y="657"/>
      <point x="219" y="637"/>
    </contour>
  </outline>
</glyph>
<glyph name="nu" format="2">
  <advance width="346"/>
  <unicode hex="03BD"/>
  <anchor x="173" y="0" name="bottom"/>
  <anchor x="173" y="536" name="top"/>
  <outline>
    <contour>
      <point x="146" y="0" type="curve"/>
      <point x="165" y="0" type="line"/>
      <point x="182" y="42"/>
      <point x="314" y="255"/>
      <point x="314" y="447" type="curve" smooth="yes"/>
      <point x="314" y="489"/>
      <point x="313" y="546"/>
      <point x="274" y="546" type="curve" smooth="yes"/>
      <point x="258" y="546"/>
      <point x="250" y="536"/>
      <point x="255" y="524" type="curve"/>
      <point x="288" y="527"/>
      <point x="294" y="488"/>
      <point x="294" y="456" type="curve" smooth="yes"/>
      <point x="294" y="289"/>
      <point x="222" y="110"/>
      <point x="171" y="27" type="curve"/>
      <point x="93" y="481"/>
      <point x="87" y="536"/>
      <point x="49" y="536" type="curve" smooth="yes"/>
      <point x="34" y="536"/>
      <point x="28" y="518"/>
      <point x="15" y="499" type="curve"/>
      <point x="23" y="492" type="line"/>
      <point x="38" y="511"/>
      <point x="42" y="514"/>
      <point x="46" y="514" type="curve" smooth="yes"/>
      <point x="82" y="514"/>
      <point x="87" y="355"/>
    </contour>
  </outline>
</glyph>
<glyph name="rho" format="2">
  <advance width="347"/>
  <unicode hex="03C1"/>
  <anchor x="174" y="-240" name="bottom"/>
  <anchor x="174" y="536" name="top"/>
  <outline>
    <contour>
      <point x="56" y="-240" type="line"/>
      <point x="84" y="-240" type="line"/>
      <point x="84" y="-49" type="line" smooth="yes"/>
      <point x="84" y="-13"/>
      <point x="84" y="38"/>
      <point x="83" y="83" type="curve"/>
      <point x="106" y="30"/>
      <point x="126" y="-10"/>
      <point x="180" y="-10" type="curve" smooth="yes"/>
      <point x="256" y="-10"/>
      <point x="312" y="50"/>
      <point x="312" y="255" type="curve" smooth="yes"/>
      <point x="312" y="447"/>
      <point x="255" y="542"/>
      <point x="174" y="542" type="curve" smooth="yes"/>
      <point x="81" y="542"/>
      <point x="56" y="463"/>
      <point x="56" y="281" type="curve" smooth="yes"/>
    </contour>
    <contour>
      <point x="183" y="0" type="curve" smooth="yes"/>
      <point x="151" y="0"/>
      <point x="125" y="18"/>
      <point x="84" y="102" type="curve"/>
      <point x="84" y="293" type="line" smooth="yes"/>
      <point x="84" y="450"/>
      <point x="103" y="532"/>
      <point x="175" y="532" type="curve" smooth="yes"/>
      <point x="243" y="532"/>
      <point x="284" y="435"/>
      <point x="284" y="253" type="curve" smooth="yes"/>
      <point x="284" y="54"/>
      <point x="240" y="0"/>
    </contour>
  </outline>
</glyph>
<glyph name="upsilon" format="2">
  <advance width="339"/>
  <unicode hex="03C5"/>
  <anchor x="170" y="0" name="bottom"/>
  <anchor x="170" y="536" name="top"/>
  <outline>
    <contour>
      <point x="185" y="-10" type="curve" smooth="yes"/>
      <point x="272" y="-10"/>
      <point x="307" y="66"/>
      <point x="307" y="326" type="curve" smooth="yes"/>
      <point x="307" y="359"/>
      <point x="305" y="544"/>
      <point x="238" y="544" type="curve" smooth="yes"/>
      <point x="234" y="544"/>
      <point x="226" y="540"/>
      <point x="228" y="534" type="curve"/>
      <point x="266" y="512"/>
      <point x="291" y="415"/>
      <point x="291" y="310" type="curve" smooth="yes"/>
      <point x="291" y="67"/>
      <point x="264" y="5"/>
      <point x="189" y="5" type="curve" smooth="yes"/>
      <point x="148" y="5"/>
      <point x="98" y="43"/>
      <point x="98" y="168" type="curve" smooth="yes"/>
      <point x="98" y="536" type="line"/>
      <point x="2" y="536" type="line"/>
      <point x="2" y="526" type="line"/>
      <point x="-3" y="526" type="line" smooth="yes"/>
      <point x="64" y="526"/>
      <point x="70" y="528"/>
      <point x="70" y="450" type="curve" smooth="yes"/>
      <point x="70" y="182" type="line" smooth="yes"/>
      <point x="70" y="51"/>
      <point x="119" y="-10"/>
    </contour>
  </outline>
</glyph>
<glyph name="omega" format="2">
  <advance width="446"/>
  <unicode hex="03C9"/>
  <anchor x="223" y="0" name="bottom"/>
  <anchor x="223" y="536" name="top"/>
  <outline>
    <contour>
      <point x="136" y="-10" type="curve" smooth="yes"/>
      <point x="188" y="-10"/>
      <point x="217" y="57"/>
      <point x="221" y="127" type="curve"/>
      <point x="231" y="32"/>
      <point x="261" y="-10"/>
      <point x="303" y="-10" type="curve" smooth="yes"/>
      <point x="358" y="-10"/>
      <point x="408" y="71"/>
      <point x="408" y="240" type="curve" smooth="yes"/>
      <point x="408" y="374"/>
      <point x="378" y="470"/>
      <point x="342" y="534" type="curve"/>
      <point x="333" y="527" type="line"/>
      <point x="372" y="458"/>
      <point x="380" y="344"/>
      <point x="380" y="239" type="curve" smooth="yes"/>
      <point x="380" y="67"/>
      <point x="344" y="0"/>
      <point x="304" y="0" type="curve" smooth="yes"/>
      <point x="247" y="0"/>
      <point x="225" y="91"/>
      <point x="232" y="183" type="curve"/>
      <point x="237" y="210"/>
      <point x="240" y="277"/>
      <point x="240" y="294" type="curve" smooth="yes"/>
      <point x="240" y="341"/>
      <point x="237" y="368"/>
      <point x="223" y="368" type="curve" smooth="yes"/>
      <point x="207" y="368"/>
      <point x="204" y="345"/>
      <point x="204" y="294" type="curve" smooth="yes"/>
      <point x="204" y="277"/>
      <point x="209" y="208"/>
      <point x="214" y="183" type="curve"/>
      <point x="219" y="89"/>
      <point x="188" y="0"/>
      <point x="136" y="0" type="curve" smooth="yes"/>
      <point x="96" y="0"/>
      <point x="65" y="67"/>
      <point x="65" y="239" type="curve" smooth="yes"/>
      <point x="65" y="346"/>
      <point x="73" y="458"/>
      <point x="111" y="527" type="curve"/>
      <point x="103" y="534" type="line"/>
      <point x="66" y="470"/>
      <point x="37" y="374"/>
      <point x="37" y="240" type="curve" smooth="yes"/>
      <point x="37" y="63"/>
      <point x="85" y="-10"/>
    </contour>
  </outline>
</glyph>
<glyph name="uni03DA" format="2">
  <advance width="337"/>
  <unicode hex="03DA"/>
  <anchor x="168" y="0" name="bottom"/>
  <anchor x="168" y="714" name="top"/>
  <outline>
    <contour>
      <point x="125" y="0" type="line"/>
      <point x="275" y="0" type="line"/>
      <point x="275" y="10" type="line"/>
      <point x="288" y="10" type="line" smooth="yes"/>
      <point x="228" y="10"/>
      <point x="220" y="21"/>
      <point x="220" y="98" type="curve" smooth="yes"/>
      <point x="220" y="132" type="line"/>
      <point x="208" y="132" type="line" smooth="yes"/>
      <point x="110" y="132"/>
      <point x="63" y="280"/>
      <point x="63" y="420" type="curve" smooth="yes"/>
      <point x="63" y="561"/>
      <point x="106" y="714"/>
      <point x="226" y="714" type="curve" smooth="yes"/>
      <point x="270" y="714"/>
      <point x="304" y="665"/>
      <point x="304" y="566" type="curve"/>
      <point x="316" y="566"/>
      <point x="328" y="575"/>
      <point x="328" y="612" type="curve" smooth="yes"/>
      <point x="328" y="680"/>
      <point x="271" y="724"/>
      <point x="224" y="724" type="curve" smooth="yes"/>
      <point x="97" y="724"/>
      <point x="35" y="566"/>
      <point x="35" y="420" type="curve" smooth="yes"/>
      <point x="35" y="266"/>
      <point x="103" y="131"/>
      <point x="192" y="123" type="curve"/>
      <point x="192" y="111" type="line" smooth="yes"/>
      <point x="192" y="21"/>
      <point x="186" y="10"/>
      <point x="126" y="10" type="curve" smooth="yes"/>
      <point x="125" y="10" type="line"/>
    </contour>
  </outline>
</glyph>
<glyph name="uni03E0" format="2">
  <advance width="369"/>
  <unicode hex="03E0"/>
  <anchor x="185" y="0" name="bottom"/>
  <anchor x="185" y="714" name="top"/>
  <outline>
    <contour>
      <point x="151" y="-10" type="line"/>
      <point x="273" y="-10"/>
      <point x="332" y="149"/>
      <point x="332" y="367" type="curve" smooth="yes"/>
      <point x="332" y="561"/>
      <point x="289" y="724"/>
      <point x="141" y="724" type="curve" smooth="yes"/>
      <point x="89" y="724"/>
      <point x="25" y="680"/>
      <point x="25" y="606" type="curve" smooth="yes"/>
      <point x="25" y="575"/>
      <point x="40" y="557"/>
      <point x="54" y="557" type="curve"/>
      <point x="54" y="650"/>
      <point x="67" y="715"/>
      <point x="144" y="715" type="curve" smooth="yes"/>
      <point x="209" y="715"/>
      <point x="246" y="680"/>
      <point x="270" y="620" type="curve"/>
      <point x="75" y="439" type="line"/>
      <point x="82" y="431" type="line"/>
      <point x="275" y="611" type="line"/>
      <point x="286" y="581"/>
      <point x="295" y="544"/>
      <point x="299" y="497" type="curve"/>
      <point x="138" y="343" type="line"/>
      <point x="145" y="336" type="line"/>
      <point x="299" y="485" type="line"/>
      <point x="304" y="448"/>
      <point x="304" y="410"/>
      <point x="304" y="370" type="curve" smooth="yes"/>
      <point x="304" y="200"/>
      <point x="288" y="0"/>
      <point x="151" y="0" type="curve"/>
    </contour>
  </outline>
</glyph>
<glyph name="afii10058" format="2">
  <advance width="502"/>
  <unicode hex="0409"/>
  <anchor x="251" y="0" name="bottom"/>
  <anchor x="251" y="714" name="top"/>
  <outline>
    <contour>
      <point x="41" y="-7" type="curve" smooth="yes"/>
      <point x="61" y="-7"/>
      <point x="93" y="-5"/>
      <point x="115" y="71" type="curve" smooth="yes"/>
      <point x="127" y="105"/>
      <point x="181" y="328"/>
      <point x="181" y="707" type="curve"/>
      <point x="265" y="707" type="line"/>
      <point x="265" y="98" type="line" smooth="yes"/>
      <point x="265" y="22"/>
      <point x="261" y="10"/>
      <point x="201" y="10" type="curve" smooth="yes"/>
      <point x="196" y="10" type="line"/>
      <point x="196" y="0" type="line"/>
      <point x="321" y="0" type="line" smooth="yes"/>
      <point x="433" y="0"/>
      <point x="473" y="66"/>
      <point x="473" y="194" type="curve" smooth="yes"/>
      <point x="473" y="333"/>
      <point x="425" y="385"/>
      <point x="292" y="385" type="curve" smooth="yes"/>
      <point x="293" y="385" type="line"/>
      <point x="293" y="617" type="line" smooth="yes"/>
      <point x="293" y="695"/>
      <point x="297" y="704"/>
      <point x="363" y="704" type="curve" smooth="yes"/>
      <point x="339" y="704" type="line"/>
      <point x="339" y="714" type="line"/>
      <point x="86" y="714" type="line"/>
      <point x="86" y="704" type="line"/>
      <point x="103" y="704" type="line" smooth="yes"/>
      <point x="155" y="704"/>
      <point x="170" y="691"/>
      <point x="170" y="646" type="curve" smooth="yes"/>
      <point x="170" y="569"/>
      <point x="154" y="323"/>
      <point x="122" y="165" type="curve" smooth="yes"/>
      <point x="90" y="8"/>
      <point x="46" y="23"/>
      <point x="43" y="23" type="curve" smooth="yes"/>
      <point x="27" y="23"/>
      <point x="13" y="35"/>
      <point x="15" y="61" type="curve"/>
      <point x="6" y="60"/>
      <point x="0" y="48"/>
      <point x="0" y="33" type="curve" smooth="yes"/>
      <point x="0" y="6"/>
      <point x="18" y="-7"/>
    </contour>
    <contour>
      <point x="293" y="10" type="line"/>
      <point x="293" y="375" type="line"/>
      <point x="295" y="375" type="line" smooth="yes"/>
      <point x="411" y="375"/>
      <point x="445" y="334"/>
      <point x="445" y="194" type="curve" smooth="yes"/>
      <point x="445" y="85"/>
      <point x="426" y="10"/>
      <point x="327" y="10" type="curve" smooth="yes"/>
    </contour>
  </outline>
</glyph>
<glyph name="afii10021" format="2">
  <advance width="397"/>
  <unicode hex="0414"/>
  <anchor x="198" y="0" name="bottom"/>
  <anchor x="198" y="714" name="top"/>
  <outline>
    <contour>
      <point x="12" y="-210" type="line"/>
      <point x="22" y="-210" type="line"/>
      <point x="22" y="11"/>
      <point x="31" y="0"/>
      <point x="196" y="0" type="curve" smooth="yes"/>
      <point x="188" y="0" type="line" smooth="yes"/>
      <point x="352" y="0"/>
      <point x="366" y="16"/>
      <point x="366" y="-210" type="curve"/>
      <point x="376" y="-210" type="line"/>
      <point x="376" y="7" type="line"/>
      <point x="352" y="7" type="line" smooth="yes"/>
      <point x="315" y="7"/>
      <point x="313" y="18"/>
      <point x="313" y="118" type="curve" smooth="yes"/>
      <point x="313" y="628" type="line" smooth="yes"/>
      <point x="313" y="693"/>
      <point x="323" y="704"/>
      <point x="361" y="704" type="curve" smooth="yes"/>
      <point x="355" y="704" type="line"/>
      <point x="355" y="714" type="line"/>
      <point x="103" y="714" type="line"/>
      <point x="103" y="704" type="line"/>
      <point x="111" y="704" type="line" smooth="yes"/>
      <point x="150" y="704"/>
      <point x="179" y="703"/>
      <point x="179" y="656" type="curve" smooth="yes"/>
      <point x="179" y="455"/>
      <point x="120" y="164"/>
      <point x="79" y="15" type="curve"/>
      <point x="12" y="15" type="line"/>
    </contour>
    <contour>
      <point x="89" y="15" type="line"/>
      <point x="153" y="209"/>
      <point x="192" y="474"/>
      <point x="191" y="707" type="curve"/>
      <point x="285" y="707" type="line"/>
      <point x="285" y="15" type="line"/>
    </contour>
  </outline>
</glyph>
<glyph name="afii10025" format="2">
  <advance width="353"/>
  <unicode hex="0417"/>
  <anchor x="177" y="0" name="bottom"/>
  <anchor x="177" y="714" name="top"/>
  <outline>
    <contour>
      <point x="150" y="-11" type="curve" smooth="yes"/>
      <point x="240" y="-11"/>
      <point x="300" y="35"/>
      <point x="300" y="190" type="curve" smooth="yes"/>
      <point x="300" y="320"/>
      <point x="253" y="354"/>
      <point x="182" y="372" type="curve"/>
      <point x="258" y="394"/>
      <point x="290" y="456"/>
      <point x="290" y="562" type="curve" smooth="yes"/>
      <point x="290" y="684"/>
      <point x="225" y="724"/>
      <point x="165" y="724" type="curve" smooth="yes"/>
      <point x="32" y="724"/>
      <point x="36" y="616"/>
      <point x="36" y="588" type="curve" smooth="yes"/>
      <point x="36" y="560"/>
      <point x="47" y="549"/>
      <point x="58" y="549" type="curve"/>
      <point x="58" y="629"/>
      <point x="59" y="714"/>
      <point x="165" y="714" type="curve" smooth="yes"/>
      <point x="226" y="714"/>
      <point x="262" y="671"/>
      <point x="262" y="555" type="curve" smooth="yes"/>
      <point x="262" y="456"/>
      <point x="216" y="377"/>
      <point x="153" y="377" type="curve" smooth="yes"/>
      <point x="113" y="377" type="line"/>
      <point x="113" y="367" type="line"/>
      <point x="150" y="367" type="line" smooth="yes"/>
      <point x="223" y="367"/>
      <point x="272" y="302"/>
      <point x="272" y="188" type="curve" smooth="yes"/>
      <point x="272" y="27"/>
      <point x="223" y="-1"/>
      <point x="155" y="-1" type="curve" smooth="yes"/>
      <point x="60" y="-1"/>
      <point x="52" y="63"/>
      <point x="55" y="138" type="curve"/>
      <point x="40" y="138"/>
      <point x="33" y="116"/>
      <point x="33" y="94" type="curve" smooth="yes"/>
      <point x="33" y="54"/>
      <point x="51" y="-11"/>
    </contour>
  </outline>
</glyph>
<glyph name="afii10066" format="2">
  <advance width="329"/>
  <unicode hex="0431"/>
  <anchor x="164" y="0" name="bottom"/>
  <anchor x="164" y="759" name="top"/>
  <outline>
    <contour>
      <point x="168" y="-10" type="curve" smooth="yes"/>
      <point x="249" y="-10"/>
      <point x="292" y="72"/>
      <point x="292" y="257" type="curve" smooth="yes"/>
      <point x="292" y="443"/>
      <point x="254" y="521"/>
      <point x="162" y="521" type="curve" smooth="yes"/>
      <point x="88" y="521"/>
      <point x="57" y="446"/>
      <point x="49" y="345" type="curve"/>
      <point x="47" y="345" type="line"/>
      <point x="58" y="588"/>
      <point x="91" y="642"/>
      <point x="192" y="671" type="curve" smooth="yes"/>
      <point x="240" y="688"/>
      <point x="284" y="696"/>
      <point x="284" y="759" type="curve"/>
      <point x="273" y="759" type="line"/>
      <point x="275" y="743"/>
      <point x="296" y="724"/>
      <point x="182" y="697" type="curve" smooth="yes"/>
      <point x="64" y="666"/>
      <point x="37" y="606"/>
      <point x="37" y="296" type="curve" smooth="yes"/>
      <point x="37" y="58"/>
      <point x="83" y="-10"/>
    </contour>
    <contour>
      <point x="168" y="0" type="curve" smooth="yes"/>
      <point x="106" y="0"/>
      <point x="65" y="72"/>
      <point x="65" y="263" type="curve" smooth="yes"/>
      <point x="65" y="427"/>
      <point x="93" y="511"/>
      <point x="163" y="511" type="curve" smooth="yes"/>
      <point x="239" y="511"/>
      <point x="264" y="432"/>
      <point x="264" y="255" type="curve" smooth="yes"/>
      <point x="264" y="75"/>
      <point x="231" y="0"/>
    </contour>
  </outline>
</glyph>
<glyph name="afii10101" format="2">
  <advance width="260"/>
  <unicode hex="0454"/>
  <anchor x="131" y="0" name="bottom"/>
  <anchor x="131" y="536" name="top"/>
  <outline>
    <contour>
      <point x="165" y="-10" type="curve" smooth="yes"/>
      <point x="225" y="-10"/>
      <point x="259" y="42"/>
      <point x="259" y="89" type="curve" smooth="yes"/>
      <point x="259" y="96"/>
      <point x="258" y="101"/>
      <point x="248" y="108" type="curve"/>
      <point x="247" y="68"/>
      <point x="227" y="0"/>
      <point x="164" y="0" type="curve" smooth="yes"/>
      <point x="103" y="0"/>
      <point x="66" y="59"/>
      <point x="65" y="267" type="curve"/>
      <point x="217" y="267" type="line"/>
      <point x="217" y="277" type="line"/>
      <point x="65" y="277" type="line"/>
      <point x="65" y="497"/>
      <point x="109" y="532"/>
      <point x="162" y="532" type="curve" smooth="yes"/>
      <point x="212" y="532"/>
      <point x="224" y="505"/>
      <point x="224" y="405" type="curve"/>
      <point x="234" y="405"/>
      <point x="256" y="406"/>
      <point x="256" y="444" type="curve" smooth="yes"/>
      <point x="256" y="479"/>
      <point x="237" y="542"/>
      <point x="157" y="542" type="curve" smooth="yes"/>
      <point x="82" y="542"/>
      <point x="37" y="488"/>
      <point x="37" y="266" type="curve" smooth="yes"/>
      <point x="37" y="42"/>
      <point x="98" y="-10"/>
    </contour>
  </outline>
</glyph>
<glyph name="uni046B" format="2">
  <advance width="375"/>
  <unicode hex="046B"/>
  <anchor x="188" y="0" name="bottom"/>
  <anchor x="188" y="536" name="top"/>
  <outline>
    <contour>
      <point x="1" y="0" type="line"/>
      <point x="-1" y="0" type="line" smooth="yes"/>
      <point x="55" y="0"/>
      <point x="65" y="27"/>
      <point x="79" y="101" type="curve" smooth="yes"/>
      <point x="97" y="184" type="line" smooth="yes"/>
      <point x="109" y="248"/>
      <point x="123" y="262"/>
      <point x="174" y="262" type="curve"/>
      <point x="174" y="87" type="line" smooth="yes"/>
      <point x="174" y="17"/>
      <point x="160" y="10"/>
      <point x="116" y="10" type="curve" smooth="yes"/>
      <point x="132" y="10" type="line"/>
      <point x="132" y="0" type="line"/>
      <point x="243" y="0" type="line"/>
      <point x="243" y="10" type="line"/>
      <point x="265" y="10" type="line" smooth="yes"/>
      <point x="214" y="10"/>
      <point x="202" y="17"/>
      <point x="202" y="87" type="curve" smooth="yes"/>
      <point x="202" y="262" type="line"/>
      <point x="256" y="262"/>
      <point x="264" y="254"/>
      <point x="281" y="176" type="curve" smooth="yes"/>
      <point x="297" y="102" type="line" smooth="yes"/>
      <point x="313" y="21"/>
      <point x="325" y="0"/>
      <point x="374" y="0" type="curve" smooth="yes"/>
      <point x="374" y="0" type="line"/>
      <point x="374" y="10" type="line"/>
      <point x="376" y="10" type="line" smooth="yes"/>
      <point x="346" y="10"/>
      <point x="334" y="49"/>
      <point x="319" y="123" type="curve" smooth="yes"/>
      <point x="305" y="195" type="line" smooth="yes"/>
      <point x="292" y="254"/>
      <point x="267" y="270"/>
      <point x="203" y="271" type="curve"/>
      <point x="320" y="532" type="line"/>
      <point x="320" y="536" type="line"/>
      <point x="47" y="536" type="line"/>
      <point x="47" y="532" type="line"/>
      <point x="178" y="271" type="line"/>
      <point x="113" y="266"/>
      <point x="83" y="250"/>
      <point x="71" y="196" type="curve" smooth="yes"/>
      <point x="56" y="123" type="line" smooth="yes"/>
      <point x="38" y="39"/>
      <point x="25" y="10"/>
      <point x="-1" y="10" type="curve" smooth="yes"/>
      <point x="1" y="10" type="line"/>
    </contour>
    <contour>
      <point x="197" y="281" type="line"/>
      <point x="82" y="526" type="line"/>
      <point x="309" y="526" type="line"/>
      <point x="198" y="281" type="line"/>
    </contour>
  </outline>
</glyph>
<glyph name="uni0480" format="2">
  <advance width="344"/>
  <unicode hex="0480"/>
  <anchor x="173" y="-238" name="bottom"/>
  <anchor x="173" y="714" name="top"/>
  <outline>
    <contour>
      <point x="163" y="-238" type="line"/>
      <point x="315" y="-238" type="line"/>
      <point x="315" y="-228" type="line"/>
      <point x="317" y="-228" type="line" smooth="yes"/>
      <point x="261" y="-228"/>
      <point x="259" y="-217"/>
      <point x="259" y="-126" type="curve" smooth="yes"/>
      <point x="259" y="6" type="line"/>
      <point x="256" y="6" type="line"/>
      <point x="247" y="2"/>
      <point x="237" y="0"/>
      <point x="227" y="0" type="curve" smooth="yes"/>
      <point x="115" y="0"/>
      <point x="63" y="146"/>
      <point x="63" y="358" type="curve" smooth="yes"/>
      <point x="63" y="559"/>
      <point x="106" y="714"/>
      <point x="215" y="714" type="curve" smooth="yes"/>
      <point x="274" y="714"/>
      <point x="304" y="665"/>
      <point x="304" y="565" type="curve"/>
      <point x="319" y="565"/>
      <point x="328" y="581"/>
      <point x="328" y="612" type="curve" smooth="yes"/>
      <point x="328" y="680"/>
      <point x="271" y="724"/>
      <point x="212" y="724" type="curve" smooth="yes"/>
      <point x="97" y="724"/>
      <point x="35" y="580"/>
      <point x="35" y="358" type="curve" smooth="yes"/>
      <point x="35" y="145"/>
      <point x="93" y="-12"/>
      <point x="231" y="-10" type="curve"/>
      <point x="231" y="-124" type="line" smooth="yes"/>
      <point x="231" y="-217"/>
      <point x="227" y="-228"/>
      <point x="172" y="-228" type="curve" smooth="yes"/>
      <point x="163" y="-228" type="line"/>
    </contour>
  </outline>
</glyph>
<glyph name="uni0482" format="2">
  <advance width="364"/>
  <unicode hex="0482"/>
  <outline>
    <contour>
      <point x="167" y="-20" type="line"/>
      <point x="178" y="151" type="line"/>
      <point x="311" y="149" type="line"/>
      <point x="314" y="170" type="line"/>
      <point x="181" y="171" type="line"/>
      <point x="205" y="427" type="line"/>
      <point x="337" y="425" type="line"/>
      <point x="340" y="444" type="line"/>
      <point x="207" y="447" type="line"/>
      <point x="219" y="636" type="line"/>
      <point x="199" y="638" type="line"/>
      <point x="185" y="448" type="line"/>
      <point x="53" y="451" type="line"/>
      <point x="50" y="431" type="line"/>
      <point x="184" y="429" type="line"/>
      <point x="159" y="174" type="line"/>
      <point x="27" y="175" type="line"/>
      <point x="24" y="155" type="line"/>
      <point x="157" y="153" type="line"/>
      <point x="147" y="-19" type="line"/>
    </contour>
  </outline>
</glyph>
<glyph name="titlocomb.cy" format="2">
  <unicode hex="0483"/>
  <anchor x="-3" y="536" name="_top"/>
  <anchor x="-3" y="695" name="top"/>
  <outline>
    <contour>
      <point x="-120" y="578" type="curve" smooth="yes"/>
      <point x="-100" y="578"/>
      <point x="-88" y="596"/>
      <point x="-88" y="627" type="curve"/>
      <point x="104" y="627" type="line" smooth="yes"/>
      <point x="130" y="627"/>
      <point x="145" y="640"/>
      <point x="145" y="663" type="curve" smooth="yes"/>
      <point x="145" y="683"/>
      <point x="135" y="695"/>
      <point x="118" y="695" type="curve" smooth="yes"/>
      <point x="97" y="695"/>
      <point x="86" y="678"/>
      <point x="86" y="647" type="curve"/>
      <point x="-106" y="647" type="line" smooth="yes"/>
      <point x="-132" y="647"/>
      <point x="-147" y="634"/>
      <point x="-147" y="610" type="curve" smooth="yes"/>
      <point x="-147" y="590"/>
      <point x="-137" y="578"/>
    </contour>
  </outline>
</glyph>
<glyph name="psilipneumatacomb.cy" format="2">
  <unicode hex="0486"/>
  <anchor x="2" y="536" name="_top"/>
  <anchor x="2" y="758" name="top"/>
  <outline>
    <contour>
      <point x="-23" y="618" type="line"/>
      <point x="3" y="632"/>
      <point x="26" y="651"/>
      <point x="26" y="703" type="curve" smooth="yes"/>
      <point x="26" y="727"/>
      <point x="16" y="758"/>
      <point x="-13" y="758" type="curve" smooth="yes"/>
      <point x="-19" y="758"/>
      <point x="-29" y="751"/>
      <point x="-29" y="741" type="curve" smooth="yes"/>
      <point x="-29" y="718"/>
      <point x="10" y="732"/>
      <point x="10" y="686" type="curve" smooth="yes"/>
      <point x="10" y="645"/>
      <point x="-10" y="640"/>
      <point x="-23" y="628" type="curve"/>
    </contour>
  </outline>
</glyph>
<glyph name="afii10050" format="2">
  <advance width="322"/>
  <unicode hex="0490"/>
  <anchor x="162" y="0" name="bottom"/>
  <anchor x="162" y="820" name="top"/>
  <outline>
    <contour>
      <point x="27" y="0" type="line"/>
      <point x="181" y="0" type="line"/>
      <point x="181" y="10" type="line"/>
      <point x="162" y="10" type="line" smooth="yes"/>
      <point x="118" y="10"/>
      <point x="110" y="21"/>
      <point x="110" y="98" type="curve" smooth="yes"/>
      <point x="110" y="699" type="line"/>
      <point x="297" y="699" type="line"/>
      <point x="300" y="820" type="line"/>
      <point x="290" y="820" type="line"/>
      <point x="289" y="796" type="line" smooth="yes"/>
      <point x="286" y="730"/>
      <point x="280" y="714"/>
      <point x="217" y="714" type="curve" smooth="yes"/>
      <point x="27" y="714" type="line"/>
      <point x="27" y="704" type="line"/>
      <point x="27" y="704" type="line" smooth="yes"/>
      <point x="76" y="704"/>
      <point x="82" y="693"/>
      <point x="82" y="617" type="curve" smooth="yes"/>
      <point x="82" y="98" type="line" smooth="yes"/>
      <point x="82" y="21"/>
      <point x="76" y="10"/>
      <point x="28" y="10" type="curve" smooth="yes"/>
      <point x="27" y="10" type="line"/>
    </contour>
  </outline>
</glyph>
<glyph name="afii10098" format="2">
  <advance width="262"/>
  <unicode hex="0491"/>
  <anchor x="132" y="0" name="bottom"/>
  <anchor x="132" y="627" name="top"/>
  <outline>
    <contour>
      <point x="14" y="0" type="line"/>
      <point x="179" y="0" type="line"/>
      <point x="179" y="10" type="line"/>
      <point x="177" y="10" type="line" smooth="yes"/>
      <point x="114" y="10"/>
      <point x="108" y="14"/>
      <point x="108" y="87" type="curve" smooth="yes"/>
      <point x="108" y="521" type="line"/>
      <point x="243" y="521" type="line"/>
      <point x="239" y="627" type="line"/>
      <point x="229" y="627" type="line"/>
      <point x="234" y="664" type="line" smooth="yes"/>
      <point x="236" y="543"/>
      <point x="232" y="536"/>
      <point x="174" y="536" type="curve" smooth="yes"/>
      <point x="14" y="536" type="line"/>
      <point x="14" y="526" type="line"/>
      <point x="11" y="526" type="line" smooth="yes"/>
      <point x="74" y="526"/>
      <point x="80" y="519"/>
      <point x="80" y="449" type="curve" smooth="yes"/>
      <point x="80" y="87" type="line" smooth="yes"/>
      <point x="80" y="17"/>
      <point x="74" y="10"/>
      <point x="15" y="10" type="curve" smooth="yes"/>
      <point x="14" y="10" type="line"/>
    </contour>
  </outline>
</glyph>
<glyph name="uni049D" format="2">
  <advance width="371"/>
  <unicode hex="049D"/>
  <anchor x="185" y="0" name="bottom"/>
  <anchor x="185" y="536" name="top"/>
  <outline>
    <contour>
      <point x="28" y="0" type="line"/>
      <point x="161" y="0" type="line"/>
      <point x="161" y="10" type="line"/>
      <point x="168" y="10" type="line" smooth="yes"/>
      <point x="115" y="10"/>
      <point x="109" y="16"/>
      <point x="109" y="87" type="curve" smooth="yes"/>
      <point x="109" y="281" type="line"/>
      <point x="158" y="281" type="line"/>
      <point x="158" y="137" type="line"/>
      <point x="168" y="137" type="line"/>
      <point x="168" y="275" type="line"/>
      <point x="197" y="266"/>
      <point x="200" y="242"/>
      <point x="217" y="201" type="curve" smooth="yes"/>
      <point x="249" y="127" type="line" smooth="yes"/>
      <point x="301" y="9"/>
      <point x="304" y="0"/>
      <point x="353" y="0" type="curve" smooth="yes"/>
      <point x="362" y="0" type="line"/>
      <point x="362" y="10" type="line"/>
      <point x="360" y="10" type="line" smooth="yes"/>
      <point x="329" y="10"/>
      <point x="314" y="45"/>
      <point x="285" y="115" type="curve" smooth="yes"/>
      <point x="246" y="210" type="line" smooth="yes"/>
      <point x="231" y="246"/>
      <point x="218" y="278"/>
      <point x="162" y="285" type="curve"/>
      <point x="171" y="303"/>
      <point x="185" y="312"/>
      <point x="239" y="417" type="curve" smooth="yes"/>
      <point x="270" y="483"/>
      <point x="279" y="510"/>
      <point x="309" y="510" type="curve" smooth="yes"/>
      <point x="322" y="510"/>
      <point x="335" y="501"/>
      <point x="337" y="470" type="curve"/>
      <point x="347" y="471"/>
      <point x="357" y="474"/>
      <point x="357" y="496" type="curve" smooth="yes"/>
      <point x="357" y="520"/>
      <point x="346" y="542"/>
      <point x="312" y="542" type="curve" smooth="yes"/>
      <point x="264" y="542"/>
      <point x="254" y="489"/>
      <point x="223" y="422" type="curve" smooth="yes"/>
      <point x="192" y="353"/>
      <point x="174" y="314"/>
      <point x="168" y="299" type="curve"/>
      <point x="168" y="425" type="line"/>
      <point x="158" y="425" type="line"/>
      <point x="158" y="291" type="line"/>
      <point x="109" y="291" type="line"/>
      <point x="109" y="449" type="line" smooth="yes"/>
      <point x="109" y="523"/>
      <point x="116" y="526"/>
      <point x="179" y="526" type="curve" smooth="yes"/>
      <point x="172" y="526" type="line"/>
      <point x="172" y="536" type="line"/>
      <point x="14" y="536" type="line"/>
      <point x="14" y="526" type="line"/>
      <point x="1" y="526" type="line" smooth="yes"/>
      <point x="77" y="526"/>
      <point x="81" y="519"/>
      <point x="81" y="449" type="curve" smooth="yes"/>
      <point x="81" y="86" type="line" smooth="yes"/>
      <point x="81" y="17"/>
      <point x="74" y="10"/>
      <point x="22" y="10" type="curve" smooth="yes"/>
      <point x="28" y="10" type="line"/>
    </contour>
  </outline>
</glyph>
<glyph name="uni04BA" format="2">
  <advance width="440"/>
  <unicode hex="04BA"/>
  <anchor x="221" y="0" name="bottom"/>
  <anchor x="221" y="714" name="top"/>
  <outline>
    <contour>
      <point x="-2" y="0" type="line"/>
      <point x="169" y="0" type="line"/>
      <point x="169" y="10" type="line"/>
      <point x="166" y="10" type="line" smooth="yes"/>
      <point x="116" y="10"/>
      <point x="110" y="21"/>
      <point x="110" y="98" type="curve" smooth="yes"/>
      <point x="110" y="338" type="line"/>
      <point x="126" y="360"/>
      <point x="188" y="412"/>
      <point x="238" y="412" type="curve" smooth="yes"/>
      <point x="335" y="412"/>
      <point x="338" y="332"/>
      <point x="338" y="208" type="curve" smooth="yes"/>
      <point x="338" y="98" type="line" smooth="yes"/>
      <point x="338" y="21"/>
      <point x="332" y="10"/>
      <point x="283" y="10" type="curve" smooth="yes"/>
      <point x="267" y="10" type="line"/>
      <point x="267" y="0" type="line"/>
      <point x="425" y="0" type="line"/>
      <point x="425" y="10" type="line"/>
      <point x="423" y="10" type="line" smooth="yes"/>
      <point x="372" y="10"/>
      <point x="366" y="21"/>
      <point x="366" y="98" type="curve" smooth="yes"/>
      <point x="366" y="203" type="line" smooth="yes"/>
      <point x="366" y="355"/>
      <point x="341" y="422"/>
      <point x="238" y="422" type="curve" smooth="yes"/>
      <point x="179" y="422"/>
      <point x="123" y="366"/>
      <point x="110" y="352" type="curve"/>
      <point x="110" y="617" type="line" smooth="yes"/>
      <point x="110" y="693"/>
      <point x="116" y="704"/>
      <point x="166" y="704" type="curve" smooth="yes"/>
      <point x="181" y="704" type="line"/>
      <point x="181" y="714" type="line"/>
      <point x="28" y="714" type="line"/>
      <point x="28" y="704" type="line"/>
      <point x="28" y="704" type="line" smooth="yes"/>
      <point x="76" y="704"/>
      <point x="82" y="693"/>
      <point x="82" y="617" type="curve" smooth="yes"/>
      <point x="82" y="98" type="line" smooth="yes"/>
      <point x="82" y="21"/>
      <point x="76" y="10"/>
      <point x="28" y="10" type="curve" smooth="yes"/>
      <point x="-2" y="10" type="line"/>
    </contour>
  </outline>
</glyph>
<glyph name="uni04BE" format="2">
  <advance width="467"/>
  <unicode hex="04BE"/>
  <anchor x="270" y="-210" name="bottom"/>
  <anchor x="271" y="714" name="top"/>
  <outline>
    <contour>
      <point x="270" y="-210" type="curve"/>
      <point x="280" y="-210" type="line"/>
      <point x="280" y="-26"/>
      <point x="282" y="-5"/>
      <point x="325" y="-5" type="curve" smooth="yes"/>
      <point x="378" y="15"/>
      <point x="403" y="55"/>
      <point x="403" y="93" type="curve" smooth="yes"/>
      <point x="403" y="98"/>
      <point x="401" y="111"/>
      <point x="395" y="112" type="curve"/>
      <point x="380" y="41"/>
      <point x="347" y="0"/>
      <point x="283" y="0" type="curve" smooth="yes"/>
      <point x="196" y="0"/>
      <point x="135" y="115"/>
      <point x="132" y="353" type="curve"/>
      <point x="435" y="353" type="line"/>
      <point x="435" y="366" type="line" smooth="yes"/>
      <point x="435" y="549"/>
      <point x="404" y="725"/>
      <point x="274" y="725" type="curve" smooth="yes"/>
      <point x="155" y="725"/>
      <point x="110" y="601"/>
      <point x="103" y="363" type="curve"/>
      <point x="59" y="363"/>
      <point x="27" y="379"/>
      <point x="27" y="424" type="curve" smooth="yes"/>
      <point x="27" y="450"/>
      <point x="29" y="480"/>
      <point x="68" y="489" type="curve"/>
      <point x="65" y="499"/>
      <point x="57" y="502"/>
      <point x="51" y="502" type="curve" smooth="yes"/>
      <point x="27" y="502"/>
      <point x="0" y="476"/>
      <point x="0" y="426" type="curve" smooth="yes"/>
      <point x="0" y="374"/>
      <point x="51" y="353"/>
      <point x="104" y="353" type="curve"/>
      <point x="107" y="172"/>
      <point x="142" y="53"/>
      <point x="208" y="5" type="curve" smooth="yes"/>
      <point x="268" y="-12"/>
      <point x="270" y="-28"/>
    </contour>
    <contour>
      <point x="132" y="363" type="line"/>
      <point x="143" y="596"/>
      <point x="171" y="715"/>
      <point x="273" y="715" type="curve" smooth="yes"/>
      <point x="376" y="715"/>
      <point x="408" y="562"/>
      <point x="407" y="363" type="curve"/>
    </contour>
  </outline>
</glyph>
<glyph name="uni04C3" format="2">
  <advance width="392"/>
  <unicode hex="04C3"/>
  <anchor x="197" y="-247" name="bottom"/>
  <anchor x="197" y="714" name="top"/>
  <outline>
    <contour>
      <point x="215" y="-247" type="curve" smooth="yes"/>
      <point x="269" y="-247"/>
      <point x="378" y="-211"/>
      <point x="378" y="60" type="curve" smooth="yes"/>
      <point x="378" y="263"/>
      <point x="288" y="369"/>
      <point x="156" y="369" type="curve"/>
      <point x="195" y="400"/>
      <point x="220" y="485"/>
      <point x="241" y="542" type="curve" smooth="yes"/>
      <point x="281" y="650"/>
      <point x="295" y="693"/>
      <point x="329" y="693" type="curve" smooth="yes"/>
      <point x="340" y="693"/>
      <point x="346" y="689"/>
      <point x="346" y="641" type="curve"/>
      <point x="359" y="640"/>
      <point x="373" y="647"/>
      <point x="373" y="671" type="curve" smooth="yes"/>
      <point x="373" y="700"/>
      <point x="359" y="720"/>
      <point x="337" y="720" type="curve" smooth="yes"/>
      <point x="289" y="720"/>
      <point x="266" y="662"/>
      <point x="226" y="547" type="curve" smooth="yes"/>
      <point x="203" y="480"/>
      <point x="175" y="415"/>
      <point x="175" y="412" type="curve" smooth="yes"/>
      <point x="159" y="376"/>
      <point x="144" y="368"/>
      <point x="112" y="364" type="curve"/>
      <point x="112" y="618" type="line" smooth="yes"/>
      <point x="112" y="693"/>
      <point x="119" y="704"/>
      <point x="167" y="704" type="curve" smooth="yes"/>
      <point x="183" y="704" type="line"/>
      <point x="183" y="714" type="line"/>
      <point x="27" y="714" type="line"/>
      <point x="27" y="704" type="line"/>
      <point x="27" y="704" type="line" smooth="yes"/>
      <point x="78" y="704"/>
      <point x="84" y="693"/>
      <point x="84" y="618" type="curve" smooth="yes"/>
      <point x="84" y="98" type="line" smooth="yes"/>
      <point x="84" y="21"/>
      <point x="77" y="10"/>
      <point x="29" y="10" type="curve" smooth="yes"/>
      <point x="27" y="10" type="line"/>
      <point x="27" y="0" type="line"/>
      <point x="183" y="0" type="line"/>
      <point x="183" y="10" type="line"/>
      <point x="167" y="10" type="line" smooth="yes"/>
      <point x="116" y="10"/>
      <point x="112" y="21"/>
      <point x="112" y="105" type="curve" smooth="yes"/>
      <point x="112" y="353" type="line"/>
      <point x="131" y="356"/>
      <point x="143" y="358"/>
      <point x="151" y="358" type="curve" smooth="yes"/>
      <point x="247" y="358"/>
      <point x="350" y="329"/>
      <point x="350" y="56" type="curve" smooth="yes"/>
      <point x="350" y="-221"/>
      <point x="255" y="-237"/>
      <point x="213" y="-237" type="curve" smooth="yes"/>
      <point x="134" y="-237"/>
      <point x="111" y="-179"/>
      <point x="111" y="-91" type="curve"/>
      <point x="92" y="-96"/>
      <point x="87" y="-106"/>
      <point x="87" y="-130" type="curve" smooth="yes"/>
      <point x="87" y="-192"/>
      <point x="145" y="-247"/>
    </contour>
  </outline>
</glyph>
<glyph name="uni04C4" format="2">
  <advance width="347"/>
  <unicode hex="04C4"/>
  <anchor x="173" y="-240" name="bottom"/>
  <anchor x="173" y="536" name="top"/>
  <outline>
    <contour>
      <point x="207" y="-240" type="curve" smooth="yes"/>
      <point x="278" y="-240"/>
      <point x="336" y="-190"/>
      <point x="336" y="34" type="curve" smooth="yes"/>
      <point x="336" y="194"/>
      <point x="279" y="284"/>
      <point x="136" y="284" type="curve"/>
      <point x="171" y="309"/>
      <point x="197" y="357"/>
      <point x="224" y="417" type="curve" smooth="yes"/>
      <point x="254" y="487"/>
      <point x="258" y="510"/>
      <point x="287" y="510" type="curve" smooth="yes"/>
      <point x="302" y="510"/>
      <point x="315" y="502"/>
      <point x="317" y="470" type="curve"/>
      <point x="327" y="471"/>
      <point x="337" y="474"/>
      <point x="337" y="496" type="curve" smooth="yes"/>
      <point x="337" y="520"/>
      <point x="326" y="542"/>
      <point x="292" y="542" type="curve" smooth="yes"/>
      <point x="239" y="542"/>
      <point x="230" y="475"/>
      <point x="206" y="419" type="curve" smooth="yes"/>
      <point x="186" y="378"/>
      <point x="167" y="348"/>
      <point x="171" y="325" type="curve" smooth="yes"/>
      <point x="163" y="304"/>
      <point x="153" y="285"/>
      <point x="109" y="286" type="curve"/>
      <point x="109" y="449" type="line" smooth="yes"/>
      <point x="109" y="521"/>
      <point x="117" y="526"/>
      <point x="177" y="526" type="curve" smooth="yes"/>
      <point x="172" y="526" type="line"/>
      <point x="172" y="536" type="line"/>
      <point x="14" y="536" type="line"/>
      <point x="14" y="526" type="line"/>
      <point x="0" y="526" type="line" smooth="yes"/>
      <point x="77" y="526"/>
      <point x="81" y="519"/>
      <point x="81" y="449" type="curve" smooth="yes"/>
      <point x="81" y="86" type="line" smooth="yes"/>
      <point x="81" y="17"/>
      <point x="75" y="10"/>
      <point x="21" y="10" type="curve" smooth="yes"/>
      <point x="28" y="10" type="line"/>
      <point x="28" y="0" type="line"/>
      <point x="161" y="0" type="line"/>
      <point x="161" y="10" type="line"/>
      <point x="166" y="10" type="line" smooth="yes"/>
      <point x="116" y="10"/>
      <point x="109" y="17"/>
      <point x="109" y="87" type="curve" smooth="yes"/>
      <point x="109" y="273" type="line"/>
      <point x="130" y="278"/>
      <point x="132" y="274"/>
      <point x="134" y="274" type="curve" smooth="yes"/>
      <point x="256" y="274"/>
      <point x="308" y="224"/>
      <point x="308" y="22" type="curve" smooth="yes"/>
      <point x="308" y="-196"/>
      <point x="258" y="-230"/>
      <point x="205" y="-230" type="curve" smooth="yes"/>
      <point x="152" y="-230"/>
      <point x="141" y="-193"/>
      <point x="141" y="-107" type="curve"/>
      <point x="128" y="-107"/>
      <point x="118" y="-112"/>
      <point x="118" y="-140" type="curve" smooth="yes"/>
      <point x="118" y="-172"/>
      <point x="129" y="-240"/>
    </contour>
  </outline>
</glyph>
<glyph name="uni04C7" format="2">
  <advance width="454"/>
  <unicode hex="04C7"/>
  <anchor x="228" y="-233" name="bottom"/>
  <anchor x="228" y="714" name="top"/>
  <outline>
    <contour>
      <point x="220" y="-233" type="curve" smooth="yes"/>
      <point x="286" y="-233"/>
      <point x="379" y="-186"/>
      <point x="379" y="96" type="curve" smooth="yes"/>
      <point x="379" y="617" type="line" smooth="yes"/>
      <point x="379" y="693"/>
      <point x="385" y="704"/>
      <point x="434" y="704" type="curve" smooth="yes"/>
      <point x="438" y="704" type="line"/>
      <point x="438" y="714" type="line"/>
      <point x="283" y="714" type="line"/>
      <point x="283" y="704" type="line"/>
      <point x="295" y="704" type="line" smooth="yes"/>
      <point x="344" y="704"/>
      <point x="351" y="693"/>
      <point x="351" y="617" type="curve" smooth="yes"/>
      <point x="351" y="379" type="line"/>
      <point x="112" y="379" type="line"/>
      <point x="112" y="617" type="line" smooth="yes"/>
      <point x="112" y="693"/>
      <point x="118" y="704"/>
      <point x="167" y="704" type="curve" smooth="yes"/>
      <point x="180" y="704" type="line"/>
      <point x="180" y="714" type="line"/>
      <point x="28" y="714" type="line"/>
      <point x="28" y="704" type="line"/>
      <point x="28" y="704" type="line" smooth="yes"/>
      <point x="78" y="704"/>
      <point x="84" y="693"/>
      <point x="84" y="617" type="curve" smooth="yes"/>
      <point x="84" y="98" type="line" smooth="yes"/>
      <point x="84" y="21"/>
      <point x="78" y="10"/>
      <point x="29" y="10" type="curve" smooth="yes"/>
      <point x="28" y="10" type="line"/>
      <point x="28" y="0" type="line"/>
      <point x="180" y="0" type="line"/>
      <point x="180" y="10" type="line"/>
      <point x="167" y="10" type="line" smooth="yes"/>
      <point x="118" y="10"/>
      <point x="112" y="21"/>
      <point x="112" y="98" type="curve" smooth="yes"/>
      <point x="112" y="369" type="line"/>
      <point x="351" y="369" type="line"/>
      <point x="351" y="85" type="line" smooth="yes"/>
      <point x="351" y="-189"/>
      <point x="270" y="-223"/>
      <point x="217" y="-223" type="curve" smooth="yes"/>
      <point x="155" y="-223"/>
      <point x="128" y="-183"/>
      <point x="128" y="-112" type="curve"/>
      <point x="109" y="-112"/>
      <point x="102" y="-126"/>
      <point x="102" y="-143" type="curve" smooth="yes"/>
      <point x="102" y="-175"/>
      <point x="128" y="-209"/>
      <point x="170" y="-225" type="curve" smooth="yes"/>
      <point x="185" y="-229"/>
      <point x="198" y="-233"/>
    </contour>
  </outline>
</glyph>
<glyph name="uni04C8" format="2">
  <advance width="400"/>
  <unicode hex="04C8"/>
  <anchor x="200" y="-230" name="bottom"/>
  <anchor x="200" y="536" name="top"/>
  <outline>
    <contour>
      <point x="196" y="-230" type="curve" smooth="yes"/>
      <point x="249" y="-230"/>
      <point x="327" y="-198"/>
      <point x="327" y="21" type="curve" smooth="yes"/>
      <point x="327" y="449" type="line" smooth="yes"/>
      <point x="327" y="519"/>
      <point x="335" y="526"/>
      <point x="387" y="526" type="curve" smooth="yes"/>
      <point x="390" y="526" type="line"/>
      <point x="390" y="536" type="line"/>
      <point x="237" y="536" type="line"/>
      <point x="237" y="526" type="line"/>
      <point x="238" y="526" type="line" smooth="yes"/>
      <point x="292" y="526"/>
      <point x="299" y="519"/>
      <point x="299" y="449" type="curve" smooth="yes"/>
      <point x="299" y="280" type="line"/>
      <point x="108" y="280" type="line"/>
      <point x="108" y="449" type="line" smooth="yes"/>
      <point x="108" y="519"/>
      <point x="115" y="526"/>
      <point x="167" y="526" type="curve" smooth="yes"/>
      <point x="168" y="526" type="line"/>
      <point x="168" y="536" type="line"/>
      <point x="14" y="536" type="line"/>
      <point x="14" y="526" type="line"/>
      <point x="17" y="526" type="line" smooth="yes"/>
      <point x="72" y="526"/>
      <point x="80" y="519"/>
      <point x="80" y="449" type="curve" smooth="yes"/>
      <point x="80" y="87" type="line" smooth="yes"/>
      <point x="80" y="16"/>
      <point x="72" y="10"/>
      <point x="19" y="10" type="curve" smooth="yes"/>
      <point x="14" y="10" type="line"/>
      <point x="14" y="0" type="line"/>
      <point x="168" y="0" type="line"/>
      <point x="168" y="10" type="line"/>
      <point x="175" y="10" type="line" smooth="yes"/>
      <point x="113" y="10"/>
      <point x="108" y="16"/>
      <point x="108" y="87" type="curve" smooth="yes"/>
      <point x="108" y="270" type="line"/>
      <point x="299" y="270" type="line"/>
      <point x="299" y="10" type="line" smooth="yes"/>
      <point x="299" y="-198"/>
      <point x="237" y="-220"/>
      <point x="196" y="-220" type="curve" smooth="yes"/>
      <point x="150" y="-220"/>
      <point x="115" y="-193"/>
      <point x="118" y="-112" type="curve"/>
      <point x="101" y="-110"/>
      <point x="90" y="-128"/>
      <point x="90" y="-151" type="curve" smooth="yes"/>
      <point x="90" y="-184"/>
      <point x="117" y="-214"/>
      <point x="166" y="-228" type="curve" smooth="yes"/>
      <point x="174" y="-227"/>
      <point x="187" y="-230"/>
    </contour>
  </outline>
</glyph>
<glyph name="uni04CC" format="2">
  <advance width="365"/>
  <unicode hex="04CC"/>
  <anchor x="182" y="-210" name="bottom"/>
  <anchor x="182" y="536" name="top"/>
  <outline>
    <contour>
      <point x="205" y="-210" type="line"/>
      <point x="215" y="-210" type="line"/>
      <point x="210" y="-229" type="line" smooth="yes"/>
      <point x="213" y="-41"/>
      <point x="232" y="0"/>
      <point x="371" y="0" type="curve" smooth="yes"/>
      <point x="358" y="0" type="line"/>
      <point x="358" y="10" type="line"/>
      <point x="350" y="10" type="line" smooth="yes"/>
      <point x="300" y="10"/>
      <point x="293" y="17"/>
      <point x="293" y="87" type="curve" smooth="yes"/>
      <point x="293" y="449" type="line" smooth="yes"/>
      <point x="293" y="519"/>
      <point x="301" y="526"/>
      <point x="354" y="526" type="curve" smooth="yes"/>
      <point x="356" y="526" type="line"/>
      <point x="356" y="536" type="line"/>
      <point x="202" y="536" type="line"/>
      <point x="202" y="526" type="line"/>
      <point x="204" y="526" type="line" smooth="yes"/>
      <point x="257" y="526"/>
      <point x="265" y="519"/>
      <point x="265" y="449" type="curve" smooth="yes"/>
      <point x="265" y="276" type="line"/>
      <point x="210" y="210"/>
      <point x="185" y="198"/>
      <point x="148" y="198" type="curve" smooth="yes"/>
      <point x="104" y="198"/>
      <point x="93" y="240"/>
      <point x="93" y="316" type="curve" smooth="yes"/>
      <point x="93" y="449" type="line" smooth="yes"/>
      <point x="93" y="519"/>
      <point x="100" y="526"/>
      <point x="156" y="526" type="curve" smooth="yes"/>
      <point x="157" y="526" type="line"/>
      <point x="157" y="536" type="line"/>
      <point x="10" y="536" type="line"/>
      <point x="10" y="526" type="line"/>
      <point x="2" y="526" type="line" smooth="yes"/>
      <point x="58" y="526"/>
      <point x="65" y="519"/>
      <point x="65" y="449" type="curve" smooth="yes"/>
      <point x="65" y="312" type="line" smooth="yes"/>
      <point x="65" y="234"/>
      <point x="90" y="188"/>
      <point x="142" y="188" type="curve" smooth="yes"/>
      <point x="195" y="188"/>
      <point x="219" y="209"/>
      <point x="265" y="260" type="curve"/>
      <point x="265" y="87" type="line" smooth="yes"/>
      <point x="265" y="14"/>
      <point x="257" y="7"/>
      <point x="201" y="7" type="curve" smooth="yes"/>
      <point x="205" y="7" type="line"/>
    </contour>
  </outline>
</glyph>
<glyph name="uni04CD" format="2">
  <advance width="563"/>
  <unicode hex="04CD"/>
  <anchor x="296" y="0" name="bottom"/>
  <anchor x="282" y="714" name="top"/>
  <anchor x="553" y="714" name="topright"/>
  <outline>
    <contour>
      <point x="502" y="-210" type="line"/>
      <point x="528" y="-210" type="line"/>
      <point x="559" y="0" type="line"/>
      <point x="559" y="10" type="line"/>
      <point x="549" y="10" type="line"/>
      <point x="549" y="0" type="line"/>
    </contour>
    <component base="M"/>
  </outline>
</glyph>
<glyph name="uni04E9" format="2">
  <advance width="329"/>
  <unicode hex="04E9"/>
  <anchor x="164" y="0" name="bottom"/>
  <anchor x="164" y="536" name="top"/>
  <outline>
    <contour>
      <point x="165" y="-10" type="curve" smooth="yes"/>
      <point x="249" y="-10"/>
      <point x="293" y="69"/>
      <point x="293" y="267" type="curve" smooth="yes"/>
      <point x="293" y="442"/>
      <point x="259" y="542"/>
      <point x="165" y="542" type="curve" smooth="yes"/>
      <point x="72" y="542"/>
      <point x="37" y="449"/>
      <point x="37" y="267" type="curve" smooth="yes"/>
      <point x="37" y="74"/>
      <point x="81" y="-10"/>
    </contour>
    <contour>
      <point x="167" y="0" type="curve" smooth="yes"/>
      <point x="99" y="0"/>
      <point x="64" y="87"/>
      <point x="65" y="278" type="curve"/>
      <point x="265" y="278" type="line"/>
      <point x="265" y="71"/>
      <point x="232" y="0"/>
    </contour>
    <contour>
      <point x="65" y="288" type="line"/>
      <point x="69" y="451"/>
      <point x="92" y="532"/>
      <point x="162" y="532" type="curve" smooth="yes"/>
      <point x="240" y="532"/>
      <point x="261" y="448"/>
      <point x="265" y="288" type="curve"/>
    </contour>
  </outline>
</glyph>
<glyph name="uni04FF" format="2">
  <advance width="315"/>
  <unicode hex="04FF"/>
  <anchor x="156" y="0" name="bottom"/>
  <anchor x="156" y="536" name="top"/>
  <anchor x="295" y="536" name="topright"/>
  <outline>
    <contour>
      <point x="41" y="281" type="line"/>
      <point x="277" y="281" type="line"/>
      <point x="277" y="291" type="line"/>
      <point x="41" y="291" type="line"/>
    </contour>
    <component base="x"/>
  </outline>
</glyph>
<glyph name="uni0511" format="2">
  <advance width="264"/>
  <unicode hex="0511"/>
  <anchor x="132" y="0" name="bottom"/>
  <anchor x="132" y="536" name="top"/>
  <outline>
    <contour>
      <point x="152" y="-10" type="curve" smooth="yes"/>
      <point x="219" y="-10"/>
      <point x="241" y="35"/>
      <point x="241" y="76" type="curve" smooth="yes"/>
      <point x="241" y="93"/>
      <point x="233" y="102"/>
      <point x="221" y="105" type="curve"/>
      <point x="210" y="48"/>
      <point x="215" y="0"/>
      <point x="152" y="0" type="curve" smooth="yes"/>
      <point x="91" y="0"/>
      <point x="63" y="48"/>
      <point x="63" y="127" type="curve" smooth="yes"/>
      <point x="63" y="225"/>
      <point x="94" y="277"/>
      <point x="147" y="277" type="curve" smooth="yes"/>
      <point x="202" y="277" type="line"/>
      <point x="202" y="287" type="line"/>
      <point x="149" y="287" type="line" smooth="yes"/>
      <point x="91" y="287"/>
      <point x="73" y="340"/>
      <point x="73" y="413" type="curve" smooth="yes"/>
      <point x="73" y="485"/>
      <point x="88" y="533"/>
      <point x="155" y="533" type="curve" smooth="yes"/>
      <point x="213" y="533"/>
      <point x="213" y="498"/>
      <point x="213" y="405" type="curve"/>
      <point x="229" y="405"/>
      <point x="244" y="417"/>
      <point x="244" y="444" type="curve" smooth="yes"/>
      <point x="244" y="474"/>
      <point x="234" y="543"/>
      <point x="150" y="543" type="curve" smooth="yes"/>
      <point x="79" y="543"/>
      <point x="45" y="486"/>
      <point x="45" y="406" type="curve" smooth="yes"/>
      <point x="45" y="348"/>
      <point x="67" y="303"/>
      <point x="118" y="283" type="curve"/>
      <point x="118" y="281" type="line"/>
      <point x="68" y="263"/>
      <point x="35" y="226"/>
      <point x="35" y="142" type="curve" smooth="yes"/>
      <point x="35" y="66"/>
      <point x="59" y="-10"/>
    </contour>
  </outline>
</glyph>
<glyph name="uni0514" format="2">
  <advance width="554"/>
  <unicode hex="0514"/>
  <anchor x="270" y="0" name="bottom"/>
  <anchor x="270" y="714" name="top"/>
  <outline>
    <contour>
      <point x="44" y="-7" type="curve" smooth="yes"/>
      <point x="75" y="-7"/>
      <point x="104" y="11"/>
      <point x="132" y="156" type="curve" smooth="yes"/>
      <point x="140" y="213"/>
      <point x="173" y="395"/>
      <point x="170" y="704" type="curve"/>
      <point x="182" y="704" type="line" smooth="yes"/>
      <point x="215" y="704"/>
      <point x="224" y="701"/>
      <point x="242" y="657" type="curve" smooth="yes"/>
      <point x="361" y="357" type="line"/>
      <point x="257" y="57" type="line" smooth="yes"/>
      <point x="243" y="13"/>
      <point x="229" y="10"/>
      <point x="179" y="10" type="curve" smooth="yes"/>
      <point x="192" y="10" type="line"/>
      <point x="192" y="0" type="line"/>
      <point x="344" y="0" type="line"/>
      <point x="344" y="10" type="line"/>
      <point x="307" y="10" type="line" smooth="yes"/>
      <point x="268" y="10"/>
      <point x="263" y="16"/>
      <point x="263" y="30" type="curve" smooth="yes"/>
      <point x="263" y="41"/>
      <point x="267" y="54"/>
      <point x="295" y="133" type="curve" smooth="yes"/>
      <point x="365" y="342" type="line"/>
      <point x="456" y="112" type="line" smooth="yes"/>
      <point x="479" y="53"/>
      <point x="487" y="31"/>
      <point x="487" y="23" type="curve" smooth="yes"/>
      <point x="487" y="15"/>
      <point x="482" y="10"/>
      <point x="442" y="10" type="curve" smooth="yes"/>
      <point x="411" y="10" type="line"/>
      <point x="411" y="0" type="line"/>
      <point x="545" y="0" type="line"/>
      <point x="545" y="10" type="line"/>
      <point x="554" y="10" type="line" smooth="yes"/>
      <point x="530" y="10"/>
      <point x="521" y="12"/>
      <point x="503" y="58" type="curve" smooth="yes"/>
      <point x="379" y="377" type="line"/>
      <point x="477" y="658" type="line" smooth="yes"/>
      <point x="493" y="703"/>
      <point x="504" y="704"/>
      <point x="532" y="704" type="curve" smooth="yes"/>
      <point x="535" y="704" type="line"/>
      <point x="535" y="714" type="line"/>
      <point x="399" y="714" type="line"/>
      <point x="399" y="704" type="line"/>
      <point x="437" y="704" type="line" smooth="yes"/>
      <point x="464" y="704"/>
      <point x="467" y="696"/>
      <point x="467" y="684" type="curve" smooth="yes"/>
      <point x="467" y="668"/>
      <point x="464" y="648"/>
      <point x="453" y="617" type="curve" smooth="yes"/>
      <point x="373" y="392" type="line"/>
      <point x="285" y="618" type="line" smooth="yes"/>
      <point x="273" y="651"/>
      <point x="260" y="683"/>
      <point x="260" y="687" type="curve" smooth="yes"/>
      <point x="260" y="699"/>
      <point x="263" y="704"/>
      <point x="297" y="704" type="curve" smooth="yes"/>
      <point x="331" y="704" type="line"/>
      <point x="331" y="714" type="line"/>
      <point x="83" y="714" type="line"/>
      <point x="83" y="704" type="line"/>
      <point x="103" y="704" type="line" smooth="yes"/>
      <point x="151" y="704"/>
      <point x="162" y="688"/>
      <point x="162" y="651" type="curve" smooth="yes"/>
      <point x="162" y="591"/>
      <point x="162" y="393"/>
      <point x="135" y="237" type="curve" smooth="yes"/>
      <point x="98" y="34"/>
      <point x="51" y="23"/>
      <point x="40" y="23" type="curve" smooth="yes"/>
      <point x="14" y="23"/>
      <point x="9" y="50"/>
      <point x="7" y="60" type="curve"/>
      <point x="4" y="60"/>
      <point x="0" y="53"/>
      <point x="0" y="38" type="curve" smooth="yes"/>
      <point x="0" y="14"/>
      <point x="12" y="-7"/>
    </contour>
  </outline>
</glyph>
<glyph name="uni0520" format="2">
  <advance width="629"/>
  <unicode hex="0520"/>
  <anchor x="313" y="-247" name="bottom"/>
  <anchor x="313" y="714" name="top"/>
  <outline>
    <contour>
      <point x="455" y="-247" type="curve" smooth="yes"/>
      <point x="492" y="-247"/>
      <point x="606" y="-216"/>
      <point x="606" y="56" type="curve" smooth="yes"/>
      <point x="606" y="351"/>
      <point x="479" y="391"/>
      <point x="447" y="391" type="curve" smooth="yes"/>
      <point x="408" y="391"/>
      <point x="383" y="386"/>
      <point x="367" y="375" type="curve"/>
      <point x="367" y="617" type="line" smooth="yes"/>
      <point x="367" y="695"/>
      <point x="372" y="704"/>
      <point x="424" y="704" type="curve" smooth="yes"/>
      <point x="428" y="704" type="line"/>
      <point x="428" y="714" type="line"/>
      <point x="83" y="714" type="line"/>
      <point x="83" y="704" type="line"/>
      <point x="104" y="704" type="line" smooth="yes"/>
      <point x="151" y="704"/>
      <point x="167" y="702"/>
      <point x="167" y="646" type="curve" smooth="yes"/>
      <point x="167" y="577"/>
      <point x="164" y="381"/>
      <point x="140" y="239" type="curve" smooth="yes"/>
      <point x="103" y="28"/>
      <point x="51" y="22"/>
      <point x="36" y="22" type="curve" smooth="yes"/>
      <point x="18" y="22"/>
      <point x="8" y="36"/>
      <point x="7" y="55" type="curve"/>
      <point x="0" y="51"/>
      <point x="0" y="46"/>
      <point x="0" y="35" type="curve" smooth="yes"/>
      <point x="0" y="17"/>
      <point x="6" y="-7"/>
      <point x="41" y="-7" type="curve" smooth="yes"/>
      <point x="73" y="-7"/>
      <point x="112" y="11"/>
      <point x="140" y="156" type="curve" smooth="yes"/>
      <point x="149" y="213"/>
      <point x="179" y="395"/>
      <point x="175" y="704" type="curve"/>
      <point x="339" y="704" type="line"/>
      <point x="339" y="98" type="line" smooth="yes"/>
      <point x="339" y="21"/>
      <point x="332" y="10"/>
      <point x="284" y="10" type="curve" smooth="yes"/>
      <point x="275" y="10" type="line"/>
      <point x="275" y="0" type="line"/>
      <point x="418" y="0" type="line"/>
      <point x="418" y="7" type="line"/>
      <point x="425" y="7" type="line" smooth="yes"/>
      <point x="373" y="7"/>
      <point x="367" y="21"/>
      <point x="367" y="98" type="curve" smooth="yes"/>
      <point x="367" y="364" type="line"/>
      <point x="385" y="374"/>
      <point x="405" y="381"/>
      <point x="447" y="381" type="curve" smooth="yes"/>
      <point x="470" y="381"/>
      <point x="578" y="349"/>
      <point x="578" y="53" type="curve" smooth="yes"/>
      <point x="578" y="-220"/>
      <point x="483" y="-237"/>
      <point x="449" y="-237" type="curve" smooth="yes"/>
      <point x="363" y="-237"/>
      <point x="338" y="-186"/>
      <point x="338" y="-93" type="curve"/>
      <point x="322" y="-93"/>
      <point x="322" y="-109"/>
      <point x="322" y="-139" type="curve" smooth="yes"/>
      <point x="322" y="-183"/>
      <point x="357" y="-247"/>
    </contour>
  </outline>
</glyph>
<glyph name="uni0525" format="2">
  <advance width="393"/>
  <unicode hex="0525"/>
  <anchor x="186" y="0" name="bottom"/>
  <anchor x="196" y="536" name="top"/>
  <outline>
    <contour>
      <point x="367" y="-210" type="line"/>
      <point x="377" y="-210" type="line"/>
      <point x="377" y="7" type="line"/>
      <point x="390" y="7" type="line" smooth="yes"/>
      <point x="320" y="7"/>
      <point x="314" y="14"/>
      <point x="314" y="87" type="curve" smooth="yes"/>
      <point x="314" y="452" type="line" smooth="yes"/>
      <point x="314" y="523"/>
      <point x="320" y="529"/>
      <point x="372" y="529" type="curve" smooth="yes"/>
      <point x="377" y="529" type="line"/>
      <point x="377" y="536" type="line"/>
      <point x="14" y="536" type="line"/>
      <point x="14" y="526" type="line"/>
      <point x="17" y="526" type="line" smooth="yes"/>
      <point x="73" y="526"/>
      <point x="80" y="519"/>
      <point x="80" y="449" type="curve" smooth="yes"/>
      <point x="80" y="87" type="line" smooth="yes"/>
      <point x="80" y="16"/>
      <point x="73" y="10"/>
      <point x="19" y="10" type="curve" smooth="yes"/>
      <point x="14" y="10" type="line"/>
      <point x="14" y="0" type="line"/>
      <point x="168" y="0" type="line"/>
      <point x="168" y="10" type="line"/>
      <point x="175" y="10" type="line" smooth="yes"/>
      <point x="113" y="10"/>
      <point x="108" y="16"/>
      <point x="108" y="87" type="curve" smooth="yes"/>
      <point x="108" y="529" type="line"/>
      <point x="286" y="529" type="line"/>
      <point x="286" y="87" type="line" smooth="yes"/>
      <point x="286" y="17"/>
      <point x="279" y="10"/>
      <point x="225" y="10" type="curve" smooth="yes"/>
      <point x="224" y="10" type="line"/>
      <point x="224" y="0" type="line"/>
      <point x="218" y="0" type="line" smooth="yes"/>
      <point x="351" y="0"/>
      <point x="368" y="-41"/>
      <point x="371" y="-219" type="curve" smooth="yes"/>
    </contour>
  </outline>
</glyph>
<glyph name="uni0526" format="2">
  <advance width="441"/>
  <unicode hex="0526"/>
  <anchor x="221" y="0" name="bottom"/>
  <anchor x="221" y="714" name="top"/>
  <outline>
    <contour>
      <point x="418" y="-210" type="curve"/>
      <point x="428" y="-210" type="line"/>
      <point x="428" y="7" type="line"/>
      <point x="416" y="7" type="line" smooth="yes"/>
      <point x="374" y="7"/>
      <point x="366" y="21"/>
      <point x="366" y="95" type="curve" smooth="yes"/>
      <point x="366" y="203" type="line" smooth="yes"/>
      <point x="366" y="355"/>
      <point x="341" y="422"/>
      <point x="239" y="422" type="curve" smooth="yes"/>
      <point x="178" y="422"/>
      <point x="123" y="368"/>
      <point x="110" y="352" type="curve"/>
      <point x="110" y="617" type="line" smooth="yes"/>
      <point x="110" y="693"/>
      <point x="117" y="704"/>
      <point x="166" y="704" type="curve" smooth="yes"/>
      <point x="181" y="704" type="line"/>
      <point x="181" y="714" type="line"/>
      <point x="28" y="714" type="line"/>
      <point x="28" y="704" type="line"/>
      <point x="27" y="704" type="line" smooth="yes"/>
      <point x="76" y="704"/>
      <point x="82" y="693"/>
      <point x="82" y="617" type="curve" smooth="yes"/>
      <point x="82" y="98" type="line" smooth="yes"/>
      <point x="82" y="21"/>
      <point x="76" y="10"/>
      <point x="26" y="10" type="curve" smooth="yes"/>
      <point x="-2" y="10" type="line"/>
      <point x="-2" y="0" type="line"/>
      <point x="169" y="0" type="line"/>
      <point x="169" y="10" type="line"/>
      <point x="166" y="10" type="line" smooth="yes"/>
      <point x="116" y="10"/>
      <point x="110" y="21"/>
      <point x="110" y="98" type="curve" smooth="yes"/>
      <point x="110" y="336" type="line"/>
      <point x="125" y="359"/>
      <point x="188" y="412"/>
      <point x="239" y="412" type="curve" smooth="yes"/>
      <point x="335" y="412"/>
      <point x="338" y="332"/>
      <point x="338" y="208" type="curve" smooth="yes"/>
      <point x="338" y="98" type="line" smooth="yes"/>
      <point x="338" y="21"/>
      <point x="332" y="10"/>
      <point x="282" y="10" type="curve" smooth="yes"/>
      <point x="267" y="10" type="line"/>
      <point x="267" y="0" type="line"/>
      <point x="240" y="0" type="line" smooth="yes"/>
      <point x="404" y="0"/>
      <point x="418" y="1"/>
    </contour>
  </outline>
</glyph>
<glyph name="uni1ABB" format="2">
  <unicode hex="1ABB"/>
  <anchor x="-163" y="536" name="_top"/>
  <anchor x="-163" y="805" name="top"/>
  <outline>
    <contour>
      <point x="-51" y="569" type="line"/>
      <point x="-25" y="584"/>
      <point x="1" y="593"/>
      <point x="1" y="686" type="curve" smooth="yes"/>
      <point x="1" y="778"/>
      <point x="-25" y="790"/>
      <point x="-51" y="805" type="curve"/>
      <point x="-51" y="790" type="line"/>
      <point x="-19" y="775"/>
      <point x="-14" y="748"/>
      <point x="-14" y="686" type="curve" smooth="yes"/>
      <point x="-14" y="626"/>
      <point x="-19" y="600"/>
      <point x="-51" y="583" type="curve"/>
    </contour>
    <contour>
      <point x="-277" y="569" type="curve"/>
      <point x="-277" y="583" type="line"/>
      <point x="-309" y="600"/>
      <point x="-314" y="626"/>
      <point x="-314" y="686" type="curve" smooth="yes"/>
      <point x="-314" y="748"/>
      <point x="-309" y="775"/>
      <point x="-277" y="790" type="curve"/>
      <point x="-277" y="805" type="line"/>
      <point x="-302" y="790"/>
      <point x="-329" y="778"/>
      <point x="-329" y="686" type="curve" smooth="yes"/>
      <point x="-329" y="593"/>
      <point x="-302" y="584"/>
    </contour>
  </outline>
</glyph>
<glyph name="uni1C87" format="2">
  <advance width="374"/>
  <unicode hex="1C87"/>
  <anchor x="188" y="0" name="bottom"/>
  <anchor x="188" y="760" name="top"/>
  <outline>
    <contour>
      <point x="57" y="0" type="line"/>
      <point x="207" y="0" type="line" smooth="yes"/>
      <point x="282" y="0"/>
      <point x="335" y="36"/>
      <point x="335" y="151" type="curve" smooth="yes"/>
      <point x="335" y="264"/>
      <point x="270" y="285"/>
      <point x="187" y="285" type="curve" smooth="yes"/>
      <point x="146" y="285" type="line"/>
      <point x="146" y="599" type="line"/>
      <point x="188" y="599" type="line" smooth="yes"/>
      <point x="249" y="599"/>
      <point x="252" y="598"/>
      <point x="254" y="535" type="curve" smooth="yes"/>
      <point x="254" y="508" type="line"/>
      <point x="264" y="508" type="line"/>
      <point x="262" y="605" type="line"/>
      <point x="146" y="605" type="line"/>
      <point x="146" y="655" type="line" smooth="yes"/>
      <point x="146" y="734"/>
      <point x="153" y="750"/>
      <point x="188" y="750" type="curve" smooth="yes"/>
      <point x="208" y="750" type="line"/>
      <point x="208" y="760" type="line"/>
      <point x="57" y="760" type="line"/>
      <point x="57" y="750" type="line"/>
      <point x="76" y="750" type="line" smooth="yes"/>
      <point x="112" y="750"/>
      <point x="118" y="734"/>
      <point x="118" y="655" type="curve" smooth="yes"/>
      <point x="118" y="605" type="line"/>
      <point x="17" y="605" type="line"/>
      <point x="15" y="508" type="line"/>
      <point x="25" y="508" type="line"/>
      <point x="24" y="535" type="line" smooth="yes"/>
      <point x="25" y="598"/>
      <point x="30" y="599"/>
      <point x="89" y="599" type="curve" smooth="yes"/>
      <point x="118" y="599" type="line"/>
      <point x="118" y="87" type="line" smooth="yes"/>
      <point x="118" y="14"/>
      <point x="110" y="10"/>
      <point x="51" y="10" type="curve" smooth="yes"/>
      <point x="57" y="10" type="line"/>
    </contour>
    <contour>
      <point x="146" y="10" type="line"/>
      <point x="146" y="275" type="line"/>
      <point x="210" y="275" type="line" smooth="yes"/>
      <point x="269" y="275"/>
      <point x="307" y="250"/>
      <point x="307" y="151" type="curve" smooth="yes"/>
      <point x="307" y="45"/>
      <point x="276" y="10"/>
      <point x="227" y="10" type="curve" smooth="yes"/>
    </contour>
  </outline>
</glyph>
<glyph name="uni1C88" format="2">
  <advance width="327"/>
  <unicode hex="1C88"/>
  <anchor x="164" y="0" name="bottom"/>
  <anchor x="164" y="760" name="top"/>
  <outline>
    <contour>
      <point x="164" y="-10" type="curve" smooth="yes"/>
      <point x="251" y="-10"/>
      <point x="292" y="42"/>
      <point x="292" y="215" type="curve" smooth="yes"/>
      <point x="292" y="353"/>
      <point x="265" y="428"/>
      <point x="178" y="439" type="curve"/>
      <point x="272" y="722" type="line" smooth="yes"/>
      <point x="278" y="752"/>
      <point x="279" y="751"/>
      <point x="305" y="751" type="curve" smooth="yes"/>
      <point x="324" y="751" type="line"/>
      <point x="324" y="760" type="line"/>
      <point x="192" y="760" type="line"/>
      <point x="192" y="751" type="line"/>
      <point x="193" y="751" type="line" smooth="yes"/>
      <point x="244" y="751"/>
      <point x="249" y="744"/>
      <point x="249" y="723" type="curve" smooth="yes"/>
      <point x="249" y="709"/>
      <point x="238" y="678"/>
      <point x="221" y="632" type="curve" smooth="yes"/>
      <point x="167" y="441" type="line"/>
      <point x="112" y="625" type="line" smooth="yes"/>
      <point x="87" y="688"/>
      <point x="84" y="712"/>
      <point x="84" y="724" type="curve" smooth="yes"/>
      <point x="84" y="746"/>
      <point x="95" y="751"/>
      <point x="134" y="751" type="curve" smooth="yes"/>
      <point x="129" y="751" type="line"/>
      <point x="129" y="760" type="line"/>
      <point x="13" y="760" type="line"/>
      <point x="13" y="751" type="line"/>
      <point x="33" y="751"/>
      <point x="39" y="738"/>
      <point x="44" y="713" type="curve" smooth="yes"/>
      <point x="141" y="437" type="line"/>
      <point x="61" y="424"/>
      <point x="35" y="348"/>
      <point x="35" y="215" type="curve" smooth="yes"/>
      <point x="35" y="47"/>
      <point x="81" y="-10"/>
    </contour>
    <contour>
      <point x="165" y="0" type="curve" smooth="yes"/>
      <point x="97" y="0"/>
      <point x="63" y="58"/>
      <point x="63" y="215" type="curve" smooth="yes"/>
      <point x="63" y="373"/>
      <point x="88" y="430"/>
      <point x="164" y="430" type="curve" smooth="yes"/>
      <point x="241" y="430"/>
      <point x="264" y="373"/>
      <point x="264" y="215" type="curve" smooth="yes"/>
      <point x="264" y="60"/>
      <point x="244" y="0"/>
    </contour>
  </outline>
</glyph>
<glyph name="uni1D06" format="2">
  <advance width="310"/>
  <unicode hex="1D06"/>
  <anchor x="155" y="0" name="bottom"/>
  <anchor x="155" y="536" name="top"/>
  <outline>
    <contour>
      <point x="32" y="0" type="line"/>
      <point x="134" y="0" type="line" smooth="yes"/>
      <point x="224" y="0"/>
      <point x="270" y="73"/>
      <point x="270" y="255" type="curve" smooth="yes"/>
      <point x="270" y="450"/>
      <point x="219" y="536"/>
      <point x="136" y="536" type="curve" smooth="yes"/>
      <point x="32" y="536" type="line"/>
      <point x="32" y="526" type="line"/>
      <point x="21" y="526" type="line" smooth="yes"/>
      <point x="63" y="526"/>
      <point x="70" y="514"/>
      <point x="70" y="449" type="curve" smooth="yes"/>
      <point x="70" y="289" type="line"/>
      <point x="24" y="289" type="line"/>
      <point x="24" y="279" type="line"/>
      <point x="70" y="279" type="line"/>
      <point x="70" y="87" type="line" smooth="yes"/>
      <point x="70" y="17"/>
      <point x="59" y="10"/>
      <point x="21" y="10" type="curve" smooth="yes"/>
      <point x="32" y="10" type="line"/>
    </contour>
    <contour>
      <point x="98" y="10" type="line"/>
      <point x="98" y="279" type="line"/>
      <point x="182" y="279" type="line"/>
      <point x="182" y="289" type="line"/>
      <point x="98" y="289" type="line"/>
      <point x="98" y="526" type="line"/>
      <point x="137" y="526" type="line" smooth="yes"/>
      <point x="202" y="526"/>
      <point x="242" y="434"/>
      <point x="242" y="255" type="curve" smooth="yes"/>
      <point x="242" y="87"/>
      <point x="200" y="10"/>
      <point x="136" y="10" type="curve" smooth="yes"/>
    </contour>
  </outline>
</glyph>
<glyph name="uni1D1A" format="2">
  <advance width="199"/>
  <unicode hex="1D1A"/>
  <anchor x="100" y="0" name="bottom"/>
  <anchor x="100" y="536" name="top"/>
  <outline>
    <contour>
      <point x="142" y="0" type="curve" smooth="yes"/>
      <point x="185" y="0" type="line"/>
      <point x="185" y="10" type="line"/>
      <point x="206" y="10" type="line" smooth="yes"/>
      <point x="159" y="10"/>
      <point x="151" y="17"/>
      <point x="151" y="87" type="curve" smooth="yes"/>
      <point x="151" y="449" type="line" smooth="yes"/>
      <point x="151" y="519"/>
      <point x="159" y="526"/>
      <point x="200" y="526" type="curve" smooth="yes"/>
      <point x="184" y="526" type="line"/>
      <point x="184" y="536" type="line"/>
      <point x="95" y="536" type="line"/>
      <point x="95" y="526" type="line"/>
      <point x="74" y="526" type="line" smooth="yes"/>
      <point x="116" y="526"/>
      <point x="123" y="519"/>
      <point x="123" y="449" type="curve" smooth="yes"/>
      <point x="123" y="284" type="line"/>
      <point x="123" y="284" type="line"/>
      <point x="56" y="464" type="line" smooth="yes"/>
      <point x="39" y="510"/>
      <point x="19" y="536"/>
      <point x="-19" y="536" type="curve" smooth="yes"/>
      <point x="-17" y="536" type="line"/>
      <point x="-17" y="526" type="line"/>
      <point x="11" y="526"/>
      <point x="19" y="495"/>
      <point x="28" y="460" type="curve" smooth="yes"/>
      <point x="98" y="280" type="line"/>
      <point x="77" y="269"/>
      <point x="41" y="233"/>
      <point x="41" y="159" type="curve" smooth="yes"/>
      <point x="41" y="50"/>
      <point x="86" y="0"/>
    </contour>
    <contour>
      <point x="142" y="10" type="line" smooth="yes"/>
      <point x="86" y="10"/>
      <point x="69" y="48"/>
      <point x="69" y="156" type="curve" smooth="yes"/>
      <point x="69" y="232"/>
      <point x="82" y="274"/>
      <point x="127" y="274" type="curve" smooth="yes"/>
      <point x="123" y="274" type="line"/>
      <point x="123" y="10" type="line"/>
    </contour>
  </outline>
</glyph>
<glyph name="uni1D28" format="2">
  <advance width="317"/>
  <unicode hex="1D28"/>
  <outline>
    <contour>
      <point x="35" y="0" type="line"/>
      <point x="137" y="0" type="line"/>
      <point x="137" y="10" type="line"/>
      <point x="153" y="10" type="line" smooth="yes"/>
      <point x="108" y="10"/>
      <point x="100" y="17"/>
      <point x="100" y="87" type="curve" smooth="yes"/>
      <point x="100" y="529" type="line"/>
      <point x="223" y="529" type="line"/>
      <point x="223" y="87" type="line" smooth="yes"/>
      <point x="223" y="17"/>
      <point x="215" y="10"/>
      <point x="172" y="10" type="curve" smooth="yes"/>
      <point x="188" y="10" type="line"/>
      <point x="188" y="0" type="line"/>
      <point x="290" y="0" type="line"/>
      <point x="290" y="10" type="line"/>
      <point x="304" y="10" type="line" smooth="yes"/>
      <point x="259" y="10"/>
      <point x="251" y="17"/>
      <point x="251" y="87" type="curve" smooth="yes"/>
      <point x="251" y="449" type="line" smooth="yes"/>
      <point x="251" y="519"/>
      <point x="259" y="526"/>
      <point x="304" y="526" type="curve" smooth="yes"/>
      <point x="290" y="526" type="line"/>
      <point x="290" y="536" type="line"/>
      <point x="35" y="536" type="line"/>
      <point x="35" y="526" type="line"/>
      <point x="21" y="526" type="line" smooth="yes"/>
      <point x="64" y="526"/>
      <point x="72" y="519"/>
      <point x="72" y="449" type="curve" smooth="yes"/>
      <point x="72" y="87" type="line" smooth="yes"/>
      <point x="72" y="17"/>
      <point x="64" y="10"/>
      <point x="21" y="10" type="curve" smooth="yes"/>
      <point x="35" y="10" type="line"/>
    </contour>
  </outline>
</glyph>
<glyph name="uni1D88" format="2">
  <advance width="356"/>
  <unicode hex="1D88"/>
  <anchor x="179" y="536" name="top"/>
  <anchor x="342" y="536" name="topright"/>
  <anchor x="179" y="-240" name="bottom"/>
  <outline>
    <contour>
      <point x="247" y="-194" type="curve" smooth="yes"/>
      <point x="288" y="-194"/>
      <point x="298" y="-161"/>
      <point x="298" y="-112" type="curve" smooth="yes"/>
      <point x="298" y="105" type="line"/>
      <point x="288" y="105" type="line"/>
      <point x="288" y="-108" type="line" smooth="yes"/>
      <point x="288" y="-151"/>
      <point x="281" y="-165"/>
      <point x="253" y="-165" type="curve" smooth="yes"/>
      <point x="219" y="-165"/>
      <point x="208" y="-142"/>
      <point x="210" y="-109" type="curve"/>
      <point x="203" y="-110"/>
      <point x="196" y="-122"/>
      <point x="196" y="-139" type="curve" smooth="yes"/>
      <point x="196" y="-174"/>
      <point x="218" y="-194"/>
    </contour>
    <component base="p"/>
  </outline>
</glyph>
<glyph name="snakebelow" format="2">
  <unicode hex="1DC2"/>
  <anchor x="0" y="0" name="_bottom"/>
  <anchor x="0" y="-200" name="bottom"/>
  <outline>
    <contour>
      <point x="24" y="-209" type="curve"/>
      <point x="24" y="-199" type="line"/>
      <point x="-2" y="-199"/>
      <point x="-17" y="-195"/>
      <point x="-17" y="-183" type="curve" smooth="yes"/>
      <point x="-17" y="-164"/>
      <point x="25" y="-174"/>
      <point x="25" y="-143" type="curve" smooth="yes"/>
      <point x="25" y="-114"/>
      <point x="-18" y="-125"/>
      <point x="-18" y="-111" type="curve" smooth="yes"/>
      <point x="-18" y="-93"/>
      <point x="28" y="-104"/>
      <point x="28" y="-69" type="curve" smooth="yes"/>
      <point x="28" y="-53"/>
      <point x="17" y="-42"/>
      <point x="-6" y="-42" type="curve" smooth="yes"/>
      <point x="-17" y="-42"/>
      <point x="-30" y="-45"/>
      <point x="-43" y="-53" type="curve"/>
      <point x="-40" y="-63" type="line"/>
      <point x="-27" y="-55"/>
      <point x="-17" y="-52"/>
      <point x="-8" y="-52" type="curve" smooth="yes"/>
      <point x="9" y="-52"/>
      <point x="15" y="-61"/>
      <point x="15" y="-71" type="curve" smooth="yes"/>
      <point x="15" y="-95"/>
      <point x="-31" y="-80"/>
      <point x="-31" y="-111" type="curve" smooth="yes"/>
      <point x="-31" y="-137"/>
      <point x="13" y="-125"/>
      <point x="13" y="-144" type="curve" smooth="yes"/>
      <point x="13" y="-162"/>
      <point x="-31" y="-153"/>
      <point x="-31" y="-183" type="curve" smooth="yes"/>
      <point x="-31" y="-202"/>
      <point x="-14" y="-209"/>
    </contour>
  </outline>
</glyph>
<glyph name="macronacutecomb" format="2">
  <unicode hex="1DC4"/>
  <anchor x="18" y="536" name="_top"/>
  <anchor x="18" y="718" name="top"/>
  <outline>
    <contour>
      <point x="-85" y="628" type="line"/>
      <point x="13" y="628" type="line"/>
      <point x="92" y="697" type="line"/>
      <point x="82" y="713" type="line"/>
      <point x="5" y="648" type="line"/>
      <point x="-85" y="648" type="line"/>
    </contour>
  </outline>
</glyph>
<glyph name="macrongravecomb" format="2">
  <unicode hex="1DC6"/>
  <anchor x="6" y="536" name="_top"/>
  <anchor x="6" y="724" name="top"/>
  <outline>
    <contour>
      <point x="76" y="639" type="line"/>
      <point x="87" y="656" type="line"/>
      <point x="11" y="722" type="line"/>
      <point x="-86" y="722" type="line"/>
      <point x="-86" y="702" type="line"/>
      <point x="4" y="702" type="line"/>
    </contour>
  </outline>
</glyph>
<glyph name="arrowheadrightheaddownbelow" format="2">
  <unicode hex="1DFF"/>
  <anchor x="0" y="0" name="_bottom"/>
  <anchor x="0" y="-240" name="bottom"/>
  <outline>
    <contour>
      <point x="63" y="-240" type="curve"/>
      <point x="78" y="-240" type="line"/>
      <point x="100" y="-165"/>
      <point x="124" y="-118"/>
      <point x="157" y="-62" type="curve"/>
      <point x="157" y="-57" type="line"/>
      <point x="142" y="-57" type="line"/>
      <point x="125" y="-84"/>
      <point x="95" y="-129"/>
      <point x="70" y="-208" type="curve"/>
      <point x="46" y="-129"/>
      <point x="16" y="-84"/>
      <point x="-1" y="-57" type="curve"/>
      <point x="-16" y="-57" type="line"/>
      <point x="-16" y="-62" type="line"/>
      <point x="17" y="-118"/>
      <point x="41" y="-166"/>
    </contour>
    <contour>
      <point x="-159" y="-240" type="line"/>
      <point x="-154" y="-240" type="line"/>
      <point x="-108" y="-200"/>
      <point x="-70" y="-171"/>
      <point x="-7" y="-146" type="curve"/>
      <point x="-7" y="-127" type="line"/>
      <point x="-70" y="-102"/>
      <point x="-108" y="-73"/>
      <point x="-154" y="-33" type="curve"/>
      <point x="-159" y="-33" type="line"/>
      <point x="-159" y="-55" type="line"/>
      <point x="-141" y="-72"/>
      <point x="-99" y="-107"/>
      <point x="-33" y="-136" type="curve"/>
      <point x="-99" y="-166"/>
      <point x="-141" y="-201"/>
      <point x="-159" y="-218" type="curve"/>
    </contour>
  </outline>
</glyph>
<glyph name="longshighstroke" format="2">
  <advance width="221"/>
  <unicode hex="1E9D"/>
  <anchor x="111" y="0" name="bottom"/>
  <anchor x="111" y="772" name="top"/>
  <outline>
    <contour>
      <point x="13" y="0" type="line"/>
      <point x="171" y="0" type="line"/>
      <point x="171" y="10" type="line"/>
      <point x="146" y="10" type="line" smooth="yes"/>
      <point x="102" y="10"/>
      <point x="97" y="22"/>
      <point x="97" y="96" type="curve" smooth="yes"/>
      <point x="97" y="554" type="line"/>
      <point x="200" y="554" type="line"/>
      <point x="200" y="564" type="line"/>
      <point x="97" y="564" type="line"/>
      <point x="97" y="600" type="line" smooth="yes"/>
      <point x="97" y="694"/>
      <point x="107" y="762"/>
      <point x="171" y="762" type="curve" smooth="yes"/>
      <point x="207" y="762"/>
      <point x="209" y="735"/>
      <point x="209" y="658" type="curve"/>
      <point x="226" y="658"/>
      <point x="235" y="677"/>
      <point x="235" y="697" type="curve" smooth="yes"/>
      <point x="235" y="758"/>
      <point x="207" y="772"/>
      <point x="170" y="772" type="curve" smooth="yes"/>
      <point x="105" y="772"/>
      <point x="69" y="722"/>
      <point x="69" y="602" type="curve" smooth="yes"/>
      <point x="69" y="564" type="line"/>
      <point x="10" y="564" type="line"/>
      <point x="10" y="554" type="line"/>
      <point x="69" y="554" type="line"/>
      <point x="69" y="96" type="line" smooth="yes"/>
      <point x="69" y="22"/>
      <point x="64" y="10"/>
      <point x="20" y="10" type="curve" smooth="yes"/>
      <point x="13" y="10" type="line"/>
    </contour>
  </outline>
</glyph>
<glyph name="yloop" format="2">
  <advance width="329"/>
  <unicode hex="1EFF"/>
  <anchor x="166" y="-238" name="bottom"/>
  <anchor x="166" y="536" name="top"/>
  <outline>
    <contour>
      <point x="83" y="-238" type="curve" smooth="yes"/>
      <point x="119" y="-238"/>
      <point x="145" y="-241"/>
      <point x="193" y="-44" type="curve" smooth="yes"/>
      <point x="288" y="422" type="line" smooth="yes"/>
      <point x="311" y="513"/>
      <point x="311" y="526"/>
      <point x="341" y="526" type="curve"/>
      <point x="341" y="536" type="line"/>
      <point x="238" y="536" type="line"/>
      <point x="238" y="526" type="line"/>
      <point x="285" y="526"/>
      <point x="295" y="522"/>
      <point x="295" y="504" type="curve" smooth="yes"/>
      <point x="295" y="488"/>
      <point x="288" y="462"/>
      <point x="282" y="433" type="curve" smooth="yes"/>
      <point x="238" y="219" type="line" smooth="yes"/>
      <point x="222" y="147"/>
      <point x="201" y="56"/>
      <point x="192" y="16" type="curve"/>
      <point x="191" y="16" type="line"/>
      <point x="186" y="47"/>
      <point x="183" y="72"/>
      <point x="137" y="234" type="curve" smooth="yes"/>
      <point x="83" y="452" type="line" smooth="yes"/>
      <point x="78" y="478"/>
      <point x="76" y="495"/>
      <point x="76" y="505" type="curve" smooth="yes"/>
      <point x="76" y="521"/>
      <point x="83" y="526"/>
      <point x="127" y="526" type="curve"/>
      <point x="127" y="536" type="line"/>
      <point x="5" y="536" type="line"/>
      <point x="5" y="526" type="line"/>
      <point x="40" y="526"/>
      <point x="42" y="518"/>
      <point x="59" y="452" type="curve" smooth="yes"/>
      <point x="178" y="-38" type="line"/>
      <point x="172" y="-68" type="line"/>
      <point x="164" y="-33"/>
      <point x="135" y="-13"/>
      <point x="99" y="-13" type="curve" smooth="yes"/>
      <point x="48" y="-13"/>
      <point x="17" y="-58"/>
      <point x="17" y="-132" type="curve" smooth="yes"/>
      <point x="17" y="-199"/>
      <point x="42" y="-238"/>
    </contour>
    <contour>
      <point x="87" y="-228" type="curve" smooth="yes"/>
      <point x="46" y="-228"/>
      <point x="27" y="-192"/>
      <point x="27" y="-132" type="curve" smooth="yes"/>
      <point x="27" y="-64"/>
      <point x="54" y="-23"/>
      <point x="99" y="-23" type="curve" smooth="yes"/>
      <point x="142" y="-23"/>
      <point x="166" y="-49"/>
      <point x="168" y="-84" type="curve"/>
      <point x="167" y="-94" type="line" smooth="yes"/>
      <point x="138" y="-207"/>
      <point x="124" y="-228"/>
    </contour>
  </outline>
</glyph>
<glyph name="uni1FCE" format="2">
  <advance width="238"/>
  <unicode hex="1FCE"/>
  <anchor x="148" y="536" name="_top"/>
  <anchor x="148" y="714" name="top"/>
  <outline>
    <contour>
      <point x="59" y="552" type="line"/>
      <point x="111" y="577"/>
      <point x="134" y="616"/>
      <point x="134" y="653" type="curve" smooth="yes"/>
      <point x="134" y="682"/>
      <point x="118" y="714"/>
      <point x="88" y="714" type="curve" smooth="yes"/>
      <point x="78" y="714"/>
      <point x="67" y="705"/>
      <point x="67" y="694" type="curve" smooth="yes"/>
      <point x="67" y="670"/>
      <point x="107" y="669"/>
      <point x="107" y="642" type="curve" smooth="yes"/>
      <point x="107" y="589"/>
      <point x="83" y="578"/>
      <point x="59" y="562" type="curve"/>
    </contour>
    <contour>
      <point x="143" y="549" type="line"/>
      <point x="145" y="549" type="line"/>
      <point x="158" y="572"/>
      <point x="211" y="670"/>
      <point x="229" y="709" type="curve"/>
      <point x="229" y="716" type="line"/>
      <point x="206" y="716" type="line"/>
      <point x="190" y="670"/>
      <point x="155" y="585"/>
      <point x="143" y="559" type="curve"/>
    </contour>
  </outline>
</glyph>
<glyph name="uni1FDE" format="2">
  <advance width="238"/>
  <unicode hex="1FDE"/>
  <anchor x="131" y="536" name="_top"/>
  <anchor x="131" y="714" name="top"/>
  <outline>
    <contour>
      <point x="115" y="552" type="curve"/>
      <point x="115" y="562" type="line"/>
      <point x="90" y="578"/>
      <point x="67" y="601"/>
      <point x="67" y="642" type="curve" smooth="yes"/>
      <point x="67" y="669"/>
      <point x="107" y="670"/>
      <point x="107" y="694" type="curve" smooth="yes"/>
      <point x="107" y="705"/>
      <point x="96" y="714"/>
      <point x="86" y="714" type="curve" smooth="yes"/>
      <point x="56" y="714"/>
      <point x="40" y="682"/>
      <point x="40" y="653" type="curve" smooth="yes"/>
      <point x="40" y="616"/>
      <point x="62" y="577"/>
    </contour>
    <contour>
      <point x="128" y="549" type="line"/>
      <point x="130" y="549" type="line"/>
      <point x="143" y="572"/>
      <point x="196" y="670"/>
      <point x="214" y="709" type="curve"/>
      <point x="214" y="716" type="line"/>
      <point x="191" y="716" type="line"/>
      <point x="175" y="670"/>
      <point x="139" y="585"/>
      <point x="128" y="559" type="curve"/>
    </contour>
  </outline>
</glyph>
<glyph name="quotedblbase" format="2">
  <advance width="275"/>
  <unicode hex="201E"/>
  <outline>
    <contour>
      <point x="42" y="-166" type="line"/>
      <point x="129" y="-119"/>
      <point x="146" y="-79"/>
      <point x="146" y="4" type="curve" smooth="yes"/>
      <point x="146" y="57"/>
      <point x="129" y="102"/>
      <point x="97" y="102" type="curve" smooth="yes"/>
      <point x="75" y="102"/>
      <point x="65" y="87"/>
      <point x="65" y="78" type="curve" smooth="yes"/>
      <point x="65" y="36"/>
      <point x="124" y="51"/>
      <point x="124" y="-31" type="curve" smooth="yes"/>
      <point x="124" y="-94"/>
      <point x="105" y="-118"/>
      <point x="42" y="-155" type="curve"/>
    </contour>
    <contour>
      <point x="97" y="-166" type="line"/>
      <point x="184" y="-119"/>
      <point x="201" y="-79"/>
      <point x="201" y="4" type="curve" smooth="yes"/>
      <point x="201" y="57"/>
      <point x="184" y="102"/>
      <point x="152" y="102" type="curve" smooth="yes"/>
      <point x="130" y="102"/>
      <point x="120" y="87"/>
      <point x="120" y="78" type="curve" smooth="yes"/>
      <point x="120" y="36"/>
      <point x="179" y="51"/>
      <point x="179" y="-31" type="curve" smooth="yes"/>
      <point x="179" y="-94"/>
      <point x="160" y="-118"/>
      <point x="97" y="-155" type="curve"/>
    </contour>
  </outline>
</glyph>
<glyph name="caret" format="2">
  <advance width="225"/>
  <unicode hex="2038"/>
  <outline>
    <contour>
      <point x="38" y="-240" type="line"/>
      <point x="58" y="-240" type="line"/>
      <point x="111" y="-53" type="line"/>
      <point x="166" y="-240" type="line"/>
      <point x="186" y="-240" type="line"/>
      <point x="102" y="42" type="line"/>
      <point x="116" y="42" type="line"/>
    </contour>
  </outline>
</glyph>
<glyph name="blackleftbullet" format="2">
  <advance width="349"/>
  <unicode hex="204C"/>
  <outline>
    <contour>
      <point x="110" y="188" type="curve" smooth="yes"/>
      <point x="323" y="188" type="line"/>
      <point x="323" y="198" type="line"/>
      <point x="340" y="198" type="line" smooth="yes"/>
      <point x="270" y="198"/>
      <point x="265" y="199"/>
      <point x="265" y="303" type="curve" smooth="yes"/>
      <point x="265" y="429" type="line" smooth="yes"/>
      <point x="265" y="528"/>
      <point x="270" y="532"/>
      <point x="340" y="532" type="curve" smooth="yes"/>
      <point x="323" y="532" type="line"/>
      <point x="323" y="544" type="line"/>
      <point x="110" y="544" type="line" smooth="yes"/>
      <point x="42" y="544"/>
      <point x="23" y="473"/>
      <point x="23" y="366" type="curve" smooth="yes"/>
      <point x="23" y="259"/>
      <point x="42" y="188"/>
    </contour>
    <contour>
      <point x="178" y="198" type="line"/>
      <point x="178" y="534" type="line"/>
      <point x="237" y="534" type="line"/>
      <point x="237" y="198" type="line"/>
    </contour>
  </outline>
</glyph>
<glyph name="closeup" format="2">
  <advance width="420"/>
  <unicode hex="2050"/>
  <outline>
    <contour>
      <point x="24" y="532" type="curve"/>
      <point x="26" y="532" type="line"/>
      <point x="60" y="602"/>
      <point x="105" y="691"/>
      <point x="207" y="691" type="curve" smooth="yes"/>
      <point x="305" y="691"/>
      <point x="353" y="605"/>
      <point x="389" y="532" type="curve"/>
      <point x="391" y="532" type="line"/>
      <point x="357" y="622"/>
      <point x="307" y="724"/>
      <point x="207" y="724" type="curve" smooth="yes"/>
      <point x="106" y="724"/>
      <point x="58" y="622"/>
    </contour>
    <contour>
      <point x="209" y="-10" type="curve" smooth="yes"/>
      <point x="309" y="-10"/>
      <point x="357" y="77"/>
      <point x="391" y="171" type="curve"/>
      <point x="389" y="171" type="line"/>
      <point x="353" y="99"/>
      <point x="307" y="23"/>
      <point x="209" y="23" type="curve" smooth="yes"/>
      <point x="107" y="23"/>
      <point x="60" y="101"/>
      <point x="26" y="171" type="curve"/>
      <point x="24" y="171" type="line"/>
      <point x="58" y="77"/>
      <point x="108" y="-10"/>
    </contour>
  </outline>
</glyph>
<glyph name="quadrupleprime" format="2">
  <advance width="353"/>
  <unicode hex="2057"/>
  <outline>
    <contour>
      <point x="20" y="479" type="line"/>
      <point x="30" y="479" type="line"/>
      <point x="107" y="714" type="line"/>
      <point x="84" y="714" type="line"/>
    </contour>
    <contour>
      <point x="246" y="479" type="line"/>
      <point x="256" y="479" type="line"/>
      <point x="333" y="714" type="line"/>
      <point x="310" y="714" type="line"/>
    </contour>
    <contour>
      <point x="95" y="479" type="line"/>
      <point x="105" y="479" type="line"/>
      <point x="182" y="714" type="line"/>
      <point x="160" y="714" type="line"/>
    </contour>
    <contour>
      <point x="171" y="479" type="line"/>
      <point x="181" y="479" type="line"/>
      <point x="258" y="714" type="line"/>
      <point x="235" y="714" type="line"/>
    </contour>
  </outline>
</glyph>
<glyph name="tricolon" format="2">
  <advance width="191"/>
  <unicode hex="205D"/>
  <outline>
    <contour>
      <point x="97" y="646" type="curve" smooth="yes"/>
      <point x="121" y="646"/>
      <point x="125" y="660"/>
      <point x="125" y="686" type="curve" smooth="yes"/>
      <point x="125" y="711"/>
      <point x="121" y="724"/>
      <point x="97" y="724" type="curve" smooth="yes"/>
      <point x="73" y="724"/>
      <point x="69" y="711"/>
      <point x="69" y="686" type="curve" smooth="yes"/>
      <point x="69" y="660"/>
      <point x="73" y="646"/>
    </contour>
    <contour>
      <point x="97" y="-5" type="curve" smooth="yes"/>
      <point x="121" y="-5"/>
      <point x="125" y="9"/>
      <point x="125" y="35" type="curve" smooth="yes"/>
      <point x="125" y="60"/>
      <point x="121" y="73"/>
      <point x="97" y="73" type="curve" smooth="yes"/>
      <point x="73" y="73"/>
      <point x="69" y="60"/>
      <point x="69" y="35" type="curve" smooth="yes"/>
      <point x="69" y="9"/>
      <point x="73" y="-5"/>
    </contour>
    <contour>
      <point x="97" y="321" type="curve" smooth="yes"/>
      <point x="121" y="321"/>
      <point x="125" y="335"/>
      <point x="125" y="361" type="curve" smooth="yes"/>
      <point x="125" y="386"/>
      <point x="121" y="399"/>
      <point x="97" y="399" type="curve" smooth="yes"/>
      <point x="73" y="399"/>
      <point x="69" y="386"/>
      <point x="69" y="361" type="curve" smooth="yes"/>
      <point x="69" y="335"/>
      <point x="73" y="321"/>
    </contour>
  </outline>
</glyph>
<glyph name="fivesuperior" format="2">
  <advance width="238"/>
  <unicode hex="2075"/>
  <outline>
    <contour>
      <point x="104" y="377" type="curve" smooth="yes"/>
      <point x="172" y="377"/>
      <point x="209" y="423"/>
      <point x="209" y="507" type="curve" smooth="yes"/>
      <point x="209" y="591"/>
      <point x="171" y="635"/>
      <point x="104" y="635" type="curve" smooth="yes"/>
      <point x="85" y="635"/>
      <point x="59" y="623"/>
      <point x="47" y="606" type="curve"/>
      <point x="56" y="781" type="line"/>
      <point x="142" y="781" type="line" smooth="yes"/>
      <point x="162" y="781"/>
      <point x="176" y="773"/>
      <point x="178" y="751" type="curve" smooth="yes"/>
      <point x="181" y="726" type="line"/>
      <point x="191" y="726" type="line"/>
      <point x="189" y="811" type="line"/>
      <point x="47" y="811" type="line"/>
      <point x="36" y="602" type="line"/>
      <point x="50" y="594" type="line"/>
      <point x="56" y="602"/>
      <point x="74" y="620"/>
      <point x="102" y="620" type="curve" smooth="yes"/>
      <point x="155" y="620"/>
      <point x="181" y="576"/>
      <point x="181" y="502" type="curve" smooth="yes"/>
      <point x="181" y="427"/>
      <point x="151" y="387"/>
      <point x="104" y="387" type="curve" smooth="yes"/>
      <point x="66" y="387"/>
      <point x="56" y="432"/>
      <point x="56" y="496" type="curve"/>
      <point x="38" y="496"/>
      <point x="29" y="478"/>
      <point x="29" y="458" type="curve" smooth="yes"/>
      <point x="29" y="421"/>
      <point x="56" y="377"/>
    </contour>
  </outline>
</glyph>
<glyph name="sevensuperior" format="2">
  <advance width="238"/>
  <unicode hex="2077"/>
  <outline>
    <contour>
      <point x="86" y="385" type="line"/>
      <point x="111" y="385" type="line"/>
      <point x="210" y="793" type="line"/>
      <point x="210" y="812" type="line"/>
      <point x="40" y="812" type="line"/>
      <point x="39" y="716" type="line"/>
      <point x="49" y="716" type="line"/>
      <point x="49" y="755" type="line" smooth="yes"/>
      <point x="50" y="780"/>
      <point x="55" y="782"/>
      <point x="70" y="782" type="curve" smooth="yes"/>
      <point x="196" y="782" type="line"/>
    </contour>
  </outline>
</glyph>
<glyph name="peseta" format="2">
  <advance width="454"/>
  <unicode hex="20A7"/>
  <outline>
    <contour>
      <point x="27" y="0" type="line"/>
      <point x="175" y="0" type="line"/>
      <point x="175" y="10" type="line"/>
      <point x="168" y="10" type="line" smooth="yes"/>
      <point x="116" y="10"/>
      <point x="110" y="21"/>
      <point x="110" y="98" type="curve" smooth="yes"/>
      <point x="110" y="284" type="line"/>
      <point x="124" y="284" type="line" smooth="yes"/>
      <point x="240" y="284"/>
      <point x="264" y="410"/>
      <point x="264" y="509" type="curve" smooth="yes"/>
      <point x="264" y="652"/>
      <point x="223" y="714"/>
      <point x="125" y="714" type="curve" smooth="yes"/>
      <point x="27" y="714" type="line"/>
      <point x="27" y="704" type="line"/>
      <point x="25" y="704" type="line" smooth="yes"/>
      <point x="77" y="704"/>
      <point x="82" y="693"/>
      <point x="82" y="617" type="curve" smooth="yes"/>
      <point x="82" y="100" type="line" smooth="yes"/>
      <point x="82" y="21"/>
      <point x="77" y="10"/>
      <point x="26" y="10" type="curve" smooth="yes"/>
      <point x="27" y="10" type="line"/>
    </contour>
    <contour>
      <point x="110" y="294" type="line"/>
      <point x="110" y="704" type="line"/>
      <point x="125" y="704" type="line" smooth="yes"/>
      <point x="213" y="704"/>
      <point x="236" y="647"/>
      <point x="236" y="509" type="curve" smooth="yes"/>
      <point x="236" y="419"/>
      <point x="223" y="294"/>
      <point x="129" y="294" type="curve" smooth="yes"/>
    </contour>
    <contour>
      <point x="397" y="-10" type="curve" smooth="yes"/>
      <point x="405" y="-10"/>
      <point x="420" y="-9"/>
      <point x="427" y="-6" type="curve"/>
      <point x="427" y="3" type="line"/>
      <point x="416" y="1"/>
      <point x="406" y="0"/>
      <point x="398" y="0" type="curve" smooth="yes"/>
      <point x="373" y="0"/>
      <point x="354" y="21"/>
      <point x="354" y="120" type="curve" smooth="yes"/>
      <point x="354" y="360" type="line"/>
      <point x="425" y="360" type="line"/>
      <point x="425" y="370" type="line"/>
      <point x="354" y="370" type="line"/>
      <point x="354" y="485" type="line"/>
      <point x="344" y="485" type="line"/>
      <point x="341" y="363"/>
      <point x="339" y="376"/>
      <point x="278" y="373" type="curve"/>
      <point x="278" y="360" type="line"/>
      <point x="326" y="360" type="line"/>
      <point x="326" y="141" type="line" smooth="yes"/>
      <point x="326" y="23"/>
      <point x="352" y="-10"/>
    </contour>
  </outline>
</glyph>
<glyph name="uni20AE" format="2">
  <advance width="351"/>
  <unicode hex="20AE"/>
  <anchor x="175" y="714" name="top"/>
  <anchor x="175" y="357" name="center"/>
  <anchor x="358" y="714" name="topright"/>
  <anchor x="175" y="0" name="bottom"/>
  <outline>
    <contour>
      <point x="70" y="300" type="line"/>
      <point x="275" y="457" type="line"/>
      <point x="270" y="466" type="line"/>
      <point x="65" y="309" type="line"/>
    </contour>
    <contour>
      <point x="70" y="153" type="line"/>
      <point x="275" y="309" type="line"/>
      <point x="270" y="318" type="line"/>
      <point x="65" y="162" type="line"/>
    </contour>
    <component base="T"/>
  </outline>
</glyph>
<glyph name="afii61248" format="2">
  <advance width="429"/>
  <unicode hex="2105"/>
  <outline>
    <contour>
      <point x="93" y="0" type="line"/>
      <point x="104" y="0" type="line"/>
      <point x="339" y="714" type="line"/>
      <point x="328" y="714" type="line"/>
    </contour>
    <contour>
      <point x="311" y="-10" type="curve" smooth="yes"/>
      <point x="373" y="-10"/>
      <point x="405" y="37"/>
      <point x="405" y="161" type="curve" smooth="yes"/>
      <point x="405" y="284"/>
      <point x="365" y="329"/>
      <point x="310" y="329" type="curve" smooth="yes"/>
      <point x="247" y="329"/>
      <point x="220" y="284"/>
      <point x="220" y="161" type="curve" smooth="yes"/>
      <point x="220" y="37"/>
      <point x="253" y="-10"/>
    </contour>
    <contour>
      <point x="311" y="0" type="curve" smooth="yes"/>
      <point x="268" y="0"/>
      <point x="250" y="42"/>
      <point x="250" y="162" type="curve" smooth="yes"/>
      <point x="250" y="281"/>
      <point x="265" y="319"/>
      <point x="307" y="319" type="curve" smooth="yes"/>
      <point x="350" y="319"/>
      <point x="375" y="281"/>
      <point x="375" y="162" type="curve" smooth="yes"/>
      <point x="375" y="67"/>
      <point x="356" y="0"/>
    </contour>
    <contour>
      <point x="131" y="381" type="curve" smooth="yes"/>
      <point x="171" y="381"/>
      <point x="184" y="409"/>
      <point x="184" y="432" type="curve" smooth="yes"/>
      <point x="184" y="437"/>
      <point x="182" y="440"/>
      <point x="171" y="445" type="curve"/>
      <point x="163" y="399"/>
      <point x="138" y="391"/>
      <point x="127" y="391" type="curve" smooth="yes"/>
      <point x="76" y="391"/>
      <point x="54" y="447"/>
      <point x="54" y="544" type="curve" smooth="yes"/>
      <point x="54" y="668"/>
      <point x="94" y="710"/>
      <point x="136" y="710" type="curve" smooth="yes"/>
      <point x="173" y="710"/>
      <point x="164" y="672"/>
      <point x="164" y="602" type="curve"/>
      <point x="172" y="602"/>
      <point x="189" y="620"/>
      <point x="189" y="660" type="curve" smooth="yes"/>
      <point x="189" y="689"/>
      <point x="181" y="720"/>
      <point x="132" y="720" type="curve" smooth="yes"/>
      <point x="78" y="720"/>
      <point x="24" y="683"/>
      <point x="24" y="555" type="curve" smooth="yes"/>
      <point x="24" y="433"/>
      <point x="70" y="381"/>
    </contour>
  </outline>
</glyph>
<glyph name="trademark" format="2">
  <advance width="489"/>
  <unicode hex="2122"/>
  <outline>
    <contour>
      <point x="190" y="368" type="line"/>
      <point x="270" y="368" type="line"/>
      <point x="270" y="378" type="line"/>
      <point x="231" y="378"/>
      <point x="234" y="383"/>
      <point x="234" y="420" type="curve" smooth="yes"/>
      <point x="234" y="688" type="line"/>
      <point x="310" y="368" type="line"/>
      <point x="334" y="368" type="line"/>
      <point x="404" y="644" type="line"/>
      <point x="404" y="423" type="line" smooth="yes"/>
      <point x="404" y="381"/>
      <point x="407" y="378"/>
      <point x="376" y="378" type="curve"/>
      <point x="376" y="368" type="line"/>
      <point x="462" y="368" type="line"/>
      <point x="462" y="378" type="line"/>
      <point x="454" y="378" type="line" smooth="yes"/>
      <point x="426" y="378"/>
      <point x="428" y="382"/>
      <point x="428" y="421" type="curve" smooth="yes"/>
      <point x="428" y="655" type="line" smooth="yes"/>
      <point x="428" y="697"/>
      <point x="426" y="702"/>
      <point x="454" y="702" type="curve" smooth="yes"/>
      <point x="462" y="702" type="line"/>
      <point x="462" y="714" type="line"/>
      <point x="413" y="714" type="line"/>
      <point x="329" y="392" type="line"/>
      <point x="250" y="714" type="line"/>
      <point x="197" y="714" type="line"/>
      <point x="197" y="704" type="line"/>
      <point x="200" y="704" type="line" smooth="yes"/>
      <point x="230" y="704"/>
      <point x="224" y="698"/>
      <point x="224" y="658" type="curve" smooth="yes"/>
      <point x="224" y="417" type="line" smooth="yes"/>
      <point x="224" y="383"/>
      <point x="230" y="378"/>
      <point x="200" y="378" type="curve" smooth="yes"/>
      <point x="190" y="378" type="line"/>
    </contour>
    <contour>
      <point x="52" y="368" type="line"/>
      <point x="159" y="368" type="line"/>
      <point x="159" y="378" type="line"/>
      <point x="150" y="378" type="line" smooth="yes"/>
      <point x="119" y="378"/>
      <point x="120" y="385"/>
      <point x="120" y="421" type="curve" smooth="yes"/>
      <point x="120" y="704" type="line"/>
      <point x="164" y="704" type="line" smooth="yes"/>
      <point x="189" y="704"/>
      <point x="189" y="702"/>
      <point x="190" y="669" type="curve" smooth="yes"/>
      <point x="190" y="626" type="line"/>
      <point x="200" y="626" type="line"/>
      <point x="199" y="714" type="line"/>
      <point x="18" y="714" type="line"/>
      <point x="17" y="626" type="line"/>
      <point x="27" y="626" type="line"/>
      <point x="26" y="669" type="line" smooth="yes"/>
      <point x="26" y="701"/>
      <point x="26" y="704"/>
      <point x="53" y="704" type="curve" smooth="yes"/>
      <point x="96" y="704" type="line"/>
      <point x="96" y="422" type="line" smooth="yes"/>
      <point x="96" y="385"/>
      <point x="95" y="378"/>
      <point x="66" y="378" type="curve" smooth="yes"/>
      <point x="52" y="378" type="line"/>
    </contour>
  </outline>
</glyph>
<glyph name="gimelsymbol" format="2">
  <advance width="312"/>
  <unicode hex="2137"/>
  <outline>
    <contour>
      <point x="47" y="-24" type="line"/>
      <point x="63" y="-12" type="line" smooth="yes"/>
      <point x="204" y="95"/>
      <point x="209" y="127"/>
      <point x="208" y="246" type="curve"/>
      <point x="232" y="0" type="line"/>
      <point x="263" y="0" type="line"/>
      <point x="229" y="240" type="line" smooth="yes"/>
      <point x="224" y="270"/>
      <point x="215" y="300"/>
      <point x="215" y="347" type="curve" smooth="yes"/>
      <point x="215" y="460" type="line" smooth="yes"/>
      <point x="215" y="473"/>
      <point x="208" y="521"/>
      <point x="153" y="550" type="curve" smooth="yes"/>
      <point x="77" y="590" type="line"/>
      <point x="77" y="567" type="line"/>
      <point x="139" y="532" type="line" smooth="yes"/>
      <point x="178" y="511"/>
      <point x="187" y="484"/>
      <point x="187" y="449" type="curve" smooth="yes"/>
      <point x="187" y="188" type="line" smooth="yes"/>
      <point x="187" y="141"/>
      <point x="164" y="91"/>
      <point x="47" y="-1" type="curve"/>
    </contour>
  </outline>
</glyph>
<glyph name="uni214D" format="2">
  <advance width="451"/>
  <unicode hex="214D"/>
  <outline>
    <contour>
      <point x="130" y="0" type="line"/>
      <point x="132" y="0" type="line"/>
      <point x="344" y="714" type="line"/>
      <point x="342" y="714" type="line"/>
    </contour>
    <contour>
      <point x="-8" y="380" type="line"/>
      <point x="70" y="380" type="line"/>
      <point x="70" y="390" type="line"/>
      <point x="73" y="390" type="line" smooth="yes"/>
      <point x="38" y="390"/>
      <point x="38" y="399"/>
      <point x="38" y="411" type="curve" smooth="yes"/>
      <point x="38" y="422"/>
      <point x="44" y="436"/>
      <point x="52" y="465" type="curve" smooth="yes"/>
      <point x="57" y="490" type="line"/>
      <point x="143" y="490" type="line"/>
      <point x="147" y="466" type="line" smooth="yes"/>
      <point x="152" y="445"/>
      <point x="160" y="423"/>
      <point x="160" y="412" type="curve" smooth="yes"/>
      <point x="160" y="399"/>
      <point x="160" y="390"/>
      <point x="122" y="390" type="curve" smooth="yes"/>
      <point x="131" y="390" type="line"/>
      <point x="131" y="380" type="line"/>
      <point x="220" y="380" type="line"/>
      <point x="220" y="390" type="line"/>
      <point x="217" y="390" type="line" smooth="yes"/>
      <point x="205" y="390"/>
      <point x="200" y="391"/>
      <point x="194" y="413" type="curve" smooth="yes"/>
      <point x="111" y="714" type="line"/>
      <point x="108" y="714" type="line"/>
      <point x="39" y="457" type="line" smooth="yes"/>
      <point x="22" y="401"/>
      <point x="20" y="390"/>
      <point x="-1" y="390" type="curve" smooth="yes"/>
      <point x="-8" y="390" type="line"/>
    </contour>
    <contour>
      <point x="350" y="-11" type="curve" smooth="yes"/>
      <point x="402" y="-11"/>
      <point x="440" y="26"/>
      <point x="440" y="82" type="curve" smooth="yes"/>
      <point x="440" y="114"/>
      <point x="439" y="153"/>
      <point x="384" y="175" type="curve" smooth="yes"/>
      <point x="317" y="202"/>
      <point x="309" y="228"/>
      <point x="309" y="251" type="curve" smooth="yes"/>
      <point x="309" y="303"/>
      <point x="323" y="335"/>
      <point x="361" y="335" type="curve" smooth="yes"/>
      <point x="412" y="335"/>
      <point x="405" y="287"/>
      <point x="405" y="256" type="curve"/>
      <point x="408" y="256"/>
      <point x="426" y="267"/>
      <point x="426" y="289" type="curve" smooth="yes"/>
      <point x="426" y="309"/>
      <point x="412" y="345"/>
      <point x="361" y="345" type="curve" smooth="yes"/>
      <point x="308" y="345"/>
      <point x="279" y="303"/>
      <point x="279" y="258" type="curve" smooth="yes"/>
      <point x="279" y="219"/>
      <point x="293" y="182"/>
      <point x="361" y="153" type="curve" smooth="yes"/>
      <point x="404" y="133"/>
      <point x="411" y="108"/>
      <point x="411" y="88" type="curve" smooth="yes"/>
      <point x="411" y="37"/>
      <point x="396" y="0"/>
      <point x="355" y="-1" type="curve" smooth="yes"/>
      <point x="306" y="-2"/>
      <point x="295" y="42"/>
      <point x="295" y="85" type="curve"/>
      <point x="282" y="85"/>
      <point x="274" y="67"/>
      <point x="274" y="55" type="curve" smooth="yes"/>
      <point x="274" y="40"/>
      <point x="284" y="-11"/>
    </contour>
    <contour>
      <point x="60" y="500" type="line"/>
      <point x="66" y="535" type="line" smooth="yes"/>
      <point x="81" y="588"/>
      <point x="92" y="624"/>
      <point x="100" y="657" type="curve"/>
      <point x="105" y="634"/>
      <point x="114" y="601"/>
      <point x="134" y="529" type="curve" smooth="yes"/>
      <point x="140" y="500" type="line"/>
    </contour>
  </outline>
</glyph>
<glyph name="symbolforsamaritansource" format="2">
  <advance width="616"/>
  <unicode hex="214F"/>
  <outline>
    <contour>
      <point x="-7" y="-9" type="line"/>
      <point x="-3" y="-9" type="line" smooth="yes"/>
      <point x="39" y="-9"/>
      <point x="74" y="6"/>
      <point x="102" y="36" type="curve"/>
      <point x="131" y="5"/>
      <point x="164" y="-9"/>
      <point x="205" y="-9" type="curve" smooth="yes"/>
      <point x="244" y="-9"/>
      <point x="278" y="5"/>
      <point x="305" y="34" type="curve"/>
      <point x="333" y="6"/>
      <point x="366" y="-9"/>
      <point x="410" y="-9" type="curve" smooth="yes"/>
      <point x="452" y="-9"/>
      <point x="486" y="5"/>
      <point x="514" y="32" type="curve"/>
      <point x="539" y="5"/>
      <point x="576" y="-9"/>
      <point x="619" y="-9" type="curve" smooth="yes"/>
      <point x="623" y="-9" type="line"/>
      <point x="623" y="11" type="line"/>
      <point x="619" y="11" type="line" smooth="yes"/>
      <point x="585" y="11"/>
      <point x="556" y="25"/>
      <point x="535" y="47" type="curve"/>
      <point x="575" y="104"/>
      <point x="595" y="188"/>
      <point x="595" y="317" type="curve" smooth="yes"/>
      <point x="595" y="461"/>
      <point x="570" y="546"/>
      <point x="515" y="546" type="curve" smooth="yes"/>
      <point x="461" y="546"/>
      <point x="436" y="464"/>
      <point x="436" y="313" type="curve" smooth="yes"/>
      <point x="436" y="185"/>
      <point x="452" y="101"/>
      <point x="495" y="46" type="curve"/>
      <point x="471" y="21"/>
      <point x="441" y="11"/>
      <point x="412" y="11" type="curve" smooth="yes"/>
      <point x="378" y="11"/>
      <point x="349" y="25"/>
      <point x="328" y="48" type="curve"/>
      <point x="370" y="109"/>
      <point x="389" y="192"/>
      <point x="389" y="320" type="curve" smooth="yes"/>
      <point x="389" y="460"/>
      <point x="365" y="546"/>
      <point x="309" y="546" type="curve" smooth="yes"/>
      <point x="256" y="546"/>
      <point x="231" y="464"/>
      <point x="231" y="315" type="curve" smooth="yes"/>
      <point x="231" y="196"/>
      <point x="246" y="106"/>
      <point x="286" y="47" type="curve"/>
      <point x="265" y="25"/>
      <point x="239" y="11"/>
      <point x="207" y="11" type="curve" smooth="yes"/>
      <point x="172" y="11"/>
      <point x="144" y="27"/>
      <point x="122" y="50" type="curve"/>
      <point x="164" y="105"/>
      <point x="184" y="180"/>
      <point x="184" y="319" type="curve" smooth="yes"/>
      <point x="184" y="464"/>
      <point x="160" y="546"/>
      <point x="105" y="546" type="curve" smooth="yes"/>
      <point x="50" y="546"/>
      <point x="25" y="461"/>
      <point x="25" y="313" type="curve" smooth="yes"/>
      <point x="25" y="184"/>
      <point x="44" y="105"/>
      <point x="83" y="51" type="curve"/>
      <point x="60" y="23"/>
      <point x="31" y="11"/>
      <point x="-3" y="11" type="curve" smooth="yes"/>
      <point x="-7" y="11" type="line"/>
    </contour>
    <contour>
      <point x="104" y="60" type="curve"/>
      <point x="61" y="110"/>
      <point x="48" y="202"/>
      <point x="48" y="320" type="curve" smooth="yes"/>
      <point x="48" y="466"/>
      <point x="68" y="526"/>
      <point x="106" y="526" type="curve" smooth="yes"/>
      <point x="142" y="526"/>
      <point x="161" y="468"/>
      <point x="161" y="326" type="curve" smooth="yes"/>
      <point x="161" y="201"/>
      <point x="146" y="111"/>
    </contour>
    <contour>
      <point x="307" y="60" type="curve"/>
      <point x="266" y="109"/>
      <point x="252" y="200"/>
      <point x="252" y="321" type="curve" smooth="yes"/>
      <point x="252" y="469"/>
      <point x="274" y="526"/>
      <point x="309" y="526" type="curve" smooth="yes"/>
      <point x="346" y="526"/>
      <point x="366" y="467"/>
      <point x="366" y="326" type="curve" smooth="yes"/>
      <point x="366" y="202"/>
      <point x="351" y="112"/>
    </contour>
    <contour>
      <point x="516" y="59" type="curve"/>
      <point x="472" y="109"/>
      <point x="459" y="201"/>
      <point x="459" y="321" type="curve" smooth="yes"/>
      <point x="459" y="467"/>
      <point x="479" y="526"/>
      <point x="516" y="526" type="curve" smooth="yes"/>
      <point x="551" y="526"/>
      <point x="571" y="470"/>
      <point x="571" y="323" type="curve" smooth="yes"/>
      <point x="571" y="183"/>
      <point x="554" y="102"/>
    </contour>
  </outline>
</glyph>
<glyph name="uni2C6A" format="2">
  <advance width="348"/>
  <unicode hex="2C6A"/>
  <anchor x="175" y="0" name="bottom"/>
  <anchor x="175" y="760" name="top"/>
  <outline>
    <contour>
      <point x="327" y="-210" type="line"/>
      <point x="337" y="-210" type="line"/>
      <point x="337" y="2" type="line"/>
      <point x="332" y="2" type="line" smooth="yes"/>
      <point x="293" y="2"/>
      <point x="290" y="39"/>
      <point x="262" y="113" type="curve" smooth="yes"/>
      <point x="171" y="338" type="line"/>
      <point x="272" y="507" type="line" smooth="yes"/>
      <point x="264" y="513"/>
      <point x="283" y="526"/>
      <point x="296" y="526" type="curve"/>
      <point x="296" y="536" type="line"/>
      <point x="171" y="536" type="line"/>
      <point x="171" y="526" type="line"/>
      <point x="226" y="526"/>
      <point x="233" y="521"/>
      <point x="233" y="505" type="curve" smooth="yes"/>
      <point x="233" y="490"/>
      <point x="218" y="450"/>
      <point x="159" y="348" type="curve" smooth="yes"/>
      <point x="93" y="218" type="line"/>
      <point x="96" y="253"/>
      <point x="96" y="344"/>
      <point x="96" y="372" type="curve" smooth="yes"/>
      <point x="96" y="760" type="line"/>
      <point x="10" y="760" type="line"/>
      <point x="10" y="750" type="line"/>
      <point x="1" y="750" type="line" smooth="yes"/>
      <point x="63" y="750"/>
      <point x="68" y="743"/>
      <point x="68" y="675" type="curve" smooth="yes"/>
      <point x="68" y="87" type="line" smooth="yes"/>
      <point x="68" y="17"/>
      <point x="61" y="10"/>
      <point x="8" y="10" type="curve" smooth="yes"/>
      <point x="10" y="10" type="line"/>
      <point x="10" y="0" type="line"/>
      <point x="146" y="0" type="line"/>
      <point x="146" y="10" type="line"/>
      <point x="148" y="10" type="line" smooth="yes"/>
      <point x="103" y="10"/>
      <point x="96" y="17"/>
      <point x="96" y="87" type="curve" smooth="yes"/>
      <point x="96" y="205" type="line"/>
      <point x="153" y="306" type="line"/>
      <point x="233" y="113" type="line" smooth="yes"/>
      <point x="280" y="6"/>
      <point x="284" y="11"/>
      <point x="303" y="-5" type="curve" smooth="yes"/>
      <point x="322" y="-20"/>
      <point x="333" y="-21"/>
      <point x="332" y="-196" type="curve" smooth="yes"/>
    </contour>
  </outline>
</glyph>
<glyph name="uni2C73" format="2">
  <advance width="588"/>
  <unicode hex="2C73"/>
  <anchor x="295" y="0" name="bottom"/>
  <anchor x="295" y="536" name="top"/>
  <outline>
    <contour>
      <point x="139" y="0" type="line"/>
      <point x="161" y="0" type="line"/>
      <point x="256" y="516" type="line"/>
      <point x="373" y="0" type="line"/>
      <point x="394" y="0" type="line"/>
      <point x="447" y="390" type="line" smooth="yes"/>
      <point x="466" y="500"/>
      <point x="473" y="516"/>
      <point x="495" y="516" type="curve" smooth="yes"/>
      <point x="519" y="516"/>
      <point x="534" y="497"/>
      <point x="529" y="457" type="curve"/>
      <point x="542" y="453"/>
      <point x="552" y="465"/>
      <point x="552" y="487" type="curve" smooth="yes"/>
      <point x="552" y="522"/>
      <point x="528" y="541"/>
      <point x="502" y="541" type="curve" smooth="yes"/>
      <point x="436" y="541"/>
      <point x="436" y="431"/>
      <point x="430" y="363" type="curve" smooth="yes"/>
      <point x="412" y="210" type="line" smooth="yes"/>
      <point x="401" y="124"/>
      <point x="396" y="76"/>
      <point x="391" y="36" type="curve"/>
      <point x="389" y="36" type="line"/>
      <point x="383" y="78"/>
      <point x="369" y="168"/>
      <point x="357" y="220" type="curve" smooth="yes"/>
      <point x="281" y="536" type="line"/>
      <point x="249" y="536" type="line"/>
      <point x="192" y="208" type="line" smooth="yes"/>
      <point x="183" y="159"/>
      <point x="164" y="64"/>
      <point x="158" y="30" type="curve"/>
      <point x="156" y="30" type="line"/>
      <point x="153" y="65"/>
      <point x="138" y="149"/>
      <point x="129" y="195" type="curve" smooth="yes"/>
      <point x="79" y="435" type="line" smooth="yes"/>
      <point x="75" y="460"/>
      <point x="69" y="498"/>
      <point x="69" y="506" type="curve" smooth="yes"/>
      <point x="69" y="519"/>
      <point x="73" y="526"/>
      <point x="107" y="526" type="curve" smooth="yes"/>
      <point x="124" y="526" type="line"/>
      <point x="124" y="536" type="line"/>
      <point x="4" y="536" type="line"/>
      <point x="4" y="526" type="line"/>
      <point x="-8" y="526" type="line" smooth="yes"/>
      <point x="28" y="526"/>
      <point x="36" y="522"/>
      <point x="46" y="473" type="curve" smooth="yes"/>
    </contour>
  </outline>
</glyph>
<glyph name="tilderingabove" format="2">
  <advance width="342"/>
  <unicode hex="2E1B"/>
  <outline>
    <contour>
      <point x="30" y="303" type="line"/>
      <point x="42" y="336"/>
      <point x="60" y="363"/>
      <point x="99" y="363" type="curve" smooth="yes"/>
      <point x="125" y="363"/>
      <point x="145" y="350"/>
      <point x="163" y="337" type="curve" smooth="yes"/>
      <point x="190" y="317"/>
      <point x="210" y="304"/>
      <point x="233" y="304" type="curve" smooth="yes"/>
      <point x="274" y="304"/>
      <point x="303" y="332"/>
      <point x="310" y="381" type="curve"/>
      <point x="310" y="392" type="line"/>
      <point x="295" y="352"/>
      <point x="273" y="334"/>
      <point x="241" y="334" type="curve" smooth="yes"/>
      <point x="210" y="334"/>
      <point x="185" y="350"/>
      <point x="176" y="360" type="curve" smooth="yes"/>
      <point x="140" y="384"/>
      <point x="123" y="393"/>
      <point x="104" y="393" type="curve" smooth="yes"/>
      <point x="71" y="393"/>
      <point x="44" y="369"/>
      <point x="30" y="314" type="curve"/>
    </contour>
    <contour>
      <point x="166" y="444" type="curve" smooth="yes"/>
      <point x="214" y="444"/>
      <point x="251" y="477"/>
      <point x="251" y="559" type="curve" smooth="yes"/>
      <point x="251" y="641"/>
      <point x="214" y="674"/>
      <point x="166" y="674" type="curve" smooth="yes"/>
      <point x="118" y="674"/>
      <point x="81" y="641"/>
      <point x="81" y="559" type="curve" smooth="yes"/>
      <point x="81" y="477"/>
      <point x="118" y="444"/>
    </contour>
    <contour>
      <point x="168" y="464" type="curve" smooth="yes"/>
      <point x="130" y="464"/>
      <point x="101" y="478"/>
      <point x="101" y="557" type="curve" smooth="yes"/>
      <point x="101" y="638"/>
      <point x="130" y="654"/>
      <point x="168" y="654" type="curve" smooth="yes"/>
      <point x="200" y="654"/>
      <point x="231" y="638"/>
      <point x="231" y="557" type="curve" smooth="yes"/>
      <point x="231" y="478"/>
      <point x="200" y="464"/>
    </contour>
  </outline>
</glyph>
